<mxfile host="Electron" agent="Mozilla/5.0 (X11; Linux x86_64) AppleWebKit/537.36 (KHTML, like Gecko) draw.io/27.0.9 Chrome/134.0.6998.205 Electron/35.4.0 Safari/537.36" version="27.0.9" pages="2">
  <diagram name="Architecture" id="uveVxtdE0avw4sRga5g9">
    <mxGraphModel dx="2923" dy="1454" grid="1" gridSize="10" guides="1" tooltips="1" connect="1" arrows="1" fold="1" page="0" pageScale="1" pageWidth="850" pageHeight="1100" math="0" shadow="0">
      <root>
        <mxCell id="0" />
        <mxCell id="1" parent="0" />
        <mxCell id="OILzzEsl-uqrJFS4-kZk-4" value="" style="rounded=1;whiteSpace=wrap;html=1;shadow=1;" vertex="1" parent="1">
          <mxGeometry x="79" y="-30" width="241" height="106" as="geometry" />
        </mxCell>
        <mxCell id="OILzzEsl-uqrJFS4-kZk-6" value="" style="rounded=0;whiteSpace=wrap;html=1;shadow=1;" vertex="1" parent="1">
          <mxGeometry x="79" y="78" width="242" height="60" as="geometry" />
        </mxCell>
        <mxCell id="OILzzEsl-uqrJFS4-kZk-3" value="" style="shape=image;verticalLabelPosition=bottom;labelBackgroundColor=default;verticalAlign=top;aspect=fixed;imageAspect=0;image=data:image/webp,UklGRuA4AABXRUJQVlA4WAoAAAAIAAAA8wEA6QAAVlA4IAA4AAAwPQGdASr0AeoAPnU6mEmkoyIhIhUpCJAOiWdj5m/4TWCt+/qDk+EA//vp/Zj8h9AnVs8kBH/zSPN8X/lRCBGhpAOAMYjPAf//opfsv9R/H3+mf/////DvO61LmZ/H+ZtX/6J+IfWB3ecq+c94d+2/8zpAfnT/le4B+lniAe4DzAfs36tn+Z9U3+c/uXsAf1LqBvQA8tf2Uv3k9IrTQ/Mf93/tHqZ+h/y3/A/YHj0vjr/Ws6fWzgd97vvP/e/2o/93mv+++IX/hf1L/T+1U/t159BHA3wS/uf3H9wL/h+h3kSfZPUC/j/+X9HvWJ+++op5bHsb/cL2VVVLlYMW5nLxs6QcWHUe8aqaLDDqxEvFplPeoiIbGRsgKwHZNr9hPz2RaFKtjR5qDFKDS+NmwkXV2LqkK6Tc8oSwTd+MZMivyPgU1pISleJicFvOgiFmQJpVl8D3Yr/qVdcaqmIzSuGzAh3WqLu7SmvnCbiDiGwdBUtc/6/42Eu5y1t7RFmJcN6Jdp7PSYY56tLms0qqrUV/K2/ABbmDLHnitL48b+eHqE92Hg5ZXkUHHavtQ7nHMFa5hGJTqvEJgt5ufqn6Hw+3MHKwEIdha/tD5b4lnoQXHg1RT+0lnNFYM4eyvZ97rWpwQr8JVYLWQMbz34qT/saIYfY36lMH81LO24WqV6hzFUS0s0WaSpWLVZnHBKnpCML330AxFTPnuVYCshJct1gvIwdNUPESWaB7pQtPOj4rtzR7pl9hrnfWPrUNgt2n01SgPDUVeH1JAiXmJm7jOKLY9ZnqQs4Ca3a+qARsNFG0r2aTerK34UBX7zZglyjZ8T68zLUjOvMG8GXG549Fj6wCO/ONmdHLbL2YrD9aGBcOAaHOva2a+O6PYnrw9F2CiiaJmomNpU8StvUTRQwJEg321WKZiWnzWXUN1Jm3hCteNHJjmriQ2Qc9kXbMMIlD1TG4xnmq3b54gJGnTGaKUrSy/GdAoAE15Z7bdp/kxbXURK6TsDpvDSBh0at4tUykRd6Ed8I9sOKmVp69sHfH8xYK5efuZkU81OTNvJD51+nOFVzuXJj0Jl8aazvsz1qQDOCNmMNYxFEyFL89btywcCa2m/hzi/LVZfYcOZX5CQff50RHPNIq/wsEmr/oyOxgdY48tF1e1B2lS1LbBvYF4TFifYiiM5tzQ4HsjAkobolQCYpyugWbg0Jj1vq5M/NbLpvoPnLnoDq6qNFNO7oLb4+xbsCRmciwVOJugM39cF98amoGy4ZN6bYm+GZDnV1fV10x2LgJqyHy3YMC4lE8t4GkcvS1NudfNzlSlL3FHkCLSnrL0bs6oXxo4c5Aw+E+AW1yTFiykDjk49FSB47RTOblcrRX2YnGshaKVbtxgOXhrwRlgaD/bM31vwmtoR1hXioOT62CiNNDERU17jMXBpruq+FjmsnWnnghWGdhiUtj/KV7+MSkX1xKPkh24RqNy3pUMXG4/quP3XphSjMrfnNIvHspVJf01BWnT2XglzCVlEGrMivNpvVEhEofW/OVAIDeaKYCzo6KaqEjP+N7LDgEP4pWYc51xaYiaL6IpFAbl2BGFOPY5IOTYWnMjPwihn/TMw98KJEcl8inB6BDEDidNkXs/1ZOsXnZ8uUT+02l2ROj/B7UY/D983vkjIkzjxxMjk+MB3ARgBAN67TnLM7uVu7ycTl6VDQk4MNC8MBWC0aVYOgBSPJjQ2cLrh7zlkI+YOEof5AY82UJAOq9TtjDymB8Au5BVhCXM5iOesq2vBITU0MgdhW+ZoplKReH5s4pW99MsAvk6qzkgxUWoZ8H5WdVZoMx7jsJm586MSlmZZFUD4wwpKtf2Oga1MzAqSorkgA3Xw9I4Zhbpka+3lBM0xjARi46bJhRe4S9oh+nW50mMQipiuxGR1l5C8DralPlkVnaYRtYQwvz2Kzhe+MFwjOA861761GZAhgagdPJZ9jyVAtC4VF2Ms2aZEFjaHLwpkhbost+ufjE7lktZLAtnRkXAuWXtbXTXScuawwwAZcOXPfipKx5IefA8Al0LuULnjuqsuTPc34SifvvZuwrVg/D/surv8d6BN2LXvmGl2/5W3G6tfMF8sCeQ451KLpYlvUXBLfajBUeDj26dvCaVYBfJ2Sv34K77Ewno2gdxcLu9o1DCu1TRXwTFuXvIqO4QOB4T2pYi92GTx6vdLSl9BCI/OcdoS8eCsVHxz+ZGnNu4kc5xggKCdiv1mvdU2hWxs+KEoriFI/lTiXEculGZzavms0lEZpQM7WCtrV5Tamn/INKvN/C3K85Bwq6n6ZUy8ZpsUYbDgQ6kHr7b36zDrUGtljx57Ggdc8oTXpSrb/wknEBTA8coroG1tzyy2iOxDhMvtZb2XeHmKdj/WwJe70yB98Hd4vsYNqU/lM6M45qG63LR4+sUm1knxKtbTGHDDI1Zx9NB7O8mo8gOPoU4tSisMw7KIrUy6sQHK/cHh245QLEzXZErayJeU6Qt0SZGSWaoAosH+ks8lhHq7CJWEyMQbiZ1CHQlt2J5L/j2V22SZy9LBBrvcZYUUBF9cFZ5a6TdmGcv5AhI5+6yHkKMNmvi1Hfil3zwuWRDdMUy88JhDJtGp83UqLwENyqnEmSS///9KIr0/ebNCjV4jLQoDbdjo/dMjRWiXsCtw/TkPeossTOqFTFHoCtAZlnAipcez52rqvfzcqjupSElHLabm72lG/aw9p+CEbe524I4saezTLJr+ynQexm2bmuSYsu2BjdhkFuz4aSwLqoQdspZkE2FFE89qPWm4JrNKRVQxhp035bOdfvbQgJobmf4QYC8o2yKyA0QZEdZIrxGcJGCNsyM/LjPrxk8UfGbW3UyG9duydzRBN+LHM6j5fPm/c7l3EiNYs2INYv6+1COzpA5T80elaiC2Mb7v5J/16mZq9lOLxGcR2MhOeMUqoD5iJlGh61+AE8tO4OuknHIGf9eEL8CQl4Qhb7MovRStUsMl9KyXSYVcSW7MmgaPUFc2xsFSqNGM7O7pHARemcCeqjRqzhBFWfEQvIWdzthmx3ro4ZwbmfXjn4GWu/HIPxcFno6FJpDaOa+nahn9i1Vz3mmKtTjsa2pMbV/poZqq4ZjRc0nK1/LcGlFBdPrQvB28RIoOI0AFVIaWY8sZEq0xy+ITdwzc2i63kRL09BEym3P8AAs21q6ywm4TX6mgVUyxvMH5CxPbdXxTZVXWsMk3Y89GZ1qcjm4gbKqQz2JSlfpeLr5Lcqsuzt6pcwyGQgFpWP9r0XV90P/mRvyXp6c/Kd3VLbXPzDYb4HEEyCHfkI9a7MSDmzmKEyPlaXXi5j65lYnJS86WXLH7vxlqvJO/dnUWBk0IBUtR2z7CTgIVgwFY+uq8GotVZ1GZ+008s55Mez4AD+/E5deEB39bfN6vkVO7Inb/1CESE8ZBfYCVaPbPmoM6GHkTUKJZW6gkv0lCrV5TPm33zTJ0C3e4Zl6NaEbL0vLSG99n1R3cgKX8aA0YhXvo1VHBUgTHqdd5jMHBoIXIDUsm7xB1wN+83D1iubXmUgUDZUFxGJx+B1MEJytvcrXxc4a1nf33m0wE4pBOkC22DoJGfUMtsUoR258Fp5qcHEEFF//H2xHJINbvgEk7dgH+Q4SGqHgfKCixTY9MQn8Uhj2zE6G0BV2DUBxBcq2aCE0CCMsWXUv2Y9R9pOMiYwrW0AhFPcOgbyGeEyw4AFVqAijJSrkOQ5zyV8QXNcwaXN6jfy8t9KROcNf8o2YC+vPKaXnRfdQNkh0nc9P9SnHUsB3OmNJbpHN4h/pzgAsgDblO24i/6vpem43PONQlgThp036a1PrBmNWIml8xTDL3bFvq+3IEvWQgb1OX8xbzAqXQbMfU7OiI/nGv/FI8ug4jnczvcQqP568/ll86OYiUpq0ZuJYY7jmx93++8dDeooW5H05HPCE0NO5ZO5dUuGuCNcwRPCOF0j6BBhbrzhO5BSb3ONhWlmcdW/05MQAOgrO0x5VzYbzpSJwJ+2G/+fng5K+YO9SGaWlEwH2LhC3uRYj5tZ1UoRVVJVBFk7ktDeOxzHuC0wTZNlZB1zubqOjT2EbirrUdYt5QyCtlXMMDUXWsTxJ1RqrYQDsdK7OsOiRvFKj/bsTMPjmrJOphdTolSJ9wxZh8TXA8BY0jQy5ZQj8+j6vTmNlmxW7XjfmA6tr7E47uSahm3Lw35sISCJpwmMDzAOnwWLSIQEd3KnEN9h1DWXR+8JwO2ESEP3SV0TOR3QKkPVck/xg8fb7IY5lrmtPU88mbPKOpLXDUnHqouqtptKwFARtSILEFzs8RttaBJSa/2pAzwkq0XmQsd3Ivpf5xmLjzc3uz7ut5QY2GqMliSgL3+IvU0WKnIDjbWe8YiKiQ5uYjVI9QtlbhH/kMEFokavczCke2Nr1FGET2HMUWVgLzBKqIApClK/UxPpSSg+nmkJM2iryukpfFPITkyonBwwHO81Ut8tdE/Ns4whYC+5786zuF8IJhBl0mwC5tSIc75CzFl8Ni/UYZy3Ee/n/zS7CTPftM3OvMifHGZBKmPH1678tnTaOiz/CAOqH8Ef3xwuI6U5iAJ9EBL6tsvglEkUwkz1t4blsX7TnTKxqgvjUKHlIMOSnKD4ZfGI92R422j5fFLEIMe4XqSONQKlsRcz5sBsetpLsDipLUdQC6fDwUJQBAhhItephYfpWKLoB9u4y/y9yOIOSQcc4L1J68Cn+E45UmcLI7QikTHcnYJoP8v7gO4QuAgSo143iXxmWevNEYJIRfFzdV+5nt0tE6pSpHFw8e0Fd5CGmla7kWk0jJGicCeasPFIIz+Jt0m+zMNkm512bSF2p0aSqC+2FBGEkqAgD83WImgG+B5EfVppD8lRYMk+ezpAKrIOF1c8PjEnoThz4tdJ9ZOLf4+nuz2fwkyWwyo+V/8F1KnQsFpt1AA/5zZFrmapJjN3eX0ysNL3Jk2npwgoIe48rLSr0HOYYiVeDa94PZdOTCOOp+07iQxH5VafczGrX/m4UwbCo3lipAl+wLK11A/lr3RMRQAzfv1NuMkGjyicy5bjIlTzCH/UQrdIJj+aySaZqf34m1DCaVrdrQXOmUthXB+1N+q1BOhm+UAJGJo3PzDSNWdg3EaMN9FOZg8ySPbjOWldg28X1MoWQ3j2rQrXFqhwkuBB/Nfvn0GXn4151thI8DBGObQrcn6tAYB7R2TNTJ9Uwvrz1NQuanacMNiE/w5q5Jnsg4ihM8+yBsOjueY75SV1cdGZuJrpe9OEayjeddROS36JODX1NO12h35k+e4vjvC4SrpKcwflBd10tZMvnPHvmoRL6TvYFchG6S0QQvcfZ03u2VOhQzxX3kultBnQLY1rZVLZnn1l4wZ/9xYkphUJigT3miRxb2gQ0tU7Bl4WK2vZ2uxoOoaGvdDMb1IAt+P0UPCSu5658XRMZNJtqrSJLLeredhGJ8019jWvc27XGn6SJ5QXGJk9DQVm0hlC3KSNhZgeKAbvYc2mUn5bUlDmumKZAv48skPM4q6lVp5IHulFQ/cWvjdMfX5cBUHAPfk4YZ3b575GxOJVaoGUnxA1/4WD1ssb3xM0ig3+3rCkS3poBiLVLW+WBgW9vo6XeVxlyc2UmGUj/7RXAckCOhLSURE/RsZVefSXaNOZf4e7gItFblqIGybVsDuu7EJdv5VK7wsF6GGmtcEjR6MAfhx2afql3vtMOnMP+TnGc7mAaaXesB6OuXa7b3xLmqJBU/hcVWjq8uZI51GltQeSRzRuZjJBIIO21d+OBdVQ99NfjJH7v3v+g9VSk83QDg71aa4KrXtT1lfBS8Utzs7CsbGyZJ3HSu+hvppBf0Wrr2DeRuem+JqQjuwOYVHXzyvNyq6A+/hh2HH0QjkC0ALb00MqmmLrfdOYrJfemg5L890tn8UPL8Gm/hZTFqD4k7smbdNeiqjcJnT0GGClm1ln638/rnfoizuNDJoVp9H0wsz7Kac6sCqf2KRwF06gSs612YaiDIvwU0GcAnkA17atOc4fvfEb5qO/oLR7ZgrUShscd9CnL3xE4OjKKnTAS2j0hiqH5J0iZkLGtN8WRbv9xXR2IVURhw50KRA2jPAmHhzTMR44MSiILkKYAEiZf5ODZO5ux7/e8XZeZsOzkWSScjp7vnk6XFm1Ibuy7LepNN1ZjqKBoUjNs3nX7E7+DE4ykHRmGNb3gHPj9DCmfhVCXXcqWIBYX+q6npF+0livMPq+HTR491uogfdP62ncwGJHr+WRs/w64mN4A73NqTYtn90MwqA55y8MmWbktD3ha1jDFgFQMAA8iPHju7iuBbn8tnsCimZwxCbdIBbrPNozQ8pvmnN4TOqbpBBtZP43UpQAiZbxV+7kB3IpyM8I7kWmnqk8XfNCwmCU1iN/Bt4aPU1FxHPKums6Oszo9YYyNP4xlS6qc0k6/apKkFPZIYVQl13fBvB4mbj23jvPGtA6tPLSWGqq17oOLv07sLP6b7uYD3h4AC+JfvWll3al3gPJX5xJ6oBeDLAsBN8Z3qQCGfsmzbD3IPlM3n6EbQGQbdr4apLLTXng+lpzGCu8Jva1qY2eCcfaXy5aWZWdnyYXNjvQ5j0UMbdHUOvA4My+PCF2sh4hiqWX2Txo37K/JLQpFDeO7XUFI/L68Fh4x/KrNwVDn2/aORhuWgHIS7FBkf82Il4PH1iHp8+WIN2Aw69ZDBI0nsGMrCsGJW4YH+cwew1ooPVDj2YvRVx76AqTYRxhEAu43x0VVtEVm80RNTlK2FJXTfoAqOB8VsLfIc5M76zEoXis8UWH7jVo0jQaMy37b4ZsCL7Gji9T2973G1dRpy5XyiNfUDyiaRLgRAs+SYyNCQAmK1iWAW4oMrkuApjmH2dFRDZNNXuwRR2RXEuEyVkGbeySdVmpQKTw6CZorYRx82vrBV5t5cidJ5Q+W74E86mjM7OLzBBfeJlB/c7bIke+Eh6sutPwA467SIl/IDXzPV90a0HmwJ/ttjD6EEFoZMzVZhB3fER6tqnPabqyksJLGq9LSDvGqcqukqErGvq1oBLAjtVJm26hncaPz+NGtu3pmnFYG0q/ycddTw4gw+Dc0yRXSlKU18LAgSblL96y9P9XdXUwxAVWQEGq1cov3qUsK/3XqPSnxUCzZpcCHlZHgNP1BV9sQ1YaUOFx2otFJAWEMViXrOCFe6kkfbh/IZD8Q7GpFZlMpp35pFjg+70/1uFrwQkl103cVMHwy8HYpSJXB+llpeZ5PEdp7VRUjTgdJKBe/nL0ERalLePwvZ5vCVLE7Z+ZWRd6iNwVt0JcOAH/qBj2XQBLXD/wf8SuZoqBpAKcEWUNpGjGKtw50hr97BOJk3NSKjWeVlPBtv29pbD713pG14S5kqmcm6KYEAq4rsIaElw8QRLe5Wuvea5/qPOZ3ohZHCFUyKG3+8Rz4EqX9K69ZOV2Gg4ImaDK+LCiY3wCP3DMkA9oEk8AGbl4L2ls5B94lGxnT6ZC1VwXBddF0Xk90FNXGgQpd+AsIJoQYYmKhWyM/Vm6RvqDk7SLDYu5D/OPKFER6+RxXwy+AuiwzZyWD7kAA6jnu72QQriqe99FRrvTaYXN7q5DT2AbL2nNXD/m8AqkwXbL9xseobok8+AqFrgxoXx5xMFqRzQHpsOavZ/Q36OQyD4bHr/sevCocjtcWSbthhF46puOXT1VL232/2ye82XgbuaacFFDkoJT1xc2BTD7uC2KPzWxuFHNjiradOymAEO+9msnvCvVlYkD2lckb14kDMQni/3CLQAehs2k8n26aHkc46zobBNK8DIEJhGfuhd8UsaDyNiOTvN3cypi00f+lMwFbpQYaTJOMgeN7jtk87dlMqIaVFxjoicyw0wc1q6La/97Xci0enzFCBH/ryQ+e/1WeFlo3aOBBvTkYJvsHUgxvudZbsxGQgaOdR4gk/3Nv6oekyqk+st8si0dGoxdoJTvR2nx2JaP3tqGQyCJTsxjq6BhChxLvicoYpD6mC4xM+ubZlOkwKRuUzvoMToHtVSi53LKAUFQtiRFwyH+SMNgVI3zTk7FdAHxBGQz1g3kVE5Z30qk1ptL2OOXFReD9iZNt01MzqWwFcLmm7acHhkP3skg/N8WirNpXPzHpAuldBW0JzIPlQ6QZ5sKzjA6JSWCDJ/RNjOBlaLaTY66hCIaJE41X2wr5IAQ9bb4Yq+caVAxwLF6WCFuKHrun/qv0GHE/MdYKdlxm/XjbtUHR4DQMGYDNBYECcQ2Mw4/NIKlpWWcOhEczxegx+6VvRYZFx1yPe+IMOx8B5FdlCpnFhCH46rFkMQRZB1u+sIzxamWCMEDty4UPy3Jx2K6v0ajM2PBVk/aVcoY51bC+Lne3Isu4uXEkdac29LdOxH3+Idy0Jbd3ssh0IU9NTDPPhswg2pKKqF5nxlPgYDdn6TOcx4tRKOTVTPoL3yEoIc8eFA73c2eQ+zMkFbXTd+iMn9iZXGl3LUKldLUvpEqfA5LscUsK0TrXnA/7guzbK+isDNzGR3+KzbYi2eZWXRLci2yGW/fShuP/rX3oFT/Zgihtu7T6+OOm/exjXktiEicKRSmfdmup/+cxz7Jtkr/7PhVKCmxS2ovCArv9rhLTydnB8IGlQV6W6xsHi0EMdoL97Uu8EaxwM+QP4C5gTwngUJCV8+eo81gkrALLYNI67LF/mi1zs9FYEEepblbe0HEedf58W2kWkXfH7C020IjRbIY7gOUqpZdHxcxyTBp6Ijk0V0KE/f1/tBKa5hIB5cMkVIAxJjeNC3yE4/qb4xzgKVkN3dvomYEzI85wzjk0Meli7/eZ+Cyu2FvsDE3doj7hwEy8rFmfVAZtiUdBtHmN7738/6vcQTDWAdgNW64jNdb1HJf1a+4t1ocl3f/JpaNvkjoZwKvUqk34MoMRU3TH2WnnTIvE3yMMMidlZC+k7s8UxfaUSf8iS9Wh9iLfC0jo6iaz7D+sn7vC2MDaeG9H6IZvelqP6VAk6FtMJQWAX2vYpd+Hm3OIpVE7NQxRxCVa+VH+XeUyH71Bovkr4xr16bqDQYzNjlOxrsrrVaY6uJsZ6U2yMA1xUPKGbVF7RcRaDwiFcqTa+SFTV+JKiOz3Vayuo+vGZSo3V/vqsQmKDjUM2LYF33mlC3y1HXIX5iE2CQyODDsfs0LhNm6kjdLt0nWT9WhvgFUHpdJfh0JW2N1Ef4tCOcAJL/ziFVrCBiPRf7A21xVtjiet8tR1yI3UM3rNCyml+/2Ku9Fyx5KPhxnfUXLWhsBwpmUapL8JJEnhDkDl5eB1OLEGpArNOoNUXVLY/hDsEo3m5Abm7BEZwyXbeKOiC2EYyeBdoRR6ubuNXCmZX0ED5UFntsfQE5yTCgWApeeitq2pGtH2WI4aTUTW7ayzTkzORTVVFj72HcC4w0NybWs0VzmX1Co5BGTo3CmZKA3z3rTY85x3aQRV/iC7JR16Q1V4BY8bsjX/CP6UOyqKD2Bq4FiX0p+wtcj3m6dQpZWT6vUlHZJq6NXYjRKJMympSr38GxBHPaNk7Gv8tDrgS2j5RUXnlzOSb4B9H/rsmBPU+MfDqMfzn6hZ91RArplLdUOMOm92sJL39u5+nOHzH+dJ4+++Aqg+FriF445viSAGKiu14/PzRb5ow3mWnGj8vtBW2TKMP3tyEdhPg9fwTkvs5mQrhqz0SedzC/5UfxuN5jIizAzT7uU0hf6GSlWGkUKaUv/QyMDSqwhJHjLSZs9NuVGBnM/cUP1N62z/QHL9+vFL/asRnwrAsftdum0HbVR5jGGxazXfx/lVc36S61sI18HZy913+y32QVUh3/C9PrNa80snJgpstjy40eAALcmL1VK+xl/Wr312nX1meZX9eTn2CnkuVeDu+nzX94xH63AG8RyBl02aidMt8fzYiXiYfW/5pMUb7NbHm/weyyWlE5m+ZdEzKeYNlH7VLH5OfvdwEfBdbaShtU3mN9sVLJmT2zNKl/1Hi+O/Y9z9qcbmC4U4pYuwcd7U2+ZXDKtTODxt0t4yzk1Xbf8wq7MUtgsnqJ4imiWacLiL2H7PaPBgm4iD79IueywQpTEwl99ysnAW9ekYrqesigDf0VQihkvmMwqF6pxlL0OM7+0rTZgWKbT/0HtZenbvBleivhWrHlA7uNEv3QP+9+5mj0FeO6NO/LPG+8GDf262rUEVn/quAhgr89teo6T6+FsiW/e7/+6yGyf6DuuxXkoj9iGuORNyD3q0PbJmpSWePrYgHayuueChZUb1/EWGoZ5mSEkbTVDzvIuHEwTdZzadpa4B2KYmMvlgaGpuB27jPcatWFTdqEEyBXi7K3qL44Gpcgg68IovTwTfMmADMmf3KF0+CIJFDwEOSX/AtbOngdgsbvJfjtSD5GSHdv3t+YJ8ciD33G715AXJSdd9ArxHMTwlOjUgm9R044qnBewmEKEZCcQue+R+TXsFFZUFhvQlHTPrV0rajDUjGu0wmK+7RStXz5m+1hI2HevhmnwxOscW64d3JwXjYVf0Y/de8TFS84JVaQ3/z+i4VapLfiJnSqI9DOwQFVmdpUvTPkDpHy3mU0sXiwvSW2jlFiO/MUhl/6n64RSPD5nDVMNa+eSzCOtWhG3iZEz6qgOMEuWpWsUwnbdqRwYP3z3l87Lktww1gCCdl83luxlNIuwpdOsUPYxQJtzczrlnaE8gbaxAKnK8PoDk5BFuiaIuA6WydNdXhqV2Y8wJsB2RwQAHgti4Zx0G5gI8dML29w8Q9IHpXHol0LLbLKNQGUyHRzbY/CsS2tm2bhvTixGhW0hcoezcpRZ31BXMDwMaCdfnCj8A0eI2ARLX2tgHvYW2xQsh2zXURSAEb5TxFC3xj1qubDfynwDqNUjhn9gELGzqnOgZouCTaNAnf5y2tGGcwJY9MiEVlYrUTOjIEDyGURxc+OdI8q6Yv00QrFOZ90ElDMynyEPOgl8Yopjmpf17sE/Sl5sRfVbP3/2YI+mlMW2hbZjDXS0DYqETMuw8ewJBH6rcsYu8su1BuimXLN+3CjcZYUnsez7vDy+wfBu908Fpwl/SFxI9yY3YCyUgA3q3cQ4ol2IqdWFu2T+ih4YZF6TaVdp6hJYPzy5I3TwUANKXDadeewUPXoZ/qkyqmgCDe0l3NUTLiom6urz90LI03ePsTbV9L7WXHossa27TnsFeO9I6IoNxOlFSSUGUOYSzT/aNdUCjb7I4yd5+nipxkd2T7XBF2qafUMDqSLSFUB2yc4ml6HLc5N7rh0pptLUSdjntycqx3dH2tRvSSGTsaVfHYRMJakVxn1ZhOjfCVm0vUGNeecaPer+2ln5tZIawtack/TcwYlD3OZuJM8zQC5HVSvL77GAuWhIfzQ5ApBbRNrYH19iAD4UXu2maaAxN2zVrPFXUanYpEWYRFk9W846+ii9SadZRQUbDPSLMJday+vdvRE4mRegB4sbXy/wg8a30Hl4OxKk8o2tvrtHN4JE4BRhffa7BspJb9MSPDmQZeZ1MUEIZ/BUkCbiSQgD7876n8M/f8PCdP+7gfK+WXAf4yaL/YjOUVCr7KZ9Whl+96Jct5FlA1A5stlvxPEGmj9y6vqSKx7i/0B0whMLltNuFC3ppd5bMDh0jlobvkv2M+Onzc2wpqo1dOL81kvsJbT1Tm/wu6Pp4k5yy0xYY98+g8RQLj8CP9dxSj7e5jMFpwXkSpOEocao0JVmVQ1QII/VUOucDg0UEGjiy2wDcNo/CIPx1qiGlIk0bZhIeZ7ubbh+xUZGL7mz57X82fxBu7URz4RMcNqH51KEfzIby3y8zi1WuzFg2XkP01HKKtX16dw5qZgP4vHNpRvlx1lkBZjMPocxa2Uo+15ctMSUvBfFUMZuZp/kbA5EpV6YGF+Ytd9DPk76wdW8IkJGxgC5FR4Bsff92uyK9I2A6RALzUpOkRQSYm0QLz738mmnMUzcUr6xkMdfwIULKT7eF0KvYt5oRwWrKdCGXanDHAT8JPTMfocveMlknkFKDOrd4aBAP3KD3jfa27P9EIfHxm52KldsqlzzUSfPuxlbZes+ZHnJPWY7XM4LS5gITJSJmVIQbyehkeghjvONNtCRMVS8ogx/USzjOsDp18tUT40/b90LVqTT0izYF8S7ff0Q0ZiD6QAW5s4PWJJyDPiiEseDds7LVpGnm0HsXWYhG1TWQ1SbaVrbvd+KFPtd3sSN8fyU6/1/bYXWPbtju/8kjEXYpxuNJxItvkjwcIQ8qnU8vZurmNpWqJmMlZp1zvGvxvv0wgq2uoYLDJzqRZptx75qLSP3DRTkAGFM6vnRWBivDgn+EERtIQ5LGozORBSPU8eBCfjnONhw125WXlDiSjhkaTr+WtFrJcCbqQQyGWEUMCPZqXj7CeUqQviatCSbNPdkBLsrZBhL3kSi2OyYY6Gq7Koi4rjI5luEJPaAl4WS1JlT/j7Y4vEasxXWLHZYwcLO7y3MEqZtfThpEKPqTRu14MXqFY3BGDw/4GT8ACzFcC147po1/Fdowb5we/0CCrPupQx/OXNNP8u37yppjnTTx4375TRutoV3MLTYEWHdUXej7v1nGDPkPELZl99NidL4s3Qu2S+iXWfIJ2xWc/zazuFRHC2jxHjx2GMoWlOaXdiS4RpOIjnz2Gw/DduyxEl0wVNqJvPhwk7ePgZVCAmfm+MKC2GwPGoxfJ6dUwuqXMMp6+LCQ6MnDomrvnWBZ0MY2bVGIL9jySBoz9Vxb/GfkNKmm3uWZ0rA9lzyF+dXg5ae+0CE+YF1oioTPVt8Y/6Sb/5vOtytNiIYqd9WpPPINfzS4UUTVA38kxDi8tCB2OP1PKtgpzFhBlZw7NsAg1spLssyqdNm0MXkm219sswdChlfBqOhjhPJui3pvNtmo+/xSUgE7VklWfbF12Mu77NWlWXJoZnEU8WbVnJqoGo6xwnol8tVrlIu4yIcOntQ9QK8JDVIH0vwdhXmDpmhCukM9y90Rwj40AnfLgx/rYDJxH3cxeoElTkkp81cH5NHg4oCXNCSQ/VG1xhEGSEvsUwzZQ5aXUB6f9w6AFiTjAOzP6IMQB0So+/hUSHHuerPn7fM8t1Dqsu8F8Qkk3UgrGJXzGkj1yBsEclK1cqaf0QSu36KvshJcwdmCwm6W8NtOFNZz5ZxPciRv4b0tYz+boBPLgKyLT/OdrjlYEQ5YveBSHVwzEEYSsBJjmITvE017LeuN161oYgPMqaEtX2uMgSaWgS3ugmkkGHAST4SPmnbxgkhaqT0bLm0lWhocPUMkePSi2JMOzaUzZbii5X10zRj618/FqzV9nUr6jrY1QHnCEiKDIlVzLTyJbW8v1iq1UR8fA3z1JfmzcQz7dspCMdV9se2ZdvwvLPB2lQ8oK91ErH9XIrnGSt1CpjADeKsUB1Ns+uAx3XsoTye+Vi8xPE1beq00ISK8d/PH1LC6cGctTTGkGl7jDqA+BcQwbiRcJPXfohlZCO/WYaplJ+A5SgvvD5VxnUjf/SP4E/40kK9emLyYMYui5L0GEfMxklQ+md9CX2sOiglDec87JPOJj1RSb+9+yLKU0YKCCA3W6IBkANwnWLx2m9t78A6+y9jTH3g9707lw2UKt3C7y7Xn6tyBT9UHJuYyOV1DnRYkgG05duQdxxpFK/c8lWxYqoGbMLlRVcvgqhHzMvoHE45HFZzfpEyaYxOA+zvUqVveW331wPCTO4E3iij+h619kKDEoBE1KUbjG3FiSLu9nRbsge3cqi4Fa4sD0FflXRJNcfExW3xXHDbt6MbeXCU59JoyCIbX2xP1GAjgEddiQMPHf0+d5UlbSlEH5mCMLNz5GCmR2SrpXY+tGyQ6D70iQNOXkQQnUFkBK69BThYX6jA+wjwud0nla1hH7nxo/2vrdz5trJ6gJXR/+/JLWt4ju9zTElla4S69lEJvPkwaX8imaEyiCOln47HRox8uZ90bz1SriImgXSZeO3DiiISKB+ZKBDtxFB0eQlTjIUsA/TAuXtbCdhtH/H+k9yTQxcky7vI23xcBg7ozCOxjHhmu4iLJslkegclsNriD14et3+0yaKd95BiBPTXbvJbmIBAo86O9jGebqjS9zAy87zJnNmaUezChWAdG6eyfSPzFnGfPTWUqmNRjLAn7i3XF3t40vUk3EiIHqDP2zNFYEnwicQh5qIYb276AR+5cm3ngg/RWXxzDKYAwAHxioI+VNxejlUcd3G5EcKfzq9ax2aBhtXzQ7TTZvwDxKTn/mag8o+5XKt6O8n/lrmw6ZECIqkohpHjZ4u15R4i6TbX1e00iCQHuSjKVgl8En/J3178akCbT6DmKr0ohBnjTFfWXxROhgFdaCXk7VWUPtzjqI92Vx35in6HpDspjpr5hdnVXgQucBebmmrwijItivgdpOq8bocv4q3qQCrLe2k59ph8TuyP/q21ssr7ly3OUXG6z8+ZdWypjEGXQuIs1nTzvWCxgTna/6WuNTmxLyqvXwBZ0gILl5Urb5vp4GjEXs5P09edNMGRmNqlkI3M9LrF8c3j9G144t9gdrpVsmGa2lVFUTgaXgmtpmFy3u88mR0ky6hpoKZuaTQp6h2M0CGaSWVrN7TOKvbgmNQhTxRu/aWmMKYFLsiQeqmEnUzAYWapI9p3HAeeOlx69fV4n5oFr1RP14LqAWqXG4sK1YPEDtP+OUxPLEdOgLJTi/pj6QgdLWiV05CTOYCnr7NF4D1M0ALGD0+cZifOnkvrxzPk9VpDCEvn357XH1RQSNnGVg9Qj5HMk3ffSa3EBokv5gXOFHnuhzpLY9if2LRXGKrthvIdfJA0fOap0dfXhuokVtBZEEv8NlxHc0KC5LHHa+volLQewUn3HxR1uy0kkhz20IGstT+XoqWrh7u6tyzDC4RJNDrqEskzbnfS+vF04ADaehHjD/KbU53jkuIs5REajeJcX+3Z9BeY2y1FJGT3FN1nPhee76qi4HJMZjwf+hee6a63k+h8TKIvl3Mg4iDYDggc+feF91J8Een6QsprLdBazWgxH2vXswpWihvRVs0fl9ZVXiiXlDjHQZMqonpHrGzpMWPscbvpSUO7NG7zot+01XsTeV2Zt/xCXrFA+YSL350b8B2VUqZhNlFlmGFDToUkB0cYQVfFYNSnV/6qfomcUYKac/qzIfGJgWYMj94rlvSigfxKb5ru0yBV1k0JZ5nlGx2NZoYGceUUOiaVtgojOIcYtFu3+JWnD3qyjzBtykgMoX36EPPV+ziMsFmINg5wGqJnEn6dYwEmw0/uytS81xfzdszh0rDpRoO/FxfLk1vPYM1dMGj3Pqr4lLxs+LpZV1wqIkayY3FHvL4JI40HShHSm5OFQGiQh5yFDhCd3xH61WhjgtPcT685tB6KLkTJqsEUndsNcQGSRdIsanhOTNQlJfe+egKR16QDaV629zTPvQ9d5omcOqCfWTGdNd0MgKOk/uEsSJ+XDfiacbK7OBB6Lsh5CqHnqGSnPz1Npcto5vjNuuUDsNXIdJ8ryzoRSAoR8gKZQXMlvUPQrXOYUiY9XpOMgJcGALXP7WUR4tNLhpEcjwMCTkSZVZ2VxHdn5SP4wJ75TpAG1XlAL9lnsTn1kon8viulE2eGUZ6zp+S+DL92o0/qQrbbFOeeG0fPIHKDRdKzzOSGpLQdZ8uzTyIwecFJjCXiSP7x7OAnKlM6GI9q67SAFaMSNOZxhhT7+a1a31dd5uvnHVliR6Zy+BRME1wks+0GAFSdrKhegvoLHLls/6tfy23B9dg5PJ+uBk5K+3M3q8P9n9dgyS+9RXKigrNyAqwqJiSxdpWpZZyrswRR7+qlpFFNyNvK2WF3azsfGyZtbz1PMqNEG2hpivGy3qMdmMLDTUPuZ/naxTuyjrriXo9hZxZLefhqhaH/7vTGSSZJ/UijpjWBNDKF8J94Zgo8+4Wbz4HL/bwPgmQZukVDWJEeX+j8lXzeWnZn7WIhgNrfasdsw0gytB7TlR9EfIVTTzKZwCK8g5rddSlesvlINAjI+lZyWALLUNEqbkM2hoaxIjpnpZLlYs8SqGw9o/2rHPp+Rd+zyoIe6LZY29Yz+FAGRtvgSe4jJwzwChlm46UWvKnuYXwH1TnD5Fg/CBdvpBrUJ0kB42EZl/ijzPNoOwbUuPvtX3iLt0YvYahTmms2whmX7EVA4usNjLmxlt+KenF04wT1c0RNJ66vnuhH0Kxjls7yLRDdPbs7bQKfa1308JmKnqyxMwn1kXtyJEMCDPQgeelQCySCdJ94TwO2fx5UXCH6OBBcNBCVI9RLmBz/3SD4poanONTj+Qt3/hu3z9dCFSV5GcsaYJfLXZEaBUc+BrcNgK6aZNuBb+FiNFkNm2zxTGuhNcMS3hxf6WEfNQ5FCVfQQqq4SIViFjqlRadUMVJ7TTxPuemz2HmdKpdQf73bNQ9gC/MKqDLd7/CCaJ2JpIRsTgb3Ddj57b3U1brlJ6s6xTCQ5U92vgludftxxFM1p34fx7HG84t/1DH9hJ5X55Sz4ZJB75Y0fwDjXv97eqmHfmdGJkkwUzYS6Pi3AaxWJVbPK20YVoFwjr1mWKbOqYZQRnK8K7a/8SKwblpiS+7Y3fTmOMCUT0lo1pbtfUHyRKCV403e+DmCZ0Jbw70mlD66rjsywqFhUC5FUWKNK2gi2F3ZrXyWVi7nIADn9+jL0H8ljmNWNe/TBtWHSRiOUqWn7P2k+HOXmUiX5QncjT4LB0Hr5yXgmpDRw/9sn/IquZ6cbgaTjSGQWFdhodmh4yRsKtb+dOkWk0hkRpdfP1XkqLfdj8/CTyeVCfV1ejOcKM1lJ4mMjAq46vZ1+G/y3SqENyvXExHQQ9G62uN0RL1wxx7d2F9NvjbX0aB22kcg1GO4n6g/Du3ZWyEuRs4udloHIjUhW2JPl/U39zDg4pUxO04m86H85C+K/pvNI2siSatefJhKU4vfMKYzh/gPCOsCDiPVxvmnIwI+TQzoXv2lva8KjLvhU8M2jNX0G7zRC5mT9dCla+5DC7rwin9bVI+ta6bmpejTLWMqxKAoj9CTXkKWnEdgw+vvGFyr0YDtdwZKAqYB016l2JXTtueK3XerGz9sc+M9rkp2pro5QtkvjZRxTbB3g18pq2J5nk3AltFUnReVw5JG5nyDWK36axKkFn+Apdwy+GhHG4N10wnv0lkp2qmH9iyBlxoGLsnQAUT0laNogF92b9u7jlvAXjOQY6r+x+IS9Eu6ly8XolWE7byKzkt2Dn1JGCzyBKbkhjlBtGAlprkt1MwPDBBC+jK9r0bzABYL5/AKzB68JahlnWAQ61Wyl1WnUkAnth1RVDZ3u/Q9ljkJROUk7aKjdk5FGXCUsfzAjPkVXAcQ/TkMnw5sciHWXpmaz+ieIrgAu1R8viioEfvEMXph9gW8377X8hFn3G85+QFiaJKvt5np7ytp4VyJjBM4ZoM24ReKSAotu5RUWcMYVFDIEjNAZqBby8Gqs3bM1Ud/+aBJxsm4Fb8AOC8ktMyoeRL4gxj2AO7BBnAYSCnrV3POAEMOVSSP70F8IPnmsoDn3z4k5UgymTVw11ZaF5ojYx7aTh3kUDDeHiY/EBId+/e4kobaKrJtGjoRiB+Sqfuiy9nVzwT1fvUkRiSZHpG7ikf49Pf9WLEEeY5BKwbrryh0M2qp48g8GIxVDjal9j9RktJTYMHWdmKFsCkRoZ9d+hXJ+x/0uzFLirrDXofXW/hlg7FvMYRuW8Dn1lS3RLIpp6owP6ZQdTlm+dQJefJkTMqWMAkElj1mDt5pBQUPKUh0QX7WZlDmw9xkjHwbwlTa6YXHCbTqibAQGO/YRX6HGoSmz7b7u6nZWTRJtBrIf+TLH1nYr6z7pYA/4odsdk6xrOxlkXUzbKZt19hktEcrFTZG8k40bA3//mh6k6cV09sgle1bdW96jPBmSBqIOsv4Q8mfUDvf1CTflwTzOnpOHyUXWeL2/Oluyab8IP9Zn2S4qSo4LosJjRi6Y7F0KWhv7gzcRYajP07GcRbv+eZb1ERHnLgNaX92qHB3B3WajgvrQMYPIpheS34wwCm+G5JDeuM03l6iqzfjvDi9pzW3G65U4F0ZEQecI4E0zQ3OR6w4zvtVqF9i/dXjMxvpXykitvQKcRB1lBESI7l6OjgNp12xuH6c814yCXVcJCrKymaiRZT2br1YT/CIlfjke2lqL2lqyFctSZN+4iXdX48yUiB39kaGESFp+8NmconJ1kTt/P3BjzjvPrKxeFy25iwiynwKUzYA/2y74DR2rnRgp/gIH/6RhdltaYyxycr3vjUgPv415ohVmYvU/dg/rqsBtRcIDB9irkKfQRFzqq1cdkwGTevhnJXH2x4b/gFoxqF2VxVat2xg0kK+/dU/MIHhKFXeBfmawo+3bzodK4QGD7CTjOeAEFZBT1auOZYFA/SzyqxoC5OgJnEkvF5C36kyKjLJkiZS/DitaWXtyeOfJtgid+Y63ibybWr0m6ULI7MFdTS6lvrroTXDBy6bpZ6qguPAsVBafp+I8zsRQserrABo9udtz21YhRul/hSypbVhT2JDbqjCS/TnGLry0LyuFIuERepYmSf1wHIoqc4IF5IBfvxJq6o4p5f2kbxZnvvMMmaO//tk2pmWd6Ov/AD/9tse2sTbGtECCVVpH1bdu2cwp6qZnLvba/7n6c7S0kYMBzEOnnBkptwGzlWMc/h7WyyN1KvrtXgQXYfGoCPYFDRgYFHe3BArvZFqjLFBvDCIa4pRzuqCYJCgLQAz+w+r5k+DvA19ifcr7pGQc6JIEjQl9hNzUiNwBS7o2d71e5vc0BeUA5IWw1fUcHsL4CbaTf6EKZeDgM/fsaABgIQmf9hEopljsooYDJnuGPMtb6gXq9i1tDo1DPdj8VjOfapy3p2kEB5aeQ+LVNlO0//YIA3/pUMtwFDF2QgeBpXeRSbHNwgUzERaQlLxx4ODzVx5lUJm86xlEoeUMM/W8VUoqV9K7MYM27w4Kat/mJYCNgsmJkPYGwwYRgcLSZwoQIEuBSHgI98MIQHzcWEktdmaNX0Y63e/8w/qpRQBFOBuolzeF4meUh6txSdPQ44gIAa/xQzym4ioAGHISNlCTWMwmuBSpSdPKgADOdFn9WtuwAAAAEVYSUa6AAAARXhpZgAASUkqAAgAAAAGABIBAwABAAAAAQAAABoBBQABAAAAVgAAABsBBQABAAAAXgAAACgBAwABAAAAAgAAABMCAwABAAAAAQAAAGmHBAABAAAAZgAAAAAAAABIAAAAAQAAAEgAAAABAAAABgAAkAcABAAAADAyMTABkQcABAAAAAECAwAAoAcABAAAADAxMDABoAMAAQAAAP//AAACoAQAAQAAAPQBAAADoAQAAQAAAOoAAAAAAAAA;imageBorder=none;strokeWidth=0;shadow=1;" vertex="1" parent="1">
          <mxGeometry x="85" y="83" width="85.47" height="40" as="geometry" />
        </mxCell>
        <mxCell id="OILzzEsl-uqrJFS4-kZk-17" style="edgeStyle=orthogonalEdgeStyle;rounded=0;orthogonalLoop=1;jettySize=auto;html=1;exitX=1;exitY=0.5;exitDx=0;exitDy=0;" edge="1" parent="1" source="OILzzEsl-uqrJFS4-kZk-23" target="OILzzEsl-uqrJFS4-kZk-12">
          <mxGeometry relative="1" as="geometry" />
        </mxCell>
        <mxCell id="OILzzEsl-uqrJFS4-kZk-7" value="" style="outlineConnect=0;dashed=0;verticalLabelPosition=bottom;verticalAlign=top;align=center;html=1;shape=mxgraph.aws3.ec2;fillColor=#F58534;gradientColor=none;shadow=1;" vertex="1" parent="1">
          <mxGeometry x="211" y="93" width="26.5" height="30" as="geometry" />
        </mxCell>
        <mxCell id="OILzzEsl-uqrJFS4-kZk-8" value="" style="editableCssRules=.*;html=1;shape=image;verticalLabelPosition=bottom;labelBackgroundColor=#ffffff;verticalAlign=top;aspect=fixed;imageAspect=0;image=data:image/svg+xml,PHN2ZyB4bWxucz0iaHR0cDovL3d3dy53My5vcmcvMjAwMC9zdmciIHhtbG5zOnY9Imh0dHBzOi8vdmVjdGEuaW8vbmFubyIgd2lkdGg9IjE2LjAwMDAwMTkwNzM0ODYzMyIgaGVpZ2h0PSIxNi4wMDAwMDE5MDczNDg2MzMiIHZpZXdCb3g9Ii03LjE4NzExMDA2NTA3Mzg4N2UtMTMgLTIuNDg2ODk5MTA5MjkyMjI5N2UtMTUgMTYuMDAwMDAxOTA3MzQ4NjMzIDE2LjAwMDAwMTkwNzM0ODYzMyI+JiN4YTsJPHN0eWxlIHR5cGU9InRleHQvY3NzIj4mI3hhOwkuc3Qwe2ZpbGw6IzQyODVmNDt9JiN4YTsJPC9zdHlsZT4mI3hhOwk8cGF0aCBjbGFzcz0ic3QwIiBkPSJNOS44NCA1Ljc3SDYuMTZhLjM5LjM5IDAgMCAwLS4zOS4zOXYzLjY4YS4zOS4zOSAwIDAgMCAuMzkuMzloMy42N2EuMzkuMzkgMCAwIDAgLjM5LS4zOVY2LjE2YS4zOS4zOSAwIDAgMC0uMzktLjM5bTUuODItLjI5YS4zNS4zNSAwIDAgMCAuMzUtLjM1di0uNTdhLjM1LjM1IDAgMCAwLS4zNS0uMzVoLTEuNzlWMi41NGEuMzkuMzkgMCAwIDAtLjM5LS4zOUgxMS44Vi4zNWEuMzUuMzUgMCAwIDAtLjM1LS4zNWgtLjU4YS4zNS4zNSAwIDAgMC0uMzUuMzV2MS43OUg4LjYzVi4zNUEuMzUuMzUgMCAwIDAgOC4yOSAwaC0uNThhLjM1LjM1IDAgMCAwLS4zNS4zNXYxLjc5SDUuNDhWLjM1QS4zNS4zNSAwIDAgMCA1LjEzIDBoLS41OGEuMzUuMzUgMCAwIDAtLjM1LjM1djEuNzlIMi41M2EuMzkuMzkgMCAwIDAtLjM5LjM5VjQuMkguMzVhLjM1LjM1IDAgMCAwLS4zNS4zNXYuNThhLjM1LjM1IDAgMCAwIC4zNS4zNWgxLjc5djEuODhILjM1YS4zNS4zNSAwIDAgMC0uMzUuMzV2LjU4YS4zNS4zNSAwIDAgMCAuMzUuMzVoMS43OXYxLjg5SC4zNWEuMzUuMzUgMCAwIDAtLjM1LjM1di41N2EuMzUuMzUgMCAwIDAgLjM1LjM1aDEuNzl2MS42N2EuMzkuMzkgMCAwIDAgLjM5LjM5SDQuMnYxLjc5YS4zNS4zNSAwIDAgMCAuMzUuMzVoLjU4YS4zNS4zNSAwIDAgMCAuMzUtLjM1di0xLjc5aDEuODh2MS43OWEuMzUuMzUgMCAwIDAgLjM1LjM1aC41OGEuMzUuMzUgMCAwIDAgLjM1LS4zNXYtMS43OWgxLjg5djEuNzlhLjM1LjM1IDAgMCAwIC4zNS4zNWguNTdhLjM1LjM1IDAgMCAwIC4zNS0uMzV2LTEuNzloMS42OGEuMzkuMzkgMCAwIDAgLjM5LS4zOVYxMS44aDEuNzlhLjM1LjM1IDAgMCAwIC4zNC0uMzV2LS41N2EuMzUuMzUgMCAwIDAtLjM1LS4zNWgtMS43OVY4LjY0aDEuNzlhLjM1LjM1IDAgMCAwIC4zNS0uMzV2LS41OGEuMzUuMzUgMCAwIDAtLjM1LS4zNWgtMS43OVY1LjQ4em0tMy4xMSA3LjA3SDMuNDVWMy40Nmg5LjA5eiIvPiYjeGE7PC9zdmc+;shadow=1;" vertex="1" parent="1">
          <mxGeometry x="243" y="92" width="32" height="32" as="geometry" />
        </mxCell>
        <mxCell id="OILzzEsl-uqrJFS4-kZk-9" value="" style="points=[];aspect=fixed;html=1;align=center;shadow=1;dashed=0;fillColor=#FF6A00;strokeColor=none;shape=mxgraph.alibaba_cloud.spark_data_insights;" vertex="1" parent="1">
          <mxGeometry x="279.8" y="93.80000000000001" width="26.2" height="28.41" as="geometry" />
        </mxCell>
        <mxCell id="OILzzEsl-uqrJFS4-kZk-11" value="" style="group" vertex="1" connectable="0" parent="1">
          <mxGeometry x="-270" y="1.9999999999999982" width="220" height="110" as="geometry" />
        </mxCell>
        <mxCell id="OILzzEsl-uqrJFS4-kZk-1" value="" style="shape=cylinder3;whiteSpace=wrap;html=1;boundedLbl=1;backgroundOutline=1;size=15;shadow=1;" vertex="1" parent="OILzzEsl-uqrJFS4-kZk-11">
          <mxGeometry width="220" height="110" as="geometry" />
        </mxCell>
        <mxCell id="OILzzEsl-uqrJFS4-kZk-2" value="" style="shape=image;verticalLabelPosition=bottom;labelBackgroundColor=default;verticalAlign=top;aspect=fixed;imageAspect=0;editableCssRules=.*;image=data:image/svg+xml,PHN2ZyB4bWxuczp4bGluaz0iaHR0cDovL3d3dy53My5vcmcvMTk5OS94bGluayIgeG1sbnM9Imh0dHA6Ly93d3cudzMub3JnLzIwMDAvc3ZnIiB2ZXJzaW9uPSIxLjEiIHZpZXdCb3g9Ii0wLjUwMjAyNzAwNzUxODMzNjIgMC4wMzEyNDk5NDAzOTUzNTUyMjUgMTg0Ljk5ODEyMzE2ODk0NTMgNDQuNDY4NzUiIGhlaWdodD0iNDQuNDY4NzUiIHdpZHRoPSIxODQuOTk4MTIzMTY4OTQ1MyI+JiN4YTsgICAgJiN4YTsgICAgPHRpdGxlPkdyb3VwPC90aXRsZT4mI3hhOyAgICA8ZGVzYz5DcmVhdGVkIHdpdGggU2tldGNoLjwvZGVzYz4mI3hhOyAgICA8ZyBmaWxsLXJ1bGU9ImV2ZW5vZGQiIGZpbGw9Im5vbmUiIHN0cm9rZS13aWR0aD0iMSIgc3Ryb2tlPSJub25lIiBpZD0iUGFnZS0xIj4mI3hhOyAgICAgICAgPGcgZmlsbC1ydWxlPSJub256ZXJvIiBmaWxsPSIjMjlCNUU4IiB0cmFuc2Zvcm09InRyYW5zbGF0ZSgtMC4wMDIwMjcsIDAuNTMxMjUwKSIgaWQ9Ikdyb3VwIj4mI3hhOyAgICAgICAgICAgIDxwYXRoIGlkPSJQYXRoIiBkPSJNMzcuMjYzNzQ2NSwzMy4xMjg5MDYgTDI4LjA4Nzk2NTUsMjcuODI4MTI1IEMyNi43OTg5MDI1LDI3LjA4NTkzOCAyNS4xNTA0NjU1LDI3LjUyNzM0NCAyNC40MDQzNzE1LDI4LjgxNjQwNiBDMjQuMTE1MzA4NSwyOS4zMjQyMTkgMjQuMDAyMDI3NSwyOS44ODI4MTIgMjQuMDU2NzE1NSwzMC40MjU3ODEgTDI0LjA1NjcxNTUsNDAuNzg1MTU2IEMyNC4wNTY3MTU1LDQyLjI2NTYyNSAyNS4yNTk4Mzk1LDQzLjQ2ODc1IDI2Ljc0NDIxNTUsNDMuNDY4NzUgQzI4LjIyNDY4MzUsNDMuNDY4NzUgMjkuNDI3ODA4NSw0Mi4yNjU2MjUgMjkuNDI3ODA4NSw0MC43ODUxNTYgTDI5LjQyNzgwODUsMzQuODI4MTI1IEwzNC41Njg0MzM1LDM3Ljc5Njg3NSBDMzUuODU3NDk2NSwzOC41NDI5NjkgMzcuNTA5ODM5NSwzOC4wOTc2NTYgMzguMjUyMDI3NSwzNi44MDg1OTQgQzM4Ljk5ODEyMTUsMzUuNTE5NTMxIDM4LjU1NjcxNTUsMzMuODcxMDk0IDM3LjI2Mzc0NjUsMzMuMTI4OTA2Ii8+JiN4YTsgICAgICAgICAgICA8cGF0aCBpZD0iUGF0aDIiIGQ9Ik0xNC40NDM0MzM1LDIxLjc2OTUzMSBDMTQuNDU5MDU4NSwyMC44MTI1IDEzLjk1NTE1MjUsMTkuOTIxODc1IDEzLjEyNzAyNzUsMTkuNDQxNDA2IEwzLjk1MTI0NjQ5LDE0LjE0NDUzMSBDMy41NTI4MDg0OSwxMy45MTQwNjIgMy4wOTU3Nzc0OSwxMy43OTI5NjkgMi42Mzg3NDY0OSwxMy43OTI5NjkgQzEuNjk3MzM5NDksMTMuNzkyOTY5IDAuODIyMzM5NDk1LDE0LjI5Njg3NSAwLjM1MzU4OTQ5NSwxNS4xMDkzNzUgQy0wLjM3Mjk3MjUwNSwxNi4zNjcxODggMC4wNjA2MjE0OTUsMTcuOTgwNDY5IDEuMzE4NDMzNDksMTguNzA3MDMxIEw2LjYwNzQ5NjQ5LDIxLjc1NzgxMiBMMS4zMTg0MzM0OSwyNC44MTI1IEMwLjcwOTA1ODQ5NSwyNS4xNjQwNjIgMC4yNzE1NTg0OTUsMjUuNzMwNDY5IDAuMDkxODcxNDk1LDI2LjQxMDE1NiBDLTAuMDkxNzIyNTA1LDI3LjA4OTg0NCAwLjAwMjAyNzQ5NDk2LDI3LjgwMDc4MSAwLjM1MzU4OTQ5NSwyOC40MTAxNTYgQzAuODIyMzM5NDk1LDI5LjIyMjY1NiAxLjY5NzMzOTQ5LDI5LjcyNjU2MiAyLjYzNDgzOTQ5LDI5LjcyNjU2MiBDMy4wOTU3Nzc0OSwyOS43MjY1NjIgMy41NTI4MDg0OSwyOS42MDU0NjkgMy45NTEyNDY0OSwyOS4zNzUgTDEzLjEyNzAyNzUsMjQuMDc4MTI1IEMxMy45NDczMzk1LDIzLjYwMTU2MiAxNC40NTEyNDY1LDIyLjcxODc1IDE0LjQ0MzQzMzUsMjEuNzY5NTMxIi8+JiN4YTsgICAgICAgICAgICA8cGF0aCBpZD0iUGF0aDMiIGQ9Ik02LjAzMzI3NzQ5LDEwLjM5MDYyNSBMMTUuMjA5MDU4NSwxNS42ODc1IEMxNi4yNzkzNzE1LDE2LjMwODU5NCAxNy41OTk2ODM1LDE2LjEwNTQ2OSAxOC40NDM0MzM1LDE1LjI4MTI1IEMxOC45Nzg1ODk1LDE0Ljc4OTA2MiAxOS4zMTA2MjE1LDE0LjA4NTkzOCAxOS4zMTA2MjE1LDEzLjMwNDY4OCBMMTkuMzEwNjIxNSwyLjY4NzUgQzE5LjMxMDYyMTUsMS4yMDMxMjUgMTguMTA3NDk2NSwwIDE2LjYyNzAyNzUsMCBDMTUuMTQyNjUyNSwwIDEzLjkzOTUyNzUsMS4yMDMxMjUgMTMuOTM5NTI3NSwyLjY4NzUgTDEzLjkzOTUyNzUsOC43MzA0NjkgTDguNzI4NTg5NDksNS43MjI2NTYgQzcuNDM5NTI3NDksNC45NzY1NjIgNS43OTEwODk0OSw1LjQxNzk2OSA1LjA0NDk5NjQ5LDYuNzA3MDMxIEM0LjI5ODkwMjQ5LDcuOTk2MDk0IDQuNzQ0MjE1NDksOS42NDQ1MzEgNi4wMzMyNzc0OSwxMC4zOTA2MjUiLz4mI3hhOyAgICAgICAgICAgIDxwYXRoIGlkPSJDb21iaW5lZC1TaGFwZSIgZD0iTTI2LjY2NjA4OTUsMjIuMTk5MjE5IEMyNi42NjYwODk1LDIyLjQwMjM0NCAyNi41NDg5MDI1LDIyLjY4MzU5NCAyNi40MDQzNzE1LDIyLjgzMjAzMSBMMjIuNzY3NjUyNSwyNi40Njg3NSBDMjIuNjIzMTIxNSwyNi42MTMyODEgMjIuMzM3OTY1NSwyNi43MzA0NjkgMjIuMTM0ODM5NSwyNi43MzA0NjkgTDIxLjIwOTA1ODUsMjYuNzMwNDY5IEMyMS4wMDU5MzM1LDI2LjczMDQ2OSAyMC43MjA3Nzc1LDI2LjYxMzI4MSAyMC41NzYyNDY1LDI2LjQ2ODc1IEwxNi45MzU2MjE1LDIyLjgzMjAzMSBDMTYuNzkxMDg5NSwyMi42ODM1OTQgMTYuNjczOTAyNSwyMi40MDIzNDQgMTYuNjczOTAyNSwyMi4xOTkyMTkgTDE2LjY3MzkwMjUsMjEuMjczNDM4IEMxNi42NzM5MDI1LDIxLjA2NjQwNiAxNi43OTEwODk1LDIwLjc4NTE1NiAxNi45MzU2MjE1LDIwLjY0MDYyNSBMMjAuNTc2MjQ2NSwxNyBDMjAuNzIwNzc3NSwxNi44NTU0NjkgMjEuMDA1OTMzNSwxNi43MzgyODEgMjEuMjA5MDU4NSwxNi43MzgyODEgTDIyLjEzNDgzOTUsMTYuNzM4MjgxIEMyMi4zMzc5NjU1LDE2LjczODI4MSAyMi42MjMxMjE1LDE2Ljg1NTQ2OSAyMi43Njc2NTI1LDE3IEwyNi40MDQzNzE1LDIwLjY0MDYyNSBDMjYuNTQ4OTAyNSwyMC43ODUxNTYgMjYuNjY2MDg5NSwyMS4wNjY0MDYgMjYuNjY2MDg5NSwyMS4yNzM0MzggTDI2LjY2NjA4OTUsMjIuMTk5MjE5IFogTTIzLjQxOTk5NjUsMjEuNzUzOTA2IEwyMy40MTk5OTY1LDIxLjcxNDg0NCBDMjMuNDE5OTk2NSwyMS41NjY0MDYgMjMuMzM0MDU4NSwyMS4zNTkzNzUgMjMuMjI4NTg5NSwyMS4yNSBMMjIuMTU0MzcxNSwyMC4xNzk2ODggQzIyLjA0ODkwMjUsMjAuMDcwMzEyIDIxLjg0MTg3MTUsMTkuOTg0Mzc1IDIxLjY4OTUyNzUsMTkuOTg0Mzc1IEwyMS42NTA0NjU1LDE5Ljk4NDM3NSBDMjEuNTAyMDI3NSwxOS45ODQzNzUgMjEuMjk0OTk2NSwyMC4wNzAzMTIgMjEuMTg1NjIxNSwyMC4xNzk2ODggTDIwLjExNTMwODUsMjEuMjUgQzIwLjAwOTgzOTUsMjEuMzU1NDY5IDE5LjkyMzkwMjUsMjEuNTYyNSAxOS45MjM5MDI1LDIxLjcxNDg0NCBMMTkuOTIzOTAyNSwyMS43NTM5MDYgQzE5LjkyMzkwMjUsMjEuOTA2MjUgMjAuMDA5ODM5NSwyMi4xMTMyODEgMjAuMTE1MzA4NSwyMi4yMTg3NSBMMjEuMTg1NjIxNSwyMy4yOTI5NjkgQzIxLjI5NDk5NjUsMjMuMzk4NDM4IDIxLjUwMjAyNzUsMjMuNDg0Mzc1IDIxLjY1MDQ2NTUsMjMuNDg0Mzc1IEwyMS42ODk1Mjc1LDIzLjQ4NDM3NSBDMjEuODQxODcxNSwyMy40ODQzNzUgMjIuMDQ4OTAyNSwyMy4zOTg0MzggMjIuMTU0MzcxNSwyMy4yOTI5NjkgTDIzLjIyODU4OTUsMjIuMjE4NzUgQzIzLjMzNDA1ODUsMjIuMTEzMjgxIDIzLjQxOTk5NjUsMjEuOTA2MjUgMjMuNDE5OTk2NSwyMS43NTM5MDYgWiIvPiYjeGE7ICAgICAgICAgICAgPHBhdGggaWQ9IlBhdGg0IiBkPSJNMjguMDg3OTY1NSwxNS42ODc1IEwzNy4yNjM3NDY1LDEwLjM5MDYyNSBDMzguNTUyODA4NSw5LjY0ODQzOCAzOC45OTgxMjE1LDcuOTk2MDk0IDM4LjI1MjAyNzUsNi43MDcwMzEgQzM3LjUwNTkzMzUsNS40MTc5NjkgMzUuODU3NDk2NSw0Ljk3NjU2MiAzNC41Njg0MzM1LDUuNzIyNjU2IEwyOS40Mjc4MDg1LDguNjkxNDA2IEwyOS40Mjc4MDg1LDIuNjg3NSBDMjkuNDI3ODA4NSwxLjIwMzEyNSAyOC4yMjQ2ODM1LC01LjY4NDM0MTg5ZS0xNCAyNi43NDQyMTU1LC01LjY4NDM0MTg5ZS0xNCBDMjUuMjU5ODM5NSwtNS42ODQzNDE4OWUtMTQgMjQuMDU2NzE1NSwxLjIwMzEyNSAyNC4wNTY3MTU1LDIuNjg3NSBMMjQuMDU2NzE1NSwxMy4wOTM3NSBDMjQuMDA1OTMzNSwxMy42MzI4MTIgMjQuMTExNDAyNSwxNC4xOTUzMTIgMjQuNDA0MzcxNSwxNC43MDMxMjUgQzI1LjE1MDQ2NTUsMTUuOTkyMTg4IDI2Ljc5ODkwMjUsMTYuNDMzNTk0IDI4LjA4Nzk2NTUsMTUuNjg3NSIvPiYjeGE7ICAgICAgICAgICAgPHBhdGggaWQ9IlBhdGg1IiBkPSJNMTcuMDQ4OTAyNSwyNy41MTU2MjUgQzE2LjQzOTUyNzUsMjcuMzk4NDM4IDE1Ljc4NzE4MzUsMjcuNDk2MDk0IDE1LjIwOTA1ODUsMjcuODI4MTI1IEw2LjAzMzI3NzQ5LDMzLjEyODkwNiBDNC43NDQyMTU0OSwzMy44NzEwOTQgNC4yOTg5MDI0OSwzNS41MTk1MzEgNS4wNDQ5OTY0OSwzNi44MDg1OTQgQzUuNzkxMDg5NDksMzguMTAxNTYyIDcuNDM5NTI3NDksMzguNTQyOTY5IDguNzI4NTg5NDksMzcuNzk2ODc1IEwxMy45Mzk1Mjc1LDM0Ljc4OTA2MiBMMTMuOTM5NTI3NSw0MC43ODUxNTYgQzEzLjkzOTUyNzUsNDIuMjY1NjI1IDE1LjE0MjY1MjUsNDMuNDY4NzUgMTYuNjI3MDI3NSw0My40Njg3NSBDMTguMTA3NDk2NSw0My40Njg3NSAxOS4zMTA2MjE1LDQyLjI2NTYyNSAxOS4zMTA2MjE1LDQwLjc4NTE1NiBMMTkuMzEwNjIxNSwzMC4xNjc5NjkgQzE5LjMxMDYyMTUsMjguODI4MTI1IDE4LjMzMDE1MjUsMjcuNzE4NzUgMTcuMDQ4OTAyNSwyNy41MTU2MjUiLz4mI3hhOyAgICAgICAgICAgIDxwYXRoIGlkPSJQYXRoNiIgZD0iTTQyLjk5ODEyMTUsMTUuMDc4MTI1IEM0Mi4yNTU5MzM1LDEzLjc4NTE1NiA0MC42MDM1ODk1LDEzLjM0Mzc1IDM5LjMxNDUyNzUsMTQuMDg5ODQ0IEwzMC4xMzg3NDY1LDE5LjM4NjcxOSBDMjkuMjU5ODM5NSwxOS44OTQ1MzEgMjguNzc1NDY1NSwyMC44MjQyMTkgMjguNzkxMDg5NSwyMS43Njk1MzEgQzI4Ljc4MzI3NzUsMjIuNzEwOTM4IDI5LjI2NzY1MjUsMjMuNjI4OTA2IDMwLjEzODc0NjUsMjQuMTI4OTA2IEwzOS4zMTQ1Mjc1LDI5LjQyOTY4OCBDNDAuNjAzNTg5NSwzMC4xNzE4NzUgNDIuMjUyMDI3NSwyOS43MzA0NjkgNDIuOTk4MTIxNSwyOC40NDE0MDYgQzQzLjc0NDIxNTUsMjcuMTUyMzQ0IDQzLjI5ODkwMjUsMjUuNTAzOTA2IDQyLjAwOTgzOTUsMjQuNzU3ODEyIEwzNi44MTQ1Mjc1LDIxLjc1NzgxMiBMNDIuMDA5ODM5NSwxOC43NTc4MTIgQzQzLjMwMjgwODUsMTguMDE1NjI1IDQzLjc0NDIxNTUsMTYuMzY3MTg4IDQyLjk5ODEyMTUsMTUuMDc4MTI1Ii8+JiN4YTsgICAgICAgICAgICA8cGF0aCBpZD0iQ29tYmluZWQtU2hhcGUyIiBkPSJNMTgzLjk5ODEyMSwyMS4xMzY3MTkgQzE4My45OTgxMjEsMjEuMTM2NzE5IDE4My45OTgxMjEsMjEuMTQwNjI1IDE4My45OTgxMjEsMjEuMTQwNjI1IEwxODMuOTk4MTIxLDIxLjIzODI4MSBDMTgzLjk5ODEyMSwyMS43MzgyODEgMTgzLjU4MDE1MiwyMi4xMDkzNzUgMTgzLjA2NDUyNywyMi4xMDkzNzUgTDE3MC4xNzM5MDIsMjIuMTA5Mzc1IEMxNzAuMTk3MzM5LDIyLjQxNDA2MiAxNzAuMjM2NDAyLDIyLjcxMDkzOCAxNzAuMjk4OTAyLDIzLjAwMzkwNiBDMTcwLjg5NjU1OCwyNS43OTY4NzUgMTczLjI4NzE4MywyNy44NzUgMTc2LjEyNzAyNywyNy44OTg0MzggQzE3Ni4xMzQ4MzksMjcuODk4NDM4IDE3Ni4yNzkzNzEsMjcuODk4NDM4IDE3Ni41MDIwMjcsMjcuODk4NDM4IEMxNzYuNTM3MTgzLDI3Ljg5ODQzOCAxNzYuNTcyMzM5LDI3Ljg5ODQzOCAxNzYuNjA3NDk2LDI3Ljg5ODQzOCBMMTc2Ljg3NzAyNywyNy44OTg0MzggQzE3Ni45MzU2MjEsMjcuODk4NDM4IDE3Ni45OTQyMTUsMjcuODk4NDM4IDE3Ny4wNTY3MTUsMjcuODk0NTMxIEMxNzcuMTExNDAyLDI3Ljg5NDUzMSAxNzcuMTY2MDg5LDI3Ljg5MDYyNSAxNzcuMjIwNzc3LDI3Ljg4NjcxOSBDMTc3LjIyNDY4MywyNy44ODY3MTkgMTc3LjIyODU4OSwyNy44ODY3MTkgMTc3LjIzMjQ5NiwyNy44ODI4MTIgQzE3OC4xNzM5MDIsMjcuODA4NTk0IDE3OS4xMjMxMjEsMjcuNDI5Njg4IDE3OS45NzA3NzcsMjYuODIwMzEyIEMxNzkuOTcwNzc3LDI2LjgyMDMxMiAxNzkuOTcwNzc3LDI2LjgyMDMxMiAxNzkuOTc0NjgzLDI2LjgyMDMxMiBDMTgwLjAxNzY1MiwyNi43ODkwNjIgMTgwLjA2NDUyNywyNi43NTM5MDYgMTgwLjEwNzQ5NiwyNi43MTg3NSBDMTgwLjExNTMwOCwyNi43MTQ4NDQgMTgwLjEyMzEyMSwyNi43MDcwMzEgMTgwLjEzNDgzOSwyNi42OTkyMTkgQzE4MC4xNjk5OTYsMjYuNjcxODc1IDE4MC4yMDkwNTgsMjYuNjQwNjI1IDE4MC4yNDgxMjEsMjYuNjA5Mzc1IEMxODAuMjYzNzQ2LDI2LjU5NzY1NiAxODAuMjc1NDY1LDI2LjU4NTkzOCAxODAuMjkxMDg5LDI2LjU3NDIxOSBDMTgwLjMyMjMzOSwyNi41NTA3ODEgMTgwLjM1MzU4OSwyNi41MjM0MzggMTgwLjM4NDgzOSwyNi40OTYwOTQgQzE4MC40MDQzNzEsMjYuNDgwNDY5IDE4MC40Mjc4MDgsMjYuNDYwOTM4IDE4MC40NDczMzksMjYuNDQ1MzEyIEMxODAuNDcwNzc3LDI2LjQyMTg3NSAxODAuNDk0MjE1LDI2LjM5ODQzOCAxODAuNTIxNTU4LDI2LjM3ODkwNiBDMTgwLjU0NDk5NiwyNi4zNTU0NjkgMTgwLjU3MjMzOSwyNi4zMzIwMzEgMTgwLjU5NTc3NywyNi4zMDg1OTQgQzE4MC42MTUzMDgsMjYuMjkyOTY5IDE4MC42MzQ4MzksMjYuMjczNDM4IDE4MC42NTQzNzEsMjYuMjUzOTA2IEMxODAuNjg1NjIxLDI2LjIyNjU2MiAxODAuNzEyOTY1LDI2LjE5OTIxOSAxODAuNzQ0MjE1LDI2LjE3MTg3NSBDMTgwLjc1OTgzOSwyNi4xNTYyNSAxODAuNzc1NDY1LDI2LjEzNjcxOSAxODAuNzkxMDg5LDI2LjEyMTA5NCBDMTgwLjgyMjMzOSwyNi4wODk4NDQgMTgwLjg1MzU4OSwyNi4wNTg1OTQgMTgwLjg4NDgzOSwyNi4wMjczNDQgQzE4MC45MDA0NjUsMjYuMDExNzE5IDE4MC45MTIxODMsMjYgMTgwLjkyNzgwOCwyNS45ODQzNzUgQzE4MC45NTkwNTgsMjUuOTQ5MjE5IDE4MC45OTAzMDgsMjUuOTE0MDYyIDE4MS4wMjE1NTgsMjUuODc4OTA2IEMxODEuMDM3MTgzLDI1Ljg2NzE4OCAxODEuMDQ4OTAyLDI1Ljg1MTU2MiAxODEuMDYwNjIxLDI1LjgzNTkzOCBDMTgxLjA5NTc3NywyNS44MDA3ODEgMTgxLjEyNzAyNywyNS43NjU2MjUgMTgxLjE1ODI3NywyNS43MzA0NjkgQzE4MS4xNjk5OTYsMjUuNzE0ODQ0IDE4MS4xODU2MjEsMjUuNjk5MjE5IDE4MS4xOTczMzksMjUuNjgzNTk0IEMxODEuMjI4NTg5LDI1LjY0NDUzMSAxODEuMjU1OTMzLDI1LjYwOTM3NSAxODEuMjg3MTgzLDI1LjU3NDIxOSBDMTgxLjMwMjgwOCwyNS41NTQ2ODggMTgxLjMxODQzMywyNS41MzUxNTYgMTgxLjMzNDA1OCwyNS41MTU2MjUgQzE4MS4zNjE0MDIsMjUuNDgwNDY5IDE4MS4zODg3NDYsMjUuNDQ5MjE5IDE4MS40MTIxODMsMjUuNDE3OTY5IEMxODEuNDM1NjIxLDI1LjM4NjcxOSAxODEuNDU1MTUyLDI1LjM1OTM3NSAxODEuNDc0NjgzLDI1LjMzMjAzMSBDMTgxLjQ5NDIxNSwyNS4zMDQ2ODggMTgxLjUxMzc0NiwyNS4yODEyNSAxODEuNTMzMjc3LDI1LjI1MzkwNiBDMTgxLjU2NDUyNywyNS4yMTA5MzggMTgxLjU5NTc3NywyNS4xNjc5NjkgMTgxLjYyMzEyMSwyNS4xMjUgQzE4MS42MzQ4MzksMjUuMTA5Mzc1IDE4MS42NDI2NTIsMjUuMDk3NjU2IDE4MS42NTA0NjUsMjUuMDg1OTM4IEMxODEuNzI4NTg5LDI0Ljk3MjY1NiAxODEuODAyODA4LDI0Ljg1NTQ2OSAxODEuODc3MDI3LDI0LjczNDM3NSBDMTgxLjg3NzAyNywyNC43MzQzNzUgMTgxLjg3NzAyNywyNC43MzA0NjkgMTgxLjg4MDkzMywyNC43MjY1NjIgQzE4MS44OTY1NTgsMjQuNjk5MjE5IDE4MS45MTYwODksMjQuNjc1NzgxIDE4MS45MzU2MjEsMjQuNjQ4NDM4IEMxODEuOTQzNDMzLDI0LjYzNjcxOSAxODEuOTUxMjQ2LDI0LjYyNSAxODEuOTYyOTY1LDI0LjYxNzE4OCBDMTgxLjk3NDY4MywyNC41OTc2NTYgMTgxLjk5MDMwOCwyNC41ODU5MzggMTgyLjAwMjAyNywyNC41NzAzMTIgQzE4Mi4wMTM3NDYsMjQuNTU4NTk0IDE4Mi4wMjU0NjUsMjQuNTQ2ODc1IDE4Mi4wMzcxODMsMjQuNTM1MTU2IEMxODIuMDUyODA4LDI0LjUyMzQzOCAxODIuMDY0NTI3LDI0LjUxMTcxOSAxODIuMDgwMTUyLDI0LjUgQzE4Mi4wOTE4NzEsMjQuNDg4MjgxIDE4Mi4xMDM1ODksMjQuNDc2NTYyIDE4Mi4xMTkyMTUsMjQuNDY4NzUgQzE4Mi4xMzg3NDYsMjQuNDUzMTI1IDE4Mi4xNjIxODMsMjQuNDM3NSAxODIuMTg1NjIxLDI0LjQyNTc4MSBDMTgyLjIwMTI0NiwyNC40MTQwNjIgMTgyLjIyMDc3NywyNC40MDIzNDQgMTgyLjIzNjQwMiwyNC4zOTQ1MzEgQzE4Mi4yNTU5MzMsMjQuMzg2NzE5IDE4Mi4yNzE1NTgsMjQuMzc4OTA2IDE4Mi4yODcxODMsMjQuMzcxMDk0IEMxODIuMzAyODA4LDI0LjM2MzI4MSAxODIuMzE4NDMzLDI0LjM1OTM3NSAxODIuMzMwMTUyLDI0LjM1MTU2MiBDMTgyLjM1MzU4OSwyNC4zNDM3NSAxODIuMzczMTIxLDI0LjMzOTg0NCAxODIuMzk2NTU4LDI0LjMzMjAzMSBDMTgyLjQwODI3NywyNC4zMjgxMjUgMTgyLjQxNjA4OSwyNC4zMjQyMTkgMTgyLjQyNzgwOCwyNC4zMjAzMTIgQzE4Mi41MDIwMjcsMjQuMzA0Njg4IDE4Mi41ODAxNTIsMjQuMjkyOTY5IDE4Mi42NTQzNzEsMjQuMjkyOTY5IEMxODIuNzM2NDAyLDI0LjI5Mjk2OSAxODIuODIyMzM5LDI0LjMwNDY4OCAxODIuOTAwNDY1LDI0LjMyODEyNSBDMTgyLjkwNDM3MSwyNC4zMjgxMjUgMTgyLjkwNDM3MSwyNC4zMjgxMjUgMTgyLjkwODI3NywyNC4zMjgxMjUgQzE4Mi45Mzk1MjcsMjQuMzM5ODQ0IDE4Mi45NzQ2ODMsMjQuMzQ3NjU2IDE4My4wMDU5MzMsMjQuMzYzMjgxIEMxODMuMDEzNzQ2LDI0LjM2NzE4OCAxODMuMDIxNTU4LDI0LjM2NzE4OCAxODMuMDI5MzcxLDI0LjM3MTA5NCBDMTgzLjA2NDUyNywyNC4zODY3MTkgMTgzLjA5NTc3NywyNC40MDIzNDQgMTgzLjEyNzAyNywyNC40MjE4NzUgTDE4My4xNDI2NTIsMjQuNDI5Njg4IEMxODMuNTcyMzM5LDI0Ljc0MjE4OCAxODMuNzA1MTUyLDI1LjI4OTA2MiAxODMuNDQzNDMzLDI1LjczODI4MSBMMTgzLjQzOTUyNywyNS43NDIxODggQzE4My40MDgyNzcsMjUuNzkyOTY5IDE4My4zNzcwMjcsMjUuODQzNzUgMTgzLjM0NTc3NywyNS44OTA2MjUgQzE4My4zMzc5NjUsMjUuOTAyMzQ0IDE4My4zMzAxNTIsMjUuOTE0MDYyIDE4My4zMjIzMzksMjUuOTI1NzgxIEMxODIuNDA4Mjc3LDI3LjMxNjQwNiAxODEuMTY2MDg5LDI4LjQyNTc4MSAxNzkuNzc5MzcxLDI5LjA4OTg0NCBDMTc5Ljc0ODEyMSwyOS4xMDE1NjIgMTc5LjcyMDc3NywyOS4xMTcxODggMTc5LjY4OTUyNywyOS4xMzI4MTIgQzE3OS42ODU2MjEsMjkuMTMyODEyIDE3OS42Nzc4MDgsMjkuMTM2NzE5IDE3OS42NzM5MDIsMjkuMTM2NzE5IEMxNzkuMDMzMjc3LDI5LjQzMzU5NCAxNzguMzQ1Nzc3LDI5LjY0MDYyNSAxNzcuNjExNDAyLDI5LjcyNjU2MiBDMTc3LjU5NTc3NywyOS43MjY1NjIgMTc3LjU4MDE1MiwyOS43MzA0NjkgMTc3LjU2NDUyNywyOS43MzA0NjkgQzE3Ny41MDIwMjcsMjkuNzM4MjgxIDE3Ny40Mzk1MjcsMjkuNzQ2MDk0IDE3Ny4zNzcwMjcsMjkuNzUgQzE3Ny4zNDE4NzEsMjkuNzUgMTc3LjMwNjcxNSwyOS43NTM5MDYgMTc3LjI2NzY1MiwyOS43NTc4MTIgQzE3Ny4yMjQ2ODMsMjkuNzU3ODEyIDE3Ny4xNzc4MDgsMjkuNzYxNzE5IDE3Ny4xMzQ4MzksMjkuNzY1NjI1IEMxNzcuMDQ4OTAyLDI5Ljc2NTYyNSAxNzYuOTYyOTY1LDI5Ljc2OTUzMSAxNzYuODc3MDI3LDI5Ljc2OTUzMSBDMTc2Ljg2NTMwOCwyOS43Njk1MzEgMTc2LjU0MTA4OSwyOS43Njk1MzEgMTc2LjMyMjMzOSwyOS43Njk1MzEgQzE3Ni4xOTczMzksMjkuNzY5NTMxIDE3Ni4xMjcwMjcsMjkuNzY5NTMxIDE3Ni4xMTkyMTUsMjkuNzY5NTMxIEMxNzEuNzgzMjc3LDI5LjczODI4MSAxNjguMjkxMDg5LDI2LjEyMTA5NCAxNjguMjkxMDg5LDIxLjY5MTQwNiBDMTY4LjI5MTA4OSwxNy4xODc1IDE3MS44MDY3MTUsMTMuNTUwNzgxIDE3Ni4xNzc4MDgsMTMuNTUwNzgxIEMxNzYuMzA2NzE1LDEzLjU1MDc4MSAxNzYuNDM1NjIxLDEzLjU1NDY4OCAxNzYuNTY0NTI3LDEzLjU1ODU5NCBDMTc4LjA4Nzk2NSwxMy42MzY3MTkgMTc5LjQ5NDIxNSwxNC4xNTYyNSAxODAuNjYyMTgzLDE1LjAwNzgxMiBDMTgwLjY2NjA4OSwxNS4wMTE3MTkgMTgwLjY2OTk5NiwxNS4wMTU2MjUgMTgwLjY3MzkwMiwxNS4wMTU2MjUgQzE4MC43NDAzMDgsMTUuMDYyNSAxODAuODAyODA4LDE1LjExMzI4MSAxODAuODY1MzA4LDE1LjE2MDE1NiBDMTgwLjg5NjU1OCwxNS4xODc1IDE4MC45MzE3MTUsMTUuMjE0ODQ0IDE4MC45NjY4NzEsMTUuMjQyMTg4IEMxODAuOTk4MTIxLDE1LjI2NTYyNSAxODEuMDI5MzcxLDE1LjI5Mjk2OSAxODEuMDYwNjIxLDE1LjMxNjQwNiBDMTgyLjcwNTE1MiwxNi42ODc1IDE4My44MTQ1MjcsMTguNzQ2MDk0IDE4My45OTgxMjEsMjEuMTI4OTA2IEwxODMuOTk4MTIxLDIxLjEzNjcxOSBaIE0xNzAuMjk4OTAyLDIwLjI2OTUzMSBMMTgxLjk2Njg3MSwyMC4yNjk1MzEgQzE4MS4zODg3NDYsMTcuNDU3MDMxIDE3OC45NzA3NzcsMTUuNDIxODc1IDE3Ni4xNzc4MDgsMTUuNDIxODc1IEMxNzMuMzM0MDU4LDE1LjQyMTg3NSAxNzAuOTM1NjIxLDE3LjQxNzk2OSAxNzAuMjk4OTAyLDIwLjI2OTUzMSBaIi8+JiN4YTsgICAgICAgICAgICA8cGF0aCBpZD0iQ29tYmluZWQtU2hhcGUzIiBkPSJNMTUxLjA0MTA4OSwxMy44MjQyMTkgQzE1MS4xODU2MjEsMTMuOTY4NzUgMTUxLjI4MzI3NywxNC4xNjQwNjIgMTUxLjMwNjcxNSwxNC4zOTA2MjUgQzE1MS4zMDY3MTUsMTQuNDIxODc1IDE1MS4zMTA2MjEsMTQuNDUzMTI1IDE1MS4zMTA2MjEsMTQuNDg0Mzc1IEwxNTEuMzEwNjIxLDI4LjgzMjAzMSBDMTUxLjMxMDYyMSwyOS4zNDM3NSAxNTAuODgwOTMzLDI5Ljc2OTUzMSAxNTAuMzczMTIxLDI5Ljc2OTUzMSBDMTQ5Ljg2NTMwOCwyOS43Njk1MzEgMTQ5LjQzOTUyNywyOS4zNDM3NSAxNDkuNDM5NTI3LDI4LjgzMjAzMSBMMTQ5LjQzOTUyNywyNi45MjU3ODEgQzE0OS4wODQwNTgsMjcuMzU1NDY5IDE0OC42OTM0MzMsMjcuNzQ2MDk0IDE0OC4yNjc2NTIsMjguMDg1OTM4IEMxNDguMjU1OTMzLDI4LjA5NzY1NiAxNDguMjQ0MjE1LDI4LjEwNTQ2OSAxNDguMjMyNDk2LDI4LjExNzE4OCBDMTQ4LjE5MzQzMywyOC4xNDg0MzggMTQ4LjE1MDQ2NSwyOC4xNzk2ODggMTQ4LjExMTQwMiwyOC4yMDcwMzEgQzE0Ni44MjIzMzksMjkuMTk5MjE5IDE0NS4yNTU5MzMsMjkuNzY5NTMxIDE0My42MTkyMTUsMjkuNzY5NTMxIEMxNDAuOTgyNDk2LDI5Ljc2OTUzMSAxMzguNjYyMTgzLDI4LjM2NzE4OCAxMzcuMjc5MzcxLDI2LjI0MjE4OCBDMTM3LjI2NzY1MiwyNi4yMjY1NjIgMTM3LjI1MjAyNywyNi4yMDcwMzEgMTM3LjI0MDMwOCwyNi4xOTE0MDYgQzEzNy4yMDEyNDYsMjYuMTI1IDEzNy4xNjIxODMsMjYuMDU4NTk0IDEzNy4xMTkyMTUsMjUuOTg4MjgxIEMxMzcuMDkxODcxLDI1Ljk0NTMxMiAxMzcuMDY4NDMzLDI1LjkwMjM0NCAxMzcuMDQxMDg5LDI1Ljg1OTM3NSBDMTM3LjAxMzc0NiwyNS44MTY0MDYgMTM2Ljk5MDMwOCwyNS43Njk1MzEgMTM2Ljk2Njg3MSwyNS43MjI2NTYgQzEzNi45Mjc4MDgsMjUuNjU2MjUgMTM2Ljg4ODc0NiwyNS41ODU5MzggMTM2Ljg1MzU4OSwyNS41MTk1MzEgQzEzNi44NDE4NzEsMjUuNDk2MDk0IDEzNi44MzQwNTgsMjUuNDcyNjU2IDEzNi44MjIzMzksMjUuNDQ5MjE5IEMxMzYuMzEwNjIxLDI0LjQzMzU5NCAxMzUuOTk0MjE1LDIzLjI4OTA2MiAxMzUuOTM5NTI3LDIyLjA3NDIxOSBDMTM1LjkzMTcxNSwyMS45Mzc1IDEzNS45Mjc4MDgsMjEuODAwNzgxIDEzNS45Mjc4MDgsMjEuNjYwMTU2IEMxMzUuOTI3ODA4LDIxLjUxOTUzMSAxMzUuOTMxNzE1LDIxLjM4MjgxMiAxMzUuOTM5NTI3LDIxLjI0NjA5NCBDMTM1Ljk5NDIxNSwyMC4wMzEyNSAxMzYuMzEwNjIxLDE4Ljg4NjcxOSAxMzYuODIyMzM5LDE3Ljg2NzE4OCBDMTM2LjgzNDA1OCwxNy44NDc2NTYgMTM2Ljg0MTg3MSwxNy44MjQyMTkgMTM2Ljg1MzU4OSwxNy44MDA3ODEgQzEzNi44ODg3NDYsMTcuNzM0Mzc1IDEzNi45Mjc4MDgsMTcuNjY0MDYyIDEzNi45NjY4NzEsMTcuNTk3NjU2IEMxMzYuOTkwMzA4LDE3LjU1MDc4MSAxMzcuMDEzNzQ2LDE3LjUwMzkwNiAxMzcuMDQxMDg5LDE3LjQ2MDkzOCBDMTM3LjA2NDUyNywxNy40MTc5NjkgMTM3LjA5MTg3MSwxNy4zNzUgMTM3LjExOTIxNSwxNy4zMzIwMzEgQzEzNy4xNTgyNzcsMTcuMjY1NjI1IDEzNy4yMDEyNDYsMTcuMTk1MzEyIDEzNy4yNDAzMDgsMTcuMTI4OTA2IEMxMzcuMjUyMDI3LDE3LjExMzI4MSAxMzcuMjY3NjUyLDE3LjA5Mzc1IDEzNy4yNzkzNzEsMTcuMDc4MTI1IEMxMzguNjYyMTgzLDE0Ljk1MzEyNSAxNDAuOTgyNDk2LDEzLjU1MDc4MSAxNDMuNjE5MjE1LDEzLjU1MDc4MSBDMTQ1LjQwMDQ2NSwxMy41NTA3ODEgMTQ3LjA4NDA1OCwxNC4yMDMxMjUgMTQ4LjQyMzkwMiwxNS4zMzk4NDQgQzE0OC43OTEwODksMTUuNjQ4NDM4IDE0OS4xMzA5MzMsMTUuOTg4MjgxIDE0OS40Mzk1MjcsMTYuMzYzMjgxIEwxNDkuNDM5NTI3LDE0LjQ4NDM3NSBDMTQ5LjQzOTUyNywxNC40NTMxMjUgMTQ5LjQzOTUyNywxNC40MjE4NzUgMTQ5LjQ0MzQzMywxNC4zOTA2MjUgQzE0OS40NjY4NzEsMTQuMTY0MDYyIDE0OS41NjQ1MjcsMTMuOTY4NzUgMTQ5LjcwOTA1OCwxMy44MjQyMTkgQzE0OS43MDkwNTgsMTMuODI0MjE5IDE0OS43MDkwNTgsMTMuODI0MjE5IDE0OS43MDkwNTgsMTMuODIwMzEyIEMxNDkuNzI0NjgzLDEzLjgwNDY4OCAxNDkuNzQ0MjE1LDEzLjc5Mjk2OSAxNDkuNzU5ODM5LDEzLjc3NzM0NCBDMTQ5Ljc2Mzc0NiwxMy43NzM0MzggMTQ5Ljc3MTU1OCwxMy43NjU2MjUgMTQ5Ljc3NTQ2NSwxMy43NjE3MTkgQzE0OS43ODcxODMsMTMuNzUgMTQ5LjgwMjgwOCwxMy43NDIxODggMTQ5LjgxNDUyNywxMy43MzQzNzUgQzE0OS44MjYyNDYsMTMuNzI2NTYyIDE0OS44Mzc5NjUsMTMuNzE0ODQ0IDE0OS44NDk2ODMsMTMuNzA3MDMxIEMxNDkuODU3NDk2LDEzLjcwMzEyNSAxNDkuODY1MzA4LDEzLjY5OTIxOSAxNDkuODczMTIxLDEzLjY5MTQwNiBDMTQ5Ljg5MjY1MiwxMy42ODM1OTQgMTQ5LjkwODI3NywxMy42NzE4NzUgMTQ5LjkyNzgwOCwxMy42NjAxNTYgQzE0OS45MzE3MTUsMTMuNjYwMTU2IDE0OS45MzU2MjEsMTMuNjU2MjUgMTQ5LjkzOTUyNywxMy42NTYyNSBDMTQ5Ljk2Mjk2NSwxMy42NDQ1MzEgMTQ5Ljk4NjQwMiwxMy42MzI4MTIgMTUwLjAwOTgzOSwxMy42MjEwOTQgQzE1MC4wMDk4MzksMTMuNjIxMDk0IDE1MC4wMDk4MzksMTMuNjIxMDk0IDE1MC4wMTM3NDYsMTMuNjIxMDk0IEMxNTAuMDY4NDMzLDEzLjU5NzY1NiAxNTAuMTI3MDI3LDEzLjU4MjAzMSAxNTAuMTg1NjIxLDEzLjU3MDMxMiBDMTUwLjE4OTUyNywxMy41NzAzMTIgMTUwLjE5NzMzOSwxMy41NjY0MDYgMTUwLjIwMTI0NiwxMy41NjY0MDYgQzE1MC4yMjQ2ODMsMTMuNTYyNSAxNTAuMjUyMDI3LDEzLjU1ODU5NCAxNTAuMjc5MzcxLDEzLjU1NDY4OCBDMTUwLjMxMDYyMSwxMy41NTQ2ODggMTUwLjM0MTg3MSwxMy41NTA3ODEgMTUwLjM3MzEyMSwxMy41NTA3ODEgQzE1MC40MDgyNzcsMTMuNTUwNzgxIDE1MC40Mzk1MjcsMTMuNTU0Njg4IDE1MC40NzA3NzcsMTMuNTU0Njg4IEMxNTAuNDk4MTIxLDEzLjU1ODU5NCAxNTAuNTIxNTU4LDEzLjU2MjUgMTUwLjU0ODkwMiwxMy41NjY0MDYgQzE1MC41NTI4MDgsMTMuNTY2NDA2IDE1MC41NTY3MTUsMTMuNTcwMzEyIDE1MC41NjQ1MjcsMTMuNTcwMzEyIEMxNTAuNjIzMTIxLDEzLjU4MjAzMSAxNTAuNjgxNzE1LDEzLjU5NzY1NiAxNTAuNzM2NDAyLDEzLjYyMTA5NCBDMTUwLjczNjQwMiwxMy42MjEwOTQgMTUwLjc0MDMwOCwxMy42MjEwOTQgMTUwLjc0MDMwOCwxMy42MjEwOTQgQzE1MC43NjM3NDYsMTMuNjMyODEyIDE1MC43ODcxODMsMTMuNjQ0NTMxIDE1MC44MDY3MTUsMTMuNjU2MjUgQzE1MC44MTQ1MjcsMTMuNjU2MjUgMTUwLjgxODQzMywxMy42NjAxNTYgMTUwLjgyMjMzOSwxMy42NjAxNTYgQzE1MC44Mzc5NjUsMTMuNjcxODc1IDE1MC44NTc0OTYsMTMuNjgzNTk0IDE1MC44NzMxMjEsMTMuNjkxNDA2IEMxNTAuODgwOTMzLDEzLjY5OTIxOSAxNTAuODkyNjUyLDEzLjcwMzEyNSAxNTAuOTAwNDY1LDEzLjcwNzAzMSBDMTUwLjkxMjE4MywxMy43MTQ4NDQgMTUwLjkyMzkwMiwxMy43MjY1NjIgMTUwLjkzNTYyMSwxMy43MzQzNzUgQzE1MC45NDczMzksMTMuNzQyMTg4IDE1MC45NTkwNTgsMTMuNzUgMTUwLjk3MDc3NywxMy43NjE3MTkgQzE1MC45Nzg1ODksMTMuNzY1NjI1IDE1MC45ODI0OTYsMTMuNzczNDM4IDE1MC45OTAzMDgsMTMuNzc3MzQ0IEMxNTEuMDA1OTMzLDEzLjc5Mjk2OSAxNTEuMDI1NDY1LDEzLjgwNDY4OCAxNTEuMDM3MTgzLDEzLjgyMDMxMiBDMTUxLjA0MTA4OSwxMy44MjQyMTkgMTUxLjA0MTA4OSwxMy44MjQyMTkgMTUxLjA0MTA4OSwxMy44MjQyMTkgWiBNMTQzLjYxOTIxNSwyNy44OTg0MzggQzE0Ni44MjYyNDYsMjcuODk4NDM4IDE0OS40Mzk1MjcsMjUuMTAxNTYyIDE0OS40Mzk1MjcsMjEuNjYwMTU2IEMxNDkuNDM5NTI3LDE4LjIwMzEyNSAxNDYuODI2MjQ2LDE1LjM5MDYyNSAxNDMuNjE5MjE1LDE1LjM5MDYyNSBDMTQwLjQzNTYyMSwxNS4zOTA2MjUgMTM3Ljc5ODkwMiwxOC4xOTkyMTkgMTM3Ljc5ODkwMiwyMS42NjAxNTYgQzEzNy43OTg5MDIsMjEuNzY5NTMxIDEzNy44MDI4MDgsMjEuODc1IDEzNy44MDY3MTUsMjEuOTgwNDY5IEMxMzcuODA2NzE1LDIyLjAyNzM0NCAxMzcuODE0NTI3LDIyLjA3MDMxMiAxMzcuODE0NTI3LDIyLjExMzI4MSBDMTM3LjgxODQzMywyMi4xNzU3ODEgMTM3LjgyMjMzOSwyMi4yMzgyODEgMTM3LjgzMDE1MiwyMi4yOTY4NzUgQzEzNy44MzQwNTgsMjIuMzQ3NjU2IDEzNy44NDE4NzEsMjIuMzk0NTMxIDEzNy44NDU3NzcsMjIuNDQxNDA2IEMxMzcuODUzNTg5LDIyLjQ5NjA5NCAxMzcuODU3NDk2LDIyLjU1NDY4OCAxMzcuODY1MzA4LDIyLjYwOTM3NSBDMTM3Ljg3MzEyMSwyMi42NTIzNDQgMTM3Ljg4MDkzMywyMi42OTE0MDYgMTM3Ljg4NDgzOSwyMi43MzA0NjkgQzEzNy44OTY1NTgsMjIuNzkyOTY5IDEzNy45MDQzNzEsMjIuODU1NDY5IDEzNy45MTYwODksMjIuOTE3OTY5IEMxMzcuOTIzOTAyLDIyLjk0OTIxOSAxMzcuOTMxNzE1LDIyLjk3NjU2MiAxMzcuOTM1NjIxLDIzLjAwMzkwNiBDMTM3Ljk1MTI0NiwyMy4wNzgxMjUgMTM3Ljk2Njg3MSwyMy4xNDg0MzggMTM3Ljk4MjQ5NiwyMy4yMjI2NTYgQzEzNy45ODY0MDIsMjMuMjM4MjgxIDEzNy45OTAzMDgsMjMuMjUzOTA2IDEzNy45OTgxMjEsMjMuMjY5NTMxIEMxMzguNjYyMTgzLDI1Ljk0MTQwNiAxNDAuOTQzNDMzLDI3Ljg5ODQzOCAxNDMuNjE5MjE1LDI3Ljg5ODQzOCBaIi8+JiN4YTsgICAgICAgICAgICA8cGF0aCBpZD0iUGF0aDciIGQ9Ik0xMjcuNTYwNjIxLDYuNzg1MTU2IEwxMjcuMzA2NzE1LDYuNzg1MTU2IEMxMjcuMjc1NDY1LDYuNzg1MTU2IDEyNy4yNDAzMDgsNi43ODUxNTYgMTI3LjIwOTA1OCw2Ljc4OTA2MiBDMTI3LjE3MzkwMiw2Ljc4NTE1NiAxMjcuMTQyNjUyLDYuNzg1MTU2IDEyNy4xMDc0OTYsNi43ODUxNTYgQzEyNy4wMTc2NTIsNi43ODUxNTYgMTI2LjkyNzgwOCw2Ljc4NTE1NiAxMjYuODM3OTY1LDYuNzg5MDYyIEMxMjYuODIyMzM5LDYuNzg5MDYyIDEyNi44MDI4MDgsNi43OTI5NjkgMTI2Ljc4NzE4Myw2Ljc5Mjk2OSBDMTI2LjcxNjg3MSw2Ljc5Mjk2OSAxMjYuNjQ2NTU4LDYuNzk2ODc1IDEyNi41NzYyNDYsNi44MDQ2ODggQzEyNi41NjQ1MjcsNi44MDQ2ODggMTI2LjU0ODkwMiw2LjgwNDY4OCAxMjYuNTM3MTgzLDYuODA0Njg4IEMxMjYuNDYyOTY1LDYuODEyNSAxMjYuMzkyNjUyLDYuODE2NDA2IDEyNi4zMjIzMzksNi44MjQyMTkgQzEyNi4zMTQ1MjcsNi44MjgxMjUgMTI2LjMwNjcxNSw2LjgyODEyNSAxMjYuMjk4OTAyLDYuODI4MTI1IEMxMjYuMjIwNzc3LDYuODM5ODQ0IDEyNi4xNDY1NTgsNi44NDc2NTYgMTI2LjA3NjI0Niw2Ljg1OTM3NSBDMTI2LjA3MjMzOSw2Ljg1OTM3NSAxMjYuMDY4NDMzLDYuODU5Mzc1IDEyNi4wNjg0MzMsNi44NTkzNzUgQzEyNS41OTU3NzcsNi45MzM1OTQgMTI1LjE2OTk5Niw3LjA2NjQwNiAxMjQuNzkxMDg5LDcuMjUzOTA2IEMxMjQuNzkxMDg5LDcuMjU3ODEyIDEyNC43ODcxODMsNy4yNTc4MTIgMTI0Ljc4MzI3Nyw3LjI1NzgxMiBDMTI0LjcyODU4OSw3LjI4OTA2MiAxMjQuNjY5OTk2LDcuMzIwMzEyIDEyNC42MTUzMDgsNy4zNTE1NjIgQzEyNC42MDM1ODksNy4zNTU0NjkgMTI0LjU5NTc3Nyw3LjM2MzI4MSAxMjQuNTg0MDU4LDcuMzcxMDk0IEMxMjQuNTM3MTgzLDcuMzk4NDM4IDEyNC40OTAzMDgsNy40MjU3ODEgMTI0LjQ0MzQzMyw3LjQ1NzAzMSBDMTI0LjQyMzkwMiw3LjQ2ODc1IDEyNC40MDgyNzcsNy40ODQzNzUgMTI0LjM5MjY1Miw3LjQ5NjA5NCBDMTI0LjM1MzU4OSw3LjUxOTUzMSAxMjQuMzE4NDMzLDcuNTQ2ODc1IDEyNC4yNzkzNzEsNy41NzQyMTkgQzEyNC4yNTIwMjcsNy41OTc2NTYgMTI0LjIyNDY4Myw3LjYyMTA5NCAxMjQuMTk3MzM5LDcuNjQwNjI1IEMxMjQuMTczOTAyLDcuNjYwMTU2IDEyNC4xNTA0NjUsNy42Nzk2ODggMTI0LjEyNzAyNyw3LjY5OTIxOSBDMTI0LjA4NDA1OCw3LjczODI4MSAxMjQuMDQ0OTk2LDcuNzczNDM4IDEyNC4wMDU5MzMsNy44MTI1IEMxMjMuOTk4MTIxLDcuODIwMzEyIDEyMy45OTAzMDgsNy44MjgxMjUgMTIzLjk4MjQ5Niw3LjgzNTkzOCBDMTIzLjkzNTYyMSw3Ljg4NjcxOSAxMjMuODg4NzQ2LDcuOTMzNTk0IDEyMy44NDE4NzEsNy45ODQzNzUgQzEyMy44MzQwNTgsNy45OTYwOTQgMTIzLjgyNjI0Niw4LjAwNzgxMiAxMjMuODE4NDMzLDguMDE1NjI1IEMxMjMuNzc5MzcxLDguMDU4NTk0IDEyMy43NDAzMDgsOC4xMDE1NjIgMTIzLjcwNTE1Miw4LjE0NDUzMSBDMTIzLjY5MzQzMyw4LjE2NDA2MiAxMjMuNjc3ODA4LDguMTgzNTk0IDEyMy42NjYwODksOC4yMDMxMjUgQzEyMy42MzQ4MzksOC4yNDIxODggMTIzLjYwNzQ5Niw4LjI3NzM0NCAxMjMuNTgwMTUyLDguMzE2NDA2IEMxMjMuNTcyMzM5LDguMzMyMDMxIDEyMy41NjQ1MjcsOC4zNDM3NSAxMjMuNTUyODA4LDguMzU1NDY5IEMxMjMuNTIxNTU4LDguNDAyMzQ0IDEyMy40OTAzMDgsOC40NDkyMTkgMTIzLjQ2Mjk2NSw4LjQ5NjA5NCBDMTIzLjQ1OTA1OCw4LjUwMzkwNiAxMjMuNDU1MTUyLDguNTA3ODEyIDEyMy40NTEyNDYsOC41MTU2MjUgQzEyMy4xOTczMzksOC45MzM1OTQgMTIzLjAxNzY1Miw5LjQyNTc4MSAxMjIuOTA0MzcxLDEwLjAxOTUzMSBDMTIyLjkwNDM3MSwxMC4wMjczNDQgMTIyLjkwNDM3MSwxMC4wMzkwNjIgMTIyLjkwMDQ2NSwxMC4wNDY4NzUgQzEyMi44ODQ4MzksMTAuMTIxMDk0IDEyMi44NzMxMjEsMTAuMTk5MjE5IDEyMi44NjE0MDIsMTAuMjc3MzQ0IEMxMjIuODU3NDk2LDEwLjMwMDc4MSAxMjIuODUzNTg5LDEwLjMyNDIxOSAxMjIuODUzNTg5LDEwLjM0NzY1NiBDMTIyLjg0MTg3MSwxMC40MTQwNjIgMTIyLjgzNDA1OCwxMC40ODA0NjkgMTIyLjgyNjI0NiwxMC41NTA3ODEgQzEyMi44MjIzMzksMTAuNTg5ODQ0IDEyMi44MTg0MzMsMTAuNjI4OTA2IDEyMi44MTQ1MjcsMTAuNjcxODc1IEMxMjIuODA2NzE1LDEwLjcyNjU2MiAxMjIuNzk4OTAyLDEwLjc3NzM0NCAxMjIuNzk0OTk2LDEwLjgzNTkzOCBDMTIyLjc5MTA4OSwxMC44OTQ1MzEgMTIyLjc4NzE4MywxMC45NTMxMjUgMTIyLjc4MzI3NywxMS4wMTU2MjUgQzEyMi43NzkzNzEsMTEuMDU0Njg4IDEyMi43NzkzNzEsMTEuMDkzNzUgMTIyLjc3NTQ2NSwxMS4xMzY3MTkgQzEyMi43NzE1NTgsMTEuMjE4NzUgMTIyLjc2NzY1MiwxMS4zMDQ2ODggMTIyLjc2Mzc0NiwxMS4zOTA2MjUgQzEyMi43NjM3NDYsMTEuNDE0MDYyIDEyMi43NTk4MzksMTEuNDI5Njg4IDEyMi43NTk4MzksMTEuNDQ5MjE5IEMxMjIuNzU1OTMzLDExLjU1ODU5NCAxMjIuNzU1OTMzLDExLjY3MTg3NSAxMjIuNzU1OTMzLDExLjc4MTI1IEwxMjIuNzU1OTMzLDEzLjMyNDIxOSBMMTIwLjgxMDYyMSwxMy4zMjQyMTkgQzEyMC42ODk1MjcsMTMuMzIwMzEyIDEyMC41Njg0MzMsMTMuMzQzNzUgMTIwLjQ1OTA1OCwxMy4zODI4MTIgQzEyMC4xMDc0OTYsMTMuNTExNzE5IDExOS44NTc0OTYsMTMuODQzNzUgMTE5Ljg1NzQ5NiwxNC4yMzA0NjkgQzExOS44NTc0OTYsMTQuNTkzNzUgMTIwLjAzNzE4MywxNC45MDIzNDQgMTIwLjMxODQzMywxNS4wODIwMzEgQzEyMC40NTkwNTgsMTUuMTcxODc1IDEyMC42MjMxMjEsMTUuMjI2NTYyIDEyMC44MDI4MDgsMTUuMjM0Mzc1IEwxMjAuODEwNjIxLDE1LjIzNDM3NSBDMTIwLjgxMDYyMSwxNS4yMzQzNzUgMTIwLjgxMDYyMSwxNS4yMzgyODEgMTIwLjgxMDYyMSwxNS4yMzgyODEgTDEyMi43NTU5MzMsMTUuMjM4MjgxIEwxMjIuNzU1OTMzLDI4Ljg2MzI4MSBDMTIyLjc1MjAyNywyOC44ODI4MTIgMTIyLjc1NTkzMywyOC44OTg0MzggMTIyLjc1NTkzMywyOC45MTc5NjkgQzEyMi43NTU5MzMsMjguOTI5Njg4IDEyMi43NTU5MzMsMjguOTQxNDA2IDEyMi43NTU5MzMsMjguOTUzMTI1IEMxMjIuNzY3NjUyLDI5LjE3MTg3NSAxMjIuODU3NDk2LDI5LjM3MTA5NCAxMjMuMDAyMDI3LDI5LjUyMzQzOCBMMTIzLjAwNTkzMywyOS41MjczNDQgQzEyMy4wMjU0NjUsMjkuNTQ2ODc1IDEyMy4wNDg5MDIsMjkuNTY2NDA2IDEyMy4wNjg0MzMsMjkuNTg1OTM4IEMxMjMuMDcyMzM5LDI5LjU4OTg0NCAxMjMuMDc2MjQ2LDI5LjU4OTg0NCAxMjMuMDgwMTUyLDI5LjU5Mzc1IEMxMjMuMDk1Nzc3LDI5LjYwOTM3NSAxMjMuMTE1MzA4LDI5LjYyMTA5NCAxMjMuMTMwOTMzLDI5LjYzMjgxMiBDMTIzLjEzODc0NiwyOS42NDA2MjUgMTIzLjE1MDQ2NSwyOS42NDg0MzggMTIzLjE1ODI3NywyOS42NTIzNDQgQzEyMy4xNjYwODksMjkuNjYwMTU2IDEyMy4xNzM5MDIsMjkuNjY0MDYyIDEyMy4xODU2MjEsMjkuNjY3OTY5IEMxMjMuMzM3OTY1LDI5Ljc2NTYyNSAxMjMuNTE3NjUyLDI5LjgyMDMxMiAxMjMuNzA5MDU4LDI5LjgyMDMxMiBDMTIzLjc0MDMwOCwyOS44MjAzMTIgMTIzLjc3MTU1OCwyOS44MTY0MDYgMTIzLjc5ODkwMiwyOS44MTI1IEMxMjMuOTgyNDk2LDI5Ljc5Njg3NSAxMjQuMTUwNDY1LDI5LjcxODc1IDEyNC4yODcxODMsMjkuNjA1NDY5IEMxMjQuMjg3MTgzLDI5LjYwNTQ2OSAxMjQuMjkxMDg5LDI5LjYwMTU2MiAxMjQuMjkxMDg5LDI5LjYwMTU2MiBDMTI0LjMxMDYyMSwyOS41ODU5MzggMTI0LjMyNjI0NiwyOS41NzAzMTIgMTI0LjM0MTg3MSwyOS41NTA3ODEgQzEyNC4zNDU3NzcsMjkuNTQ2ODc1IDEyNC4zNTM1ODksMjkuNTQyOTY5IDEyNC4zNTc0OTYsMjkuNTM5MDYyIEMxMjQuMzczMTIxLDI5LjUyMzQzOCAxMjQuMzg0ODM5LDI5LjUwNzgxMiAxMjQuMzk2NTU4LDI5LjQ5NjA5NCBDMTI0LjU0NDk5NiwyOS4zMTY0MDYgMTI0LjYyNzAyNywyOS4wOTM3NSAxMjQuNjE1MzA4LDI4Ljg2MzI4MSBMMTI0LjYxNTMwOCwxNS4yMzgyODEgTDEyNi43MDkwNTgsMTUuMjM4MjgxIEMxMjYuNzA5MDU4LDE1LjIzODI4MSAxMjYuNzA5MDU4LDE1LjIzNDM3NSAxMjYuNzA5MDU4LDE1LjIzNDM3NSBMMTI2LjcxNjg3MSwxNS4yMzQzNzUgQzEyNy4yNzE1NTgsMTUuMjA3MDMxIDEyNy42Nzc4MDgsMTQuNzczNDM4IDEyNy42NjIxODMsMTQuMjM0Mzc1IEMxMjcuNjYyMTgzLDE0LjIzMDQ2OSAxMjcuNjYyMTgzLDE0LjIzMDQ2OSAxMjcuNjYyMTgzLDE0LjIyNjU2MiBDMTI3LjY2NjA4OSwxNC4yMDcwMzEgMTI3LjY2MjE4MywxNC4xODc1IDEyNy42NjIxODMsMTQuMTY3OTY5IEMxMjcuNjYyMTgzLDE0LjE2MDE1NiAxMjcuNjYyMTgzLDE0LjE1MjM0NCAxMjcuNjYyMTgzLDE0LjE0ODQzOCBDMTI3LjY0NjU1OCwxMy45NDE0MDYgMTI3LjU1NjcxNSwxMy43NTM5MDYgMTI3LjQxNjA4OSwxMy42MDkzNzUgQzEyNy40MTYwODksMTMuNjA5Mzc1IDEyNy40MTYwODksMTMuNjA5Mzc1IDEyNy40MTYwODksMTMuNjA1NDY5IEMxMjcuNDEyMTgzLDEzLjYwNTQ2OSAxMjcuNDEyMTgzLDEzLjYwNTQ2OSAxMjcuNDEyMTgzLDEzLjYwNTQ2OSBDMTI3LjM5MjY1MiwxMy41ODU5MzggMTI3LjM3NzAyNywxMy41NzAzMTIgMTI3LjM1NzQ5NiwxMy41NTQ2ODggQzEyNy4zNDk2ODMsMTMuNTQ2ODc1IDEyNy4zNDE4NzEsMTMuNTQyOTY5IDEyNy4zMzc5NjUsMTMuNTM1MTU2IEMxMjcuMzIyMzM5LDEzLjUyMzQzOCAxMjcuMzEwNjIxLDEzLjUxNTYyNSAxMjcuMjk0OTk2LDEzLjUwMzkwNiBDMTI3LjI4MzI3NywxMy40OTYwOTQgMTI3LjI2NzY1MiwxMy40ODQzNzUgMTI3LjI1NTkzMywxMy40NzY1NjIgQzEyNy4yNDgxMjEsMTMuNDcyNjU2IDEyNy4yMzY0MDIsMTMuNDY0ODQ0IDEyNy4yMjg1ODksMTMuNDYwOTM4IEMxMjcuMjA5MDU4LDEzLjQ0OTIxOSAxMjcuMTg5NTI3LDEzLjQzNzUgMTI3LjE2OTk5NiwxMy40Mjk2ODggQzEyNy4xNjYwODksMTMuNDI1NzgxIDEyNy4xNTgyNzcsMTMuNDIxODc1IDEyNy4xNTQzNzEsMTMuNDIxODc1IEMxMjcuMTMwOTMzLDEzLjQxMDE1NiAxMjcuMTA3NDk2LDEzLjM5ODQzOCAxMjcuMDg0MDU4LDEzLjM5MDYyNSBDMTI3LjA4MDE1MiwxMy4zODY3MTkgMTI3LjA3NjI0NiwxMy4zODY3MTkgMTI3LjA2ODQzMywxMy4zODI4MTIgQzEyNy4wNDQ5OTYsMTMuMzc1IDEyNy4wMjE1NTgsMTMuMzY3MTg4IDEyNi45OTgxMjEsMTMuMzU5Mzc1IEMxMjYuOTkwMzA4LDEzLjM1OTM3NSAxMjYuOTgyNDk2LDEzLjM1NTQ2OSAxMjYuOTc0NjgzLDEzLjM1NTQ2OSBDMTI2Ljk1MTI0NiwxMy4zNTE1NjIgMTI2LjkzMTcxNSwxMy4zNDM3NSAxMjYuOTA4Mjc3LDEzLjMzOTg0NCBDMTI2Ljg5NjU1OCwxMy4zMzk4NDQgMTI2Ljg4NDgzOSwxMy4zMzk4NDQgMTI2Ljg3MzEyMSwxMy4zMzU5MzggQzEyNi44NTc0OTYsMTMuMzMyMDMxIDEyNi44Mzc5NjUsMTMuMzMyMDMxIDEyNi44MTg0MzMsMTMuMzI4MTI1IEMxMjYuODAyODA4LDEzLjMyODEyNSAxMjYuNzg3MTgzLDEzLjMyODEyNSAxMjYuNzc1NDY1LDEzLjMyODEyNSBDMTI2Ljc2Mzc0NiwxMy4zMjgxMjUgMTI2Ljc1MjAyNywxMy4zMjQyMTkgMTI2Ljc0MDMwOCwxMy4zMjQyMTkgQzEyNi43Mjg1ODksMTMuMzI0MjE5IDEyNi43MTI5NjUsMTMuMzI0MjE5IDEyNi43MDkwNTgsMTMuMzI0MjE5IEwxMjQuNjE1MzA4LDEzLjMyNDIxOSBMMTI0LjYxNTMwOCwxMS43ODUxNTYgQzEyNC42MTUzMDgsMTEuNzczNDM4IDEyNC42MTUzMDgsMTEuNzYxNzE5IDEyNC42MTUzMDgsMTEuNzUzOTA2IEMxMjQuNjE5MjE1LDExLjY3NTc4MSAxMjQuNjE5MjE1LDExLjU5NzY1NiAxMjQuNjIzMTIxLDExLjUyMzQzOCBDMTI0LjYyMzEyMSwxMS41MDM5MDYgMTI0LjYyMzEyMSwxMS40ODA0NjkgMTI0LjYyNzAyNywxMS40NjA5MzggQzEyNC42MjcwMjcsMTEuMzk0NTMxIDEyNC42MzA5MzMsMTEuMzI4MTI1IDEyNC42MzQ4MzksMTEuMjY1NjI1IEMxMjQuNjM0ODM5LDExLjI1MzkwNiAxMjQuNjM4NzQ2LDExLjIzODI4MSAxMjQuNjM4NzQ2LDExLjIyNjU2MiBDMTI0LjY0MjY1MiwxMS4xNTIzNDQgMTI0LjY1MDQ2NSwxMS4wNzgxMjUgMTI0LjY1ODI3NywxMS4wMDc4MTIgQzEyNC43MzI0OTYsMTAuMjQ2MDk0IDEyNC44OTY1NTgsOS43NjU2MjUgMTI1LjA2ODQzMyw5LjQ3MjY1NiBDMTI1LjA3MjMzOSw5LjQ2NDg0NCAxMjUuMDcyMzM5LDkuNDYwOTM4IDEyNS4wNzYyNDYsOS40NTMxMjUgQzEyNS4wODc5NjUsOS40MzM1OTQgMTI1LjEwMzU4OSw5LjQxNDA2MiAxMjUuMTE1MzA4LDkuMzk0NTMxIEMxMjUuMTIzMTIxLDkuMzc4OTA2IDEyNS4xMzQ4MzksOS4zNjMyODEgMTI1LjE0NjU1OCw5LjM0NzY1NiBDMTI1LjE1MDQ2NSw5LjMzOTg0NCAxMjUuMTU4Mjc3LDkuMzI0MjE5IDEyNS4xNjYwODksOS4zMTY0MDYgQzEyNS4xODU2MjEsOS4yODkwNjIgMTI1LjIwNTE1Miw5LjI2NTYyNSAxMjUuMjI4NTg5LDkuMjQyMTg4IEMxMjUuNDc0NjgzLDguOTY0ODQ0IDEyNS44NTc0OTYsOC43OTY4NzUgMTI2LjQxMjE4Myw4LjczMDQ2OSBDMTI2LjQxOTk5Niw4LjczMDQ2OSAxMjYuNDIzOTAyLDguNzI2NTYyIDEyNi40MzU2MjEsOC43MjY1NjIgQzEyNi40NjY4NzEsOC43MjI2NTYgMTI2LjUwMjAyNyw4LjcxODc1IDEyNi41MzMyNzcsOC43MTg3NSBDMTI2LjU0ODkwMiw4LjcxNDg0NCAxMjYuNTY4NDMzLDguNzE0ODQ0IDEyNi41ODQwNTgsOC43MTA5MzggQzEyNi42MTUzMDgsOC43MTA5MzggMTI2LjY0MjY1Miw4LjcwNzAzMSAxMjYuNjczOTAyLDguNzA3MDMxIEMxMjYuNjk3MzM5LDguNzA3MDMxIDEyNi43MTY4NzEsOC43MDMxMjUgMTI2Ljc0NDIxNSw4LjcwMzEyNSBDMTI2Ljc3MTU1OCw4LjY5OTIxOSAxMjYuNzk4OTAyLDguNjk5MjE5IDEyNi44MjYyNDYsOC42OTkyMTkgQzEyNi44NTM1ODksOC42OTkyMTkgMTI2Ljg4MDkzMyw4LjY5NTMxMiAxMjYuOTA4Mjc3LDguNjk1MzEyIEMxMjYuOTM1NjIxLDguNjk1MzEyIDEyNi45NjI5NjUsOC42OTUzMTIgMTI2Ljk5MDMwOCw4LjY5NTMxMiBDMTI3LjAyOTM3MSw4LjY5NTMxMiAxMjcuMDY4NDMzLDguNjk1MzEyIDEyNy4xMDc0OTYsOC42OTUzMTIgTDEyNy4xMTE0MDIsOC42OTUzMTIgQzEyNy4xNDI2NTIsOC42OTUzMTIgMTI3LjE2OTk5Niw4LjY5MTQwNiAxMjcuMjAxMjQ2LDguNjg3NSBDMTI3LjIzNjQwMiw4LjY5MTQwNiAxMjcuMjcxNTU4LDguNjk1MzEyIDEyNy4zMDY3MTUsOC42OTUzMTIgTDEyNy41NjA2MjEsOC42OTUzMTIgQzEyOC4wODQwNTgsOC42OTUzMTIgMTI4LjUxMzc0Niw4LjI2NTYyNSAxMjguNTEzNzQ2LDcuNzM4MjgxIEMxMjguNTEzNzQ2LDcuMjEwOTM4IDEyOC4wODQwNTgsNi43ODUxNTYgMTI3LjU2MDYyMSw2Ljc4NTE1NiIvPiYjeGE7ICAgICAgICAgICAgPHBhdGggaWQ9IlBhdGg4IiBkPSJNMTMyLjU5OTY4Myw2LjgxMjUgQzEzMi41OTk2ODMsNi44MTI1IDEzMi41OTU3NzcsNi44MDg1OTQgMTMyLjU5MTg3MSw2LjgwODU5NCBDMTMyLjU3MjMzOSw2LjgwMDc4MSAxMzIuNTU2NzE1LDYuNzkyOTY5IDEzMi41MzMyNzcsNi43ODkwNjIgQzEzMi41MjU0NjUsNi43ODUxNTYgMTMyLjUxMzc0Niw2Ljc4MTI1IDEzMi41MDIwMjcsNi43NzczNDQgQzEzMi40ODY0MDIsNi43NzM0MzggMTMyLjQ3MDc3Nyw2Ljc2OTUzMSAxMzIuNDU1MTUyLDYuNzY1NjI1IEMxMzIuNDM5NTI3LDYuNzYxNzE5IDEzMi40MjM5MDIsNi43NTM5MDYgMTMyLjQxMjE4Myw2Ljc1MzkwNiBDMTMyLjM5MjY1Miw2Ljc1IDEzMi4zNzcwMjcsNi43NDYwOTQgMTMyLjM1NzQ5Niw2Ljc0NjA5NCBDMTMyLjM0MTg3MSw2Ljc0MjE4OCAxMzIuMzMwMTUyLDYuNzQyMTg4IDEzMi4zMTQ1MjcsNi43MzgyODEgQzEzMi4yODMyNzcsNi43MzQzNzUgMTMyLjI0ODEyMSw2LjczNDM3NSAxMzIuMjE2ODcxLDYuNzM0Mzc1IEMxMzEuNzA5MDU4LDYuNzM0Mzc1IDEzMS4yNzkzNzEsNy4xNjAxNTYgMTMxLjI3OTM3MSw3LjY2Nzk2OSBMMTMxLjI3OTM3MSwyOC44MzIwMzEgQzEzMS4yNzkzNzEsMjkuMzQzNzUgMTMxLjcwOTA1OCwyOS43Njk1MzEgMTMyLjIxNjg3MSwyOS43Njk1MzEgQzEzMi4yNDgxMjEsMjkuNzY5NTMxIDEzMi4yODMyNzcsMjkuNzY5NTMxIDEzMi4zMTQ1MjcsMjkuNzY1NjI1IEMxMzIuMzE4NDMzLDI5Ljc2NTYyNSAxMzIuMzI2MjQ2LDI5Ljc2MTcxOSAxMzIuMzMwMTUyLDI5Ljc2MTcxOSBDMTMyLjM1NzQ5NiwyOS43NTc4MTIgMTMyLjM4NDgzOSwyOS43NTM5MDYgMTMyLjQxMjE4MywyOS43NSBDMTMyLjQxNjA4OSwyOS43NSAxMzIuNDIzOTAyLDI5Ljc0NjA5NCAxMzIuNDMxNzE1LDI5Ljc0NjA5NCBDMTMyLjQ1NTE1MiwyOS43MzgyODEgMTMyLjQ3ODU4OSwyOS43MzQzNzUgMTMyLjUwMjAyNywyOS43MjY1NjIgQzEzMi41MDU5MzMsMjkuNzI2NTYyIDEzMi41MDk4MzksMjkuNzI2NTYyIDEzMi41MTM3NDYsMjkuNzIyNjU2IEMxMzIuODczMTIxLDI5LjYwOTM3NSAxMzMuMTM4NzQ2LDI5LjMwNDY4OCAxMzMuMTc3ODA4LDI4LjkyOTY4OCBDMTMzLjE4MTcxNSwyOC44OTg0MzggMTMzLjE4NTYyMSwyOC44NjcxODggMTMzLjE4NTYyMSwyOC44MzIwMzEgTDEzMy4xODU2MjEsNy42Njc5NjkgQzEzMy4xODU2MjEsNy42MzY3MTkgMTMzLjE4MTcxNSw3LjYwNTQ2OSAxMzMuMTc3ODA4LDcuNTc0MjE5IEMxMzMuMTQyNjUyLDcuMjMwNDY5IDEzMi45MTYwODksNi45NDUzMTIgMTMyLjU5OTY4Myw2LjgxMjUiLz4mI3hhOyAgICAgICAgICAgIDxwYXRoIGlkPSJQYXRoOSIgZD0iTTYwLjg3NzAyNzUsMjQuNzg5MDYyIEM2MC44NjkyMTU1LDI0LjczNDM3NSA2MC44NjkyMTU1LDI0LjY4MzU5NCA2MC44NjE0MDI1LDI0LjYzMjgxMiBDNjAuODU3NDk2NSwyNC41OTM3NSA2MC44NTM1ODk1LDI0LjU1ODU5NCA2MC44NDk2ODM1LDI0LjUyMzQzOCBDNjAuODQxODcxNSwyNC40ODA0NjkgNjAuODM3OTY1NSwyNC40NDE0MDYgNjAuODMwMTUyNSwyNC4zOTg0MzggQzYwLjgyMjMzOTUsMjQuMzU5Mzc1IDYwLjgxNDUyNzUsMjQuMzIwMzEyIDYwLjgwNjcxNTUsMjQuMjc3MzQ0IEM2MC44MDI4MDg1LDI0LjI0NjA5NCA2MC43OTQ5OTY1LDI0LjIxMDkzOCA2MC43ODcxODM1LDI0LjE3OTY4OCBDNjAuNzc1NDY1NSwyNC4xMzI4MTIgNjAuNzY3NjUyNSwyNC4wODk4NDQgNjAuNzU1OTMzNSwyNC4wNDI5NjkgQzYwLjc0ODEyMTUsMjQuMDE5NTMxIDYwLjc0MDMwODUsMjMuOTkyMTg4IDYwLjczMjQ5NjUsMjMuOTY4NzUgQzYwLjcyMDc3NzUsMjMuOTE3OTY5IDYwLjcwNTE1MjUsMjMuODcxMDk0IDYwLjY4NTYyMTUsMjMuODI0MjE5IEM2MC42ODE3MTU1LDIzLjgwNDY4OCA2MC42NzM5MDI1LDIzLjc4NTE1NiA2MC42Njk5OTY1LDIzLjc2OTUzMSBDNjAuNjUwNDY1NSwyMy43MTQ4NDQgNjAuNjMwOTMzNSwyMy42NjQwNjIgNjAuNjA3NDk2NSwyMy42MDkzNzUgQzYwLjYwMzU4OTUsMjMuNjAxNTYyIDYwLjU5OTY4MzUsMjMuNTg5ODQ0IDYwLjU5NTc3NzUsMjMuNTc4MTI1IEM2MC41Njg0MzM1LDIzLjUyMzQzOCA2MC41NDQ5OTY1LDIzLjQ2NDg0NCA2MC41MTc2NTI1LDIzLjQxMDE1NiBDNjAuNTEzNzQ2NSwyMy40MDYyNSA2MC41MTM3NDY1LDIzLjQwMjM0NCA2MC41MDk4Mzk1LDIzLjM5ODQzOCBDNjAuMjg3MTgzNSwyMi45NDkyMTkgNTkuOTcwNzc3NSwyMi41NzQyMTkgNTkuNTg0MDU4NSwyMi4yNTc4MTIgQzU5LjU4NDA1ODUsMjIuMjUzOTA2IDU5LjU4NDA1ODUsMjIuMjUzOTA2IDU5LjU4MDE1MjUsMjIuMjUzOTA2IEM1OS41MjU0NjU1LDIyLjIxMDkzOCA1OS40NzA3Nzc1LDIyLjE2NDA2MiA1OS40MTIxODM1LDIyLjEyMTA5NCBDNTkuNDEyMTgzNSwyMi4xMjEwOTQgNTkuNDA4Mjc3NSwyMi4xMTcxODggNTkuNDA0MzcxNSwyMi4xMTMyODEgQzU5LjQwMDQ2NTUsMjIuMTEzMjgxIDU5LjM5NjU1ODUsMjIuMTA5Mzc1IDU5LjM5MjY1MjUsMjIuMTA1NDY5IEM1OS4zNTc0OTY1LDIyLjA4MjAzMSA1OS4zMjIzMzk1LDIyLjA1NDY4OCA1OS4yOTEwODk1LDIyLjAzMTI1IEM1OC44MTA2MjE1LDIxLjY5MTQwNiA1OC4yNzkzNzE1LDIxLjQyMTg3NSA1Ny41MDU5MzM1LDIxLjEyNSBDNTcuNDk0MjE1NSwyMS4xMjEwOTQgNTcuNDgyNDk2NSwyMS4xMTcxODggNTcuNDcwNzc3NSwyMS4xMTMyODEgQzU3LjQ1OTA1ODUsMjEuMTA1NDY5IDU3LjQ0MzQzMzUsMjEuMTAxNTYyIDU3LjQzMTcxNTUsMjEuMDkzNzUgQzU2Ljk5NDIxNTUsMjAuOTI5Njg4IDU2LjU0MTA4OTUsMjAuNzczNDM4IDU2LjA3NjI0NjUsMjAuNjIxMDk0IEM1Ni4wNzYyNDY1LDIwLjYyMTA5NCA1Ni4wNzYyNDY1LDIwLjYyMTA5NCA1Ni4wNzIzMzk1LDIwLjYyMTA5NCBDNTYuMDcyMzM5NSwyMC42MjEwOTQgNTYuMDY4NDMzNSwyMC42MjEwOTQgNTYuMDY4NDMzNSwyMC42MTcxODggQzU2LjA2MDYyMTUsMjAuNjE3MTg4IDU2LjA1MjgwODUsMjAuNjEzMjgxIDU2LjA0MTA4OTUsMjAuNjA5Mzc1IEM1NS45OTgxMjE1LDIwLjU5Mzc1IDU1Ljk1MTI0NjUsMjAuNTc4MTI1IDU1Ljg4ODc0NjUsMjAuNTU4NTk0IEM1NS44NTc0OTY1LDIwLjU1MDc4MSA1NS44MzQwNTg1LDIwLjU0Mjk2OSA1NS44MTA2MjE1LDIwLjUzNTE1NiBDNTUuNjU0MzcxNSwyMC40ODA0NjkgNTUuNDk0MjE1NSwyMC40Mjk2ODggNTUuMzM0MDU4NSwyMC4zNzUgQzU1LjIyMDc3NzUsMjAuMzM1OTM4IDU1LjA5OTY4MzUsMjAuMjk2ODc1IDU0Ljk1NTE1MjUsMjAuMjUgQzU0LjkxNjA4OTUsMjAuMjM4MjgxIDU0LjgyMjMzOTUsMjAuMjA3MDMxIDU0Ljc0NDIxNTUsMjAuMTgzNTk0IEM1NC43NDAzMDg1LDIwLjE4MzU5NCA1NC43NDAzMDg1LDIwLjE3OTY4OCA1NC43MzY0MDI1LDIwLjE3OTY4OCBDNTQuNjg5NTI3NSwyMC4xNjQwNjIgNTQuNjQyNjUyNSwyMC4xNDg0MzggNTQuNTkxODcxNSwyMC4xMzI4MTIgQzU0LjIwMTI0NjUsMjAuMDA3ODEyIDUzLjg4MDkzMzUsMTkuODk4NDM4IDUzLjYwNzQ5NjUsMTkuNzk2ODc1IEM1My4xNjIxODM1LDE5LjYzMjgxMiA1Mi43NTU5MzM1LDE5LjQ1NzAzMSA1Mi40MjM5MDI1LDE5LjI0NjA5NCBDNTIuNDE2MDg5NSwxOS4yNDIxODggNTIuNDA4Mjc3NSwxOS4yMzgyODEgNTIuNDA0MzcxNSwxOS4yMzQzNzUgQzUxLjk1MTI0NjUsMTguOTQ1MzEyIDUxLjYzODc0NjUsMTguNTg5ODQ0IDUxLjU2NDUyNzUsMTguMTI1IEM1MS41NjQ1Mjc1LDE4LjEyNSA1MS41NjA2MjE1LDE4LjEyMTA5NCA1MS41NjA2MjE1LDE4LjEyMTA5NCBDNTEuNTU2NzE1NSwxOC4wODk4NDQgNTEuNTUyODA4NSwxOC4wNTQ2ODggNTEuNTUyODA4NSwxOC4wMjM0MzggQzUxLjU0ODkwMjUsMTguMDE1NjI1IDUxLjU0ODkwMjUsMTguMDExNzE5IDUxLjU0ODkwMjUsMTguMDA3ODEyIEM1MS41NDQ5OTY1LDE3Ljk2ODc1IDUxLjU0NDk5NjUsMTcuOTMzNTk0IDUxLjU0NDk5NjUsMTcuODk0NTMxIEM1MS41NDQ5OTY1LDE3LjgzOTg0NCA1MS41NDg5MDI1LDE3Ljc4NTE1NiA1MS41NTI4MDg1LDE3LjczNDM3NSBDNTEuNTUyODA4NSwxNy43MTg3NSA1MS41NTI4MDg1LDE3LjcwNzAzMSA1MS41NTY3MTU1LDE3LjY5NTMxMiBDNTEuNTYwNjIxNSwxNy42NTIzNDQgNTEuNTY0NTI3NSwxNy42MTMyODEgNTEuNTY4NDMzNSwxNy41NzQyMTkgQzUxLjU3MjMzOTUsMTcuNTYyNSA1MS41NzIzMzk1LDE3LjU1MDc4MSA1MS41NzYyNDY1LDE3LjUzOTA2MiBDNTEuNTg0MDU4NSwxNy40OTYwOTQgNTEuNTkxODcxNSwxNy40NTcwMzEgNTEuNTk5NjgzNSwxNy40MTQwNjIgQzUxLjYwMzU4OTUsMTcuNDEwMTU2IDUxLjYwMzU4OTUsMTcuNDAyMzQ0IDUxLjYwNzQ5NjUsMTcuMzk0NTMxIEM1MS42MTkyMTU1LDE3LjM0NzY1NiA1MS42MzA5MzM1LDE3LjMwNDY4OCA1MS42NDY1NTg1LDE3LjI2MTcxOSBDNTEuNjQ2NTU4NSwxNy4yNTc4MTIgNTEuNjQ2NTU4NSwxNy4yNTc4MTIgNTEuNjQ2NTU4NSwxNy4yNTc4MTIgQzUxLjg0OTY4MzUsMTYuNjUyMzQ0IDUyLjMzMDE1MjUsMTYuMjAzMTI1IDUyLjg5NjU1ODUsMTUuODg2NzE5IEM1Mi45MzU2MjE1LDE1Ljg2NzE4OCA1Mi45NzQ2ODM1LDE1Ljg0NzY1NiA1My4wMDk4Mzk1LDE1LjgyODEyNSBDNTMuMDQ4OTAyNSwxNS44MDg1OTQgNTMuMDg0MDU4NSwxNS43ODkwNjIgNTMuMTE5MjE1NSwxNS43NzM0MzggQzUzLjE3NzgwODUsMTUuNzQ2MDk0IDUzLjIzNjQwMjUsMTUuNzE4NzUgNTMuMjk0OTk2NSwxNS42OTUzMTIgQzUzLjMzMDE1MjUsMTUuNjc5Njg4IDUzLjM2MTQwMjUsMTUuNjY0MDYyIDUzLjM5NjU1ODUsMTUuNjUyMzQ0IEM1My40NTkwNTg1LDE1LjYyODkwNiA1My41MjE1NTg1LDE1LjYwNTQ2OSA1My41ODQwNTg1LDE1LjU4MjAzMSBDNTMuNjE1MzA4NSwxNS41NzAzMTIgNTMuNjUwNDY1NSwxNS41NTg1OTQgNTMuNjg1NjIxNSwxNS41NDY4NzUgQzUzLjc0ODEyMTUsMTUuNTI3MzQ0IDUzLjgwNjcxNTUsMTUuNTA3ODEyIDUzLjg2OTIxNTUsMTUuNDkyMTg4IEM1My45MDgyNzc1LDE1LjQ4MDQ2OSA1My45NDM0MzM1LDE1LjQ2ODc1IDUzLjk4MjQ5NjUsMTUuNDYwOTM4IEM1NC4wNDEwODk1LDE1LjQ0NTMxMiA1NC4wOTk2ODM1LDE1LjQzMzU5NCA1NC4xNTQzNzE1LDE1LjQxNzk2OSBDNTQuMTkzNDMzNSwxNS40MTAxNTYgNTQuMjMyNDk2NSwxNS40MDIzNDQgNTQuMjcxNTU4NSwxNS4zOTQ1MzEgQzU0LjMzNDA1ODUsMTUuMzgyODEyIDU0LjM5MjY1MjUsMTUuMzcxMDk0IDU0LjQ0NzMzOTUsMTUuMzYzMjgxIEM1NC40ODI0OTY1LDE1LjM1OTM3NSA1NC41MTM3NDY1LDE1LjM1NTQ2OSA1NC41NDg5MDI1LDE1LjM0NzY1NiBDNTQuNjE1MzA4NSwxNS4zMzk4NDQgNTQuNjg1NjIxNSwxNS4zMzIwMzEgNTQuNzU1OTMzNSwxNS4zMjgxMjUgQzU0Ljc3MTU1ODUsMTUuMzI0MjE5IDU0Ljc4NzE4MzUsMTUuMzI0MjE5IDU0LjgwNjcxNTUsMTUuMzIwMzEyIEM1NC44OTI2NTI1LDE1LjMxNjQwNiA1NC45Nzg1ODk1LDE1LjMxMjUgNTUuMDYwNjIxNSwxNS4zMTI1IEM1NS4xNTgyNzc1LDE1LjMxMjUgNTUuMjU1OTMzNSwxNS4zMTY0MDYgNTUuMzQ5NjgzNSwxNS4zMjAzMTIgQzU1LjM2NTMwODUsMTUuMzIwMzEyIDU1LjM4MDkzMzUsMTUuMzIwMzEyIDU1LjM5MjY1MjUsMTUuMzIwMzEyIEM1Ni4wODQwNTg1LDE1LjM2MzI4MSA1Ni42NDI2NTI1LDE1LjUzMTI1IDU3LjEwMzU4OTUsMTUuNzUzOTA2IEM1Ny4xMzg3NDY1LDE1Ljc2OTUzMSA1Ny4xNzM5MDI1LDE1Ljc4OTA2MiA1Ny4yMDkwNTg1LDE1LjgwNDY4OCBDNTcuMjI4NTg5NSwxNS44MTY0MDYgNTcuMjQ4MTIxNSwxNS44MjgxMjUgNTcuMjY3NjUyNSwxNS44MzU5MzggQzU3LjMxMDYyMTUsMTUuODU5Mzc1IDU3LjM1MzU4OTUsMTUuODgyODEyIDU3LjQwMDQ2NTUsMTUuOTEwMTU2IEM1Ny40MDgyNzc1LDE1LjkxNDA2MiA1Ny40MTYwODk1LDE1LjkxNzk2OSA1Ny40MjM5MDI1LDE1LjkyMTg3NSBDNTcuNDcwNzc3NSwxNS45NDkyMTkgNTcuNTE3NjUyNSwxNS45ODA0NjkgNTcuNTY0NTI3NSwxNi4wMDc4MTIgQzU3LjU2ODQzMzUsMTYuMDExNzE5IDU3LjU3MjMzOTUsMTYuMDExNzE5IDU3LjU3MjMzOTUsMTYuMDExNzE5IEM1Ny42MjMxMjE1LDE2LjA0Mjk2OSA1Ny42NzM5MDI1LDE2LjA3ODEyNSA1Ny43MjQ2ODM1LDE2LjEwOTM3NSBDNTcuNzI0NjgzNSwxNi4xMTMyODEgNTcuNzI4NTg5NSwxNi4xMTMyODEgNTcuNzI4NTg5NSwxNi4xMTcxODggQzU3Ljc3OTM3MTUsMTYuMTQ4NDM4IDU3LjgyNjI0NjUsMTYuMTc5Njg4IDU3Ljg3MzEyMTUsMTYuMjE0ODQ0IEM1Ny44OTI2NTI1LDE2LjIzMDQ2OSA1Ny45MDgyNzc1LDE2LjI0MjE4OCA1Ny45Mjc4MDg1LDE2LjI1MzkwNiBDNTguMDM3MTgzNSwxNi4zMzU5MzggNTguMjA5MDU4NSwxNi40Njg3NSA1OC4zNjUzMDg1LDE2LjU5NzY1NiBDNTguMzg0ODM5NSwxNi42MDkzNzUgNTguNDAwNDY1NSwxNi42MjEwOTQgNTguNDEyMTgzNSwxNi42MzI4MTIgQzU4LjUyOTM3MTUsMTYuNzMwNDY5IDU4LjYzODc0NjUsMTYuODE2NDA2IDU4Ljc0NDIxNTUsMTYuODk0NTMxIEM1OC43NjM3NDY1LDE2LjkxMDE1NiA1OC43NzkzNzE1LDE2LjkyMTg3NSA1OC43OTEwODk1LDE2LjkyOTY4OCBDNTguNzk0OTk2NSwxNi45MzM1OTQgNTguNzk4OTAyNSwxNi45Mzc1IDU4LjgwMjgwODUsMTYuOTM3NSBDNTguODE0NTI3NSwxNi45NDUzMTIgNTguODI2MjQ2NSwxNi45NTMxMjUgNTguODM3OTY1NSwxNi45NjA5MzggQzU4Ljg2NTMwODUsMTYuOTgwNDY5IDU4Ljg5NjU1ODUsMTcgNTguOTIzOTAyNSwxNy4wMTk1MzEgQzU4LjkzNTYyMTUsMTcuMDI3MzQ0IDU4Ljk0NzMzOTUsMTcuMDMxMjUgNTguOTU5MDU4NSwxNy4wMzkwNjIgQzU4Ljk4NjQwMjUsMTcuMDU0Njg4IDU5LjAxMzc0NjUsMTcuMDcwMzEyIDU5LjA0MTA4OTUsMTcuMDg1OTM4IEM1OS4wNTI4MDg1LDE3LjA4OTg0NCA1OS4wNjA2MjE1LDE3LjA5Mzc1IDU5LjA3MjMzOTUsMTcuMDk3NjU2IEM1OS4xMDM1ODk1LDE3LjExMzI4MSA1OS4xMzA5MzM1LDE3LjEyNSA1OS4xNjIxODM1LDE3LjEzNjcxOSBDNTkuMTY5OTk2NSwxNy4xNDA2MjUgNTkuMTczOTAyNSwxNy4xNDA2MjUgNTkuMTgxNzE1NSwxNy4xNDQ1MzEgQzU5LjIxNjg3MTUsMTcuMTU2MjUgNTkuMjUyMDI3NSwxNy4xNjc5NjkgNTkuMjg3MTgzNSwxNy4xNzE4NzUgQzU5LjI4NzE4MzUsMTcuMTcxODc1IDU5LjI4NzE4MzUsMTcuMTcxODc1IDU5LjI5MTA4OTUsMTcuMTc1NzgxIEM1OS4zNjkyMTU1LDE3LjE4NzUgNTkuNDQzNDMzNSwxNy4xOTE0MDYgNTkuNTIxNTU4NSwxNy4xNzE4NzUgQzU5LjUyOTM3MTUsMTcuMTcxODc1IDU5LjUzNzE4MzUsMTcuMTY3OTY5IDU5LjU0NDk5NjUsMTcuMTY3OTY5IEM1OS41NjQ1Mjc1LDE3LjE2NDA2MiA1OS41ODc5NjU1LDE3LjE1NjI1IDU5LjYwNzQ5NjUsMTcuMTUyMzQ0IEM1OS42MTUzMDg1LDE3LjE0ODQzOCA1OS42MTkyMTU1LDE3LjE0NDUzMSA1OS42MjcwMjc1LDE3LjE0MDYyNSBDNTkuNjM0ODM5NSwxNy4xNDA2MjUgNTkuNjQyNjUyNSwxNy4xMzY3MTkgNTkuNjUwNDY1NSwxNy4xMzI4MTIgQzU5LjY4MTcxNTUsMTcuMTE3MTg4IDU5LjcxMjk2NTUsMTcuMTAxNTYyIDU5Ljc0NDIxNTUsMTcuMDgyMDMxIEM1OS43NTIwMjc1LDE3LjA4MjAzMSA1OS43NTU5MzM1LDE3LjA3ODEyNSA1OS43NTk4Mzk1LDE3LjA3NDIxOSBDNTkuNzk0OTk2NSwxNy4wNTA3ODEgNTkuODI2MjQ2NSwxNy4wMjczNDQgNTkuODU3NDk2NSwxNyBDNTkuODYxNDAyNSwxNi45OTYwOTQgNTkuODYxNDAyNSwxNi45OTYwOTQgNTkuODYxNDAyNSwxNi45OTYwOTQgQzU5Ljg4ODc0NjUsMTYuOTcyNjU2IDU5LjkxMjE4MzUsMTYuOTQ1MzEyIDU5LjkzNTYyMTUsMTYuOTE3OTY5IEM1OS45NTEyNDY1LDE2Ljg5ODQzOCA1OS45NjY4NzE1LDE2Ljg3NSA1OS45Nzg1ODk1LDE2Ljg1MTU2MiBDNTkuOTgyNDk2NSwxNi44NDc2NTYgNTkuOTg2NDAyNSwxNi44NDM3NSA1OS45ODY0MDI1LDE2LjgzOTg0NCBDNjAuMTUwNDY1NSwxNi41NjY0MDYgNjAuMDU2NzE1NSwxNi4yMDcwMzEgNTkuNzY3NjUyNSwxNS44MTY0MDYgQzU5Ljc2Mzc0NjUsMTUuODA4NTk0IDU5Ljc1OTgzOTUsMTUuODAwNzgxIDU5Ljc1MjAyNzUsMTUuNzkyOTY5IEM1OS43NDAzMDg1LDE1Ljc3NzM0NCA1OS43MzI0OTY1LDE1Ljc2NTYyNSA1OS43MjA3Nzc1LDE1Ljc1IEM1OS4wNTY3MTU1LDE0Ljg5MDYyNSA1Ny41NDQ5OTY1LDEzLjk0OTIxOSA1Ni4xNDI2NTI1LDEzLjY0ODQzOCBDNTYuMTM0ODM5NSwxMy42NDg0MzggNTYuMTI3MDI3NSwxMy42NDg0MzggNTYuMTE5MjE1NSwxMy42NDQ1MzEgQzU2LjA2MDYyMTUsMTMuNjMyODEyIDU1Ljk5ODEyMTUsMTMuNjIxMDk0IDU1LjkzOTUyNzUsMTMuNjA5Mzc1IEM1NS45MjM5MDI1LDEzLjYwOTM3NSA1NS45MDQzNzE1LDEzLjYwNTQ2OSA1NS44ODg3NDY1LDEzLjYwMTU2MiBDNTUuODM3OTY1NSwxMy41OTM3NSA1NS43ODcxODM1LDEzLjU4NTkzOCA1NS43MzY0MDI1LDEzLjU4MjAzMSBDNTUuNzE2ODcxNSwxMy41NzgxMjUgNTUuNjk3MzM5NSwxMy41NzQyMTkgNTUuNjc3ODA4NSwxMy41NzQyMTkgQzU1LjYzMDkzMzUsMTMuNTcwMzEyIDU1LjU4MDE1MjUsMTMuNTY2NDA2IDU1LjUzMzI3NzUsMTMuNTYyNSBDNTUuNTEzNzQ2NSwxMy41NTg1OTQgNTUuNDk0MjE1NSwxMy41NTg1OTQgNTUuNDc4NTg5NSwxMy41NTQ2ODggQzU1LjQxMjE4MzUsMTMuNTU0Njg4IDU1LjM0OTY4MzUsMTMuNTUwNzgxIDU1LjI4NzE4MzUsMTMuNTUwNzgxIEM1NS4xODU2MjE1LDEzLjU1MDc4MSA1NS4wODQwNTg1LDEzLjU1MDc4MSA1NC45ODY0MDI1LDEzLjU1NDY4OCBDNTQuOTMxNzE1NSwxMy41NTQ2ODggNTQuODc3MDI3NSwxMy41NTg1OTQgNTQuODE4NDMzNSwxMy41NjI1IEM1NC43NzkzNzE1LDEzLjU2NjQwNiA1NC43MzI0OTY1LDEzLjU2NjQwNiA1NC42OTM0MzM1LDEzLjU2NjQwNiBDNTQuNjE1MzA4NSwxMy41NzQyMTkgNTQuNTQxMDg5NSwxMy41NzgxMjUgNTQuNDY2ODcxNSwxMy41ODU5MzggQzU0LjQ0NzMzOTUsMTMuNTg1OTM4IDU0LjQyMzkwMjUsMTMuNTg1OTM4IDU0LjQwNDM3MTUsMTMuNTg5ODQ0IEM1NC4zMTg0MzM1LDEzLjU5NzY1NiA1NC4yMzI0OTY1LDEzLjYwNTQ2OSA1NC4xNTA0NjU1LDEzLjYxNzE4OCBDNTQuMTM4NzQ2NSwxMy42MTcxODggNTQuMTMwOTMzNSwxMy42MTcxODggNTQuMTIzMTIxNSwxMy42MTcxODggQzU0LjAzMzI3NzUsMTMuNjI4OTA2IDUzLjk0NzMzOTUsMTMuNjQwNjI1IDUzLjg2MTQwMjUsMTMuNjU2MjUgQzUzLjg1NzQ5NjUsMTMuNjU2MjUgNTMuODQ5NjgzNSwxMy42NTYyNSA1My44NDU3Nzc1LDEzLjY1NjI1IEM1My43NTk4Mzk1LDEzLjY2Nzk2OSA1My42NzM5MDI1LDEzLjY4MzU5NCA1My41OTE4NzE1LDEzLjY5OTIxOSBDNTMuNTg3OTY1NSwxMy42OTkyMTkgNTMuNTg0MDU4NSwxMy43MDMxMjUgNTMuNTc2MjQ2NSwxMy43MDMxMjUgQzUzLjQwMDQ2NTUsMTMuNzM0Mzc1IDUzLjIyODU4OTUsMTMuNzczNDM4IDUzLjA2NDUyNzUsMTMuODE2NDA2IEM1My4wNjA2MjE1LDEzLjgxNjQwNiA1My4wNjA2MjE1LDEzLjgyMDMxMiA1My4wNjA2MjE1LDEzLjgyMDMxMiBDNTIuOTc4NTg5NSwxMy44Mzk4NDQgNTIuODk2NTU4NSwxMy44NjMyODEgNTIuODE0NTI3NSwxMy44ODY3MTkgQzUyLjczNjQwMjUsMTMuOTEwMTU2IDUyLjY2MjE4MzUsMTMuOTM3NSA1Mi41OTE4NzE1LDEzLjk2MDkzOCBDNTIuNTg0MDU4NSwxMy45NjA5MzggNTIuNTgwMTUyNSwxMy45NjQ4NDQgNTIuNTcyMzM5NSwxMy45NjQ4NDQgQzUyLjUwMjAyNzUsMTMuOTkyMTg4IDUyLjQzMTcxNTUsMTQuMDE1NjI1IDUyLjM2MTQwMjUsMTQuMDQyOTY5IEM1Mi4zNTM1ODk1LDE0LjA0Njg3NSA1Mi4zNDU3Nzc1LDE0LjA1MDc4MSA1Mi4zNDE4NzE1LDE0LjA1MDc4MSBDNTIuMjcxNTU4NSwxNC4wNzgxMjUgNTIuMjA5MDU4NSwxNC4xMDU0NjkgNTIuMTQyNjUyNSwxNC4xMzY3MTkgQzUyLjEzNDgzOTUsMTQuMTQwNjI1IDUyLjEyMzEyMTUsMTQuMTQwNjI1IDUyLjExNTMwODUsMTQuMTQ4NDM4IEM1Mi4wNTY3MTU1LDE0LjE3MTg3NSA1MS45OTQyMTU1LDE0LjIwMzEyNSA1MS45Mzk1Mjc1LDE0LjIzMDQ2OSBDNTEuOTIzOTAyNSwxNC4yMzgyODEgNTEuOTEyMTgzNSwxNC4yNDIxODggNTEuOTAwNDY1NSwxNC4yNSBDNTEuODQxODcxNSwxNC4yNzczNDQgNTEuNzg3MTgzNSwxNC4zMDQ2ODggNTEuNzMyNDk2NSwxNC4zMzU5MzggQzUxLjcxNjg3MTUsMTQuMzQzNzUgNTEuNzA1MTUyNSwxNC4zNTE1NjIgNTEuNjg5NTI3NSwxNC4zNTkzNzUgQzUxLjYzODc0NjUsMTQuMzg2NzE5IDUxLjU4Nzk2NTUsMTQuNDE3OTY5IDUxLjUzNzE4MzUsMTQuNDQ5MjE5IEM1MS41MjE1NTg1LDE0LjQ1NzAzMSA1MS41MDU5MzM1LDE0LjQ2NDg0NCA1MS40OTAzMDg1LDE0LjQ3NjU2MiBDNTEuNDIzOTAyNSwxNC41MTU2MjUgNTEuMzYxNDAyNSwxNC41NTg1OTQgNTEuMjk4OTAyNSwxNC41OTc2NTYgQzUxLjIyNDY4MzUsMTQuNjUyMzQ0IDUxLjE1MDQ2NTUsMTQuNzAzMTI1IDUxLjA4NDA1ODUsMTQuNzU3ODEyIEM1MS4wNzYyNDY1LDE0Ljc1NzgxMiA1MS4wNzIzMzk1LDE0Ljc2MTcxOSA1MS4wNzIzMzk1LDE0Ljc2NTYyNSBDNTAuNzQwMzA4NSwxNS4wMTE3MTkgNTAuNDU1MTUyNSwxNS4yNzM0MzggNTAuMjIwNzc3NSwxNS41NzgxMjUgQzUwLjIxMjk2NTUsMTUuNTg5ODQ0IDUwLjIwMTI0NjUsMTUuNjAxNTYyIDUwLjE5MzQzMzUsMTUuNjEzMjgxIEM1MC4xNjYwODk1LDE1LjY1NjI1IDUwLjEzNDgzOTUsMTUuNjk1MzEyIDUwLjEwNzQ5NjUsMTUuNzM0Mzc1IEM1MC4wODc5NjU1LDE1Ljc2NTYyNSA1MC4wNjg0MzM1LDE1Ljc5Njg3NSA1MC4wNDg5MDI1LDE1LjgyODEyNSBDNTAuMDMzMjc3NSwxNS44NTE1NjIgNTAuMDE3NjUyNSwxNS44NzUgNTAuMDA1OTMzNSwxNS44OTg0MzggQzQ5Ljk3NDY4MzUsMTUuOTQ5MjE5IDQ5Ljk0NzMzOTUsMTYgNDkuOTE5OTk2NSwxNi4wNTQ2ODggQzQ5LjkxNjA4OTUsMTYuMDYyNSA0OS45MTIxODM1LDE2LjA2NjQwNiA0OS45MDgyNzc1LDE2LjA3NDIxOSBDNDkuNjk3MzM5NSwxNi40OTIxODggNDkuNTc2MjQ2NSwxNi45NzI2NTYgNDkuNTI5MzcxNSwxNy41NTQ2ODggQzQ5LjUyOTM3MTUsMTcuNTYyNSA0OS41MjkzNzE1LDE3LjU3MDMxMiA0OS41MjU0NjU1LDE3LjU3ODEyNSBDNDkuNTIxNTU4NSwxNy42Nzk2ODggNDkuNTEzNzQ2NSwxNy43ODEyNSA0OS41MDk4Mzk1LDE3Ljg5MDYyNSBDNDkuNTA5ODM5NSwxNy45NzI2NTYgNDkuNTA5ODM5NSwxOC4wNTQ2ODggNDkuNTEzNzQ2NSwxOC4xMzY3MTkgQzQ5LjUxMzc0NjUsMTguMTQ4NDM4IDQ5LjUxMzc0NjUsMTguMTYwMTU2IDQ5LjUxMzc0NjUsMTguMTcxODc1IEM0OS41NTY3MTU1LDE5LjI4OTA2MiA1MC4wNjQ1Mjc1LDIwLjEyODkwNiA1MC45ODI0OTY1LDIwLjc4MTI1IEM1MC45OTAzMDg1LDIwLjc4NTE1NiA1MC45OTgxMjE1LDIwLjc5Mjk2OSA1MS4wMDU5MzM1LDIwLjc5Njg3NSBDNTEuMDQ0OTk2NSwyMC44MjQyMTkgNTEuMDg0MDU4NSwyMC44NTE1NjIgNTEuMTIzMTIxNSwyMC44Nzg5MDYgQzUxLjE1MDQ2NTUsMjAuODk4NDM4IDUxLjE4MTcxNTUsMjAuOTE0MDYyIDUxLjIwOTA1ODUsMjAuOTMzNTk0IEM1MS4yMTY4NzE1LDIwLjk0MTQwNiA1MS4yMjg1ODk1LDIwLjk0NTMxMiA1MS4yMzY0MDI1LDIwLjk0OTIxOSBDNTIuMTQyNjUyNSwyMS41MjM0MzggNTMuMjUyMDI3NSwyMS44NTE1NjIgNTQuMTc3ODA4NSwyMi4xMTMyODEgQzU0LjYzMDkzMzUsMjIuMjQ2MDk0IDU1LjAzNzE4MzUsMjIuMzU5Mzc1IDU1LjE1ODI3NzUsMjIuMzk0NTMxIEM1NS4xODU2MjE1LDIyLjQwMjM0NCA1NS4yMTI5NjU1LDIyLjQxMDE1NiA1NS4yMzY0MDI1LDIyLjQyMTg3NSBDNTUuNzkxMDg5NSwyMi42MDU0NjkgNTYuMjE2ODcxNSwyMi43NTM5MDYgNTYuNTY4NDMzNSwyMi44OTQ1MzEgQzU2LjU5NTc3NzUsMjIuOTAyMzQ0IDU2LjYxOTIxNTUsMjIuOTE0MDYyIDU2LjY0NjU1ODUsMjIuOTIxODc1IEM1Ni42NTQzNzE1LDIyLjkyNTc4MSA1Ni42NjYwODk1LDIyLjkyOTY4OCA1Ni42Nzc4MDg1LDIyLjkzNzUgQzU2Ljg3NzAyNzUsMjMuMDE5NTMxIDU3LjA3MjMzOTUsMjMuMTA1NDY5IDU3LjI1OTgzOTUsMjMuMTk5MjE5IEM1Ny40MTYwODk1LDIzLjI3NzM0NCA1Ny41NjA2MjE1LDIzLjM1OTM3NSA1Ny43MDUxNTI1LDIzLjQ0NTMxMiBDNTguMDc2MjQ2NSwyMy42NzU3ODEgNTguMzYxNDAyNSwyMy45MjU3ODEgNTguNTUyODA4NSwyNC4xOTkyMTkgQzU4LjU2MDYyMTUsMjQuMjA3MDMxIDU4LjU2NDUyNzUsMjQuMjE0ODQ0IDU4LjU2ODQzMzUsMjQuMjIyNjU2IEM1OC41ODc5NjU1LDI0LjI0NjA5NCA1OC42MDM1ODk1LDI0LjI2OTUzMSA1OC42MTUzMDg1LDI0LjI5Njg3NSBDNTguNjI3MDI3NSwyNC4zMTI1IDU4LjYzNDgzOTUsMjQuMzI0MjE5IDU4LjY0MjY1MjUsMjQuMzM5ODQ0IEM1OC42NTQzNzE1LDI0LjM1OTM3NSA1OC42NjYwODk1LDI0LjM3ODkwNiA1OC42NzM5MDI1LDI0LjM5ODQzOCBDNTguNjg1NjIxNSwyNC40MTc5NjkgNTguNjkzNDMzNSwyNC40NDE0MDYgNTguNzA1MTUyNSwyNC40NjA5MzggQzU4LjcxMjk2NTUsMjQuNDc2NTYyIDU4LjcyMDc3NzUsMjQuNDkyMTg4IDU4LjcyODU4OTUsMjQuNTA3ODEyIEM1OC43MzY0MDI1LDI0LjUzMTI1IDU4Ljc0ODEyMTUsMjQuNTU0Njg4IDU4Ljc1NTkzMzUsMjQuNTgyMDMxIEM1OC43NTk4Mzk1LDI0LjU5Mzc1IDU4Ljc2NzY1MjUsMjQuNjA5Mzc1IDU4Ljc3MTU1ODUsMjQuNjI1IEM1OC43NzkzNzE1LDI0LjY1MjM0NCA1OC43ODcxODM1LDI0LjY3OTY4OCA1OC43OTQ5OTY1LDI0LjcwNzAzMSBDNTguNzk4OTAyNSwyNC43MTg3NSA1OC44MDI4MDg1LDI0LjczMDQ2OSA1OC44MDY3MTU1LDI0Ljc0NjA5NCBDNTguODE0NTI3NSwyNC43NzM0MzggNTguODIyMzM5NSwyNC44MDQ2ODggNTguODI2MjQ2NSwyNC44MzIwMzEgQzU4LjgzMDE1MjUsMjQuODQzNzUgNTguODM0MDU4NSwyNC44NTkzNzUgNTguODM0MDU4NSwyNC44NzEwOTQgQzU4LjgzNzk2NTUsMjQuOTAyMzQ0IDU4Ljg0MTg3MTUsMjQuOTMzNTk0IDU4Ljg0NTc3NzUsMjQuOTY0ODQ0IEM1OC44NDk2ODM1LDI0Ljk3NjU2MiA1OC44NDk2ODM1LDI0Ljk4ODI4MSA1OC44NDk2ODM1LDI1IEM1OC44NTM1ODk1LDI1LjA0Njg3NSA1OC44NTc0OTY1LDI1LjA4OTg0NCA1OC44NTc0OTY1LDI1LjEzNjcxOSBDNTguODU3NDk2NSwyNS4yMDcwMzEgNTguODUzNTg5NSwyNS4yNzM0MzggNTguODQ5NjgzNSwyNS4zMzk4NDQgQzU4Ljg0OTY4MzUsMjUuMzU5Mzc1IDU4Ljg0NTc3NzUsMjUuMzc4OTA2IDU4Ljg0NTc3NzUsMjUuMzk4NDM4IEM1OC44NDE4NzE1LDI1LjQ0OTIxOSA1OC44MzQwNTg1LDI1LjUgNTguODIyMzM5NSwyNS41NTA3ODEgQzU4LjgyMjMzOTUsMjUuNTY2NDA2IDU4LjgxODQzMzUsMjUuNTgyMDMxIDU4LjgxNDUyNzUsMjUuNTk3NjU2IEM1OC43OTEwODk1LDI1LjczNDM3NSA1OC43NTIwMjc1LDI1Ljg2MzI4MSA1OC43MDEyNDY1LDI1Ljk5MjE4OCBDNTguNjk3MzM5NSwyNS45OTYwOTQgNTguNjk3MzM5NSwyNiA1OC42OTczMzk1LDI2LjAwMzkwNiBDNTguNjY5OTk2NSwyNi4wNjI1IDU4LjY0MjY1MjUsMjYuMTI1IDU4LjYxMTQwMjUsMjYuMTc5Njg4IEM1OC42MDc0OTY1LDI2LjE4NzUgNTguNjA3NDk2NSwyNi4xOTE0MDYgNTguNjAzNTg5NSwyNi4xOTUzMTIgQzU4LjUzNzE4MzUsMjYuMzIwMzEyIDU4LjQ1OTA1ODUsMjYuNDQxNDA2IDU4LjM2MTQwMjUsMjYuNTU0Njg4IEM1OC4zMTQ1Mjc1LDI2LjYxMzI4MSA1OC4yNjM3NDY1LDI2LjY2Nzk2OSA1OC4yMTI5NjU1LDI2LjcyMjY1NiBDNTguMjA5MDU4NSwyNi43MjI2NTYgNTguMjA5MDU4NSwyNi43MjI2NTYgNTguMjA5MDU4NSwyNi43MjY1NjIgQzU4LjEwMzU4OTUsMjYuODMyMDMxIDU3Ljk4NjQwMjUsMjYuOTI5Njg4IDU3Ljg2NTMwODUsMjcuMDE5NTMxIEM1Ny44NjE0MDI1LDI3LjAyMzQzOCA1Ny44NTc0OTY1LDI3LjAyMzQzOCA1Ny44NTc0OTY1LDI3LjAyNzM0NCBDNTcuNzk4OTAyNSwyNy4wNjY0MDYgNTcuNzQwMzA4NSwyNy4xMDkzNzUgNTcuNjgxNzE1NSwyNy4xNDQ1MzEgQzU3LjY3MzkwMjUsMjcuMTUyMzQ0IDU3LjY2NjA4OTUsMjcuMTU2MjUgNTcuNjU4Mjc3NSwyNy4xNjAxNTYgQzU3LjU1NjcxNTUsMjcuMjIyNjU2IDU3LjQ0NzMzOTUsMjcuMjg1MTU2IDU3LjMzNzk2NTUsMjcuMzM5ODQ0IEM1Ny4yOTg5MDI1LDI3LjM1OTM3NSA1Ny4yNTk4Mzk1LDI3LjM3ODkwNiA1Ny4yMTY4NzE1LDI3LjM5ODQzOCBDNTcuMTczOTAyNSwyNy40MTc5NjkgNTcuMTI3MDI3NSwyNy40NDE0MDYgNTcuMDgwMTUyNSwyNy40NjA5MzggQzU3LjA0MTA4OTUsMjcuNDc2NTYyIDU3LjAwNTkzMzUsMjcuNDkyMTg4IDU2Ljk2Njg3MTUsMjcuNTA3ODEyIEM1Ni44NjE0MDI1LDI3LjU0Njg3NSA1Ni43NTk4Mzk1LDI3LjU4NTkzOCA1Ni42NTQzNzE1LDI3LjYyMTA5NCBDNTYuNjM4NzQ2NSwyNy42MjUgNTYuNjIzMTIxNSwyNy42Mjg5MDYgNTYuNjA3NDk2NSwyNy42MzY3MTkgQzU2LjU0NDk5NjUsMjcuNjU2MjUgNTYuNDgyNDk2NSwyNy42NzE4NzUgNTYuNDE5OTk2NSwyNy42OTE0MDYgQzU2LjQwNDM3MTUsMjcuNjk1MzEyIDU2LjM4NDgzOTUsMjcuNzAzMTI1IDU2LjM2OTIxNTUsMjcuNzA3MDMxIEM1Ni4xNjIxODM1LDI3Ljc2MTcxOSA1NS45NTkwNTg1LDI3LjgwNDY4OCA1NS43Njc2NTI1LDI3LjgzNTkzOCBDNTUuNzYzNzQ2NSwyNy44MzU5MzggNTUuNzU5ODM5NSwyNy44MzU5MzggNTUuNzU1OTMzNSwyNy44MzU5MzggQzU1LjY1ODI3NzUsMjcuODUxNTYyIDU1LjU2NDUyNzUsMjcuODYzMjgxIDU1LjQ3NDY4MzUsMjcuODc1IEM1NS40Mzk1Mjc1LDI3Ljg3ODkwNiA1NS40MDgyNzc1LDI3Ljg4MjgxMiA1NS4zNzMxMjE1LDI3Ljg4MjgxMiBDNTUuMzQxODcxNSwyNy44ODY3MTkgNTUuMzEwNjIxNSwyNy44ODY3MTkgNTUuMjc1NDY1NSwyNy44OTA2MjUgQzU1LjIwMTI0NjUsMjcuODk0NTMxIDU1LjEyMzEyMTUsMjcuODk4NDM4IDU1LjA1MjgwODUsMjcuODk4NDM4IEM1NC45MDgyNzc1LDI3Ljg5ODQzOCA1NC43Njc2NTI1LDI3Ljg5NDUzMSA1NC42MzA5MzM1LDI3Ljg4NjcxOSBDNTQuNTc2MjQ2NSwyNy44ODY3MTkgNTQuNTIxNTU4NSwyNy44ODI4MTIgNTQuNDY2ODcxNSwyNy44Nzg5MDYgQzU0LjM5MjY1MjUsMjcuODcxMDk0IDU0LjMxNDUyNzUsMjcuODY3MTg4IDU0LjI0NDIxNTUsMjcuODU5Mzc1IEM1NC4xNzc4MDg1LDI3Ljg1NTQ2OSA1NC4xMDc0OTY1LDI3Ljg0NzY1NiA1NC4wNDQ5OTY1LDI3LjgzOTg0NCBDNTMuOTg2NDAyNSwyNy44MzIwMzEgNTMuOTMxNzE1NSwyNy44MjQyMTkgNTMuODc3MDI3NSwyNy44MTY0MDYgQzUzLjc1NTkzMzUsMjcuNzk2ODc1IDUzLjY0MjY1MjUsMjcuNzgxMjUgNTMuNTI5MzcxNSwyNy43NTc4MTIgQzUzLjQ3ODU4OTUsMjcuNzQ2MDk0IDUzLjQyMzkwMjUsMjcuNzM4MjgxIDUzLjM3MzEyMTUsMjcuNzI2NTYyIEM1My4zMTQ1Mjc1LDI3LjcxMDkzOCA1My4yNTU5MzM1LDI3LjY5OTIxOSA1My4xOTczMzk1LDI3LjY4MzU5NCBDNTMuMTMwOTMzNSwyNy42Njc5NjkgNTMuMDY4NDMzNSwyNy42NTIzNDQgNTMuMDA1OTMzNSwyNy42MzI4MTIgQzUyLjk2Mjk2NTUsMjcuNjIxMDk0IDUyLjkxNjA4OTUsMjcuNjA5Mzc1IDUyLjg3NzAyNzUsMjcuNTk3NjU2IEM1Mi43NzE1NTg1LDI3LjU2NjQwNiA1Mi42NjYwODk1LDI3LjUzMTI1IDUyLjU2NDUyNzUsMjcuNDkyMTg4IEM1Mi41NDEwODk1LDI3LjQ4NDM3NSA1Mi41MTc2NTI1LDI3LjQ3NjU2MiA1Mi40OTQyMTU1LDI3LjQ2ODc1IEM1Mi4yNjc2NTI1LDI3LjM4MjgxMiA1Mi4wNDQ5OTY1LDI3LjI4OTA2MiA1MS44MjYyNDY1LDI3LjE3OTY4OCBDNTEuODE4NDMzNSwyNy4xNzU3ODEgNTEuODA2NzE1NSwyNy4xNjc5NjkgNTEuNzk0OTk2NSwyNy4xNjQwNjIgQzUxLjY1NDM3MTUsMjcuMDkzNzUgNTEuNDE2MDg5NSwyNi45NjA5MzggNTEuMTg5NTI3NSwyNi44MzIwMzEgQzUxLjE2OTk5NjUsMjYuODIwMzEyIDUxLjE0NjU1ODUsMjYuODA4NTk0IDUxLjEyNzAyNzUsMjYuNzk2ODc1IEM1MC45NjY4NzE1LDI2LjcwMzEyNSA1MC44MzAxNTI1LDI2LjYyNSA1MC43MDEyNDY1LDI2LjU2MjUgQzUwLjY4OTUyNzUsMjYuNTU0Njg4IDUwLjY4MTcxNTUsMjYuNTUwNzgxIDUwLjY3MzkwMjUsMjYuNTQ2ODc1IEM1MC42NjYwODk1LDI2LjU0Mjk2OSA1MC42NTgyNzc1LDI2LjUzOTA2MiA1MC42NTQzNzE1LDI2LjUzOTA2MiBDNTAuNjE5MjE1NSwyNi41MjM0MzggNTAuNTkxODcxNSwyNi41MDc4MTIgNTAuNTYwNjIxNSwyNi40OTYwOTQgQzUwLjU0ODkwMjUsMjYuNDkyMTg4IDUwLjU0MTA4OTUsMjYuNDg4MjgxIDUwLjUzMzI3NzUsMjYuNDg0Mzc1IEM1MC40NTEyNDY1LDI2LjQ1MzEyNSA1MC4zNzcwMjc1LDI2LjQyOTY4OCA1MC4zMDI4MDg1LDI2LjQyMTg3NSBDNTAuMjc5MzcxNSwyNi40MTc5NjkgNTAuMjU1OTMzNSwyNi40MTc5NjkgNTAuMjMyNDk2NSwyNi40MTc5NjkgQzUwLjIyNDY4MzUsMjYuNDE0MDYyIDUwLjIxNjg3MTUsMjYuNDE0MDYyIDUwLjIwOTA1ODUsMjYuNDE0MDYyIEM1MC4wNjA2MjE1LDI2LjQxNDA2MiA0OS45MzE3MTU1LDI2LjQ2NDg0NCA0OS44MTA2MjE1LDI2LjU3ODEyNSBDNDkuNzgzMjc3NSwyNi42MDE1NjIgNDkuNzU5ODM5NSwyNi42MjUgNDkuNzM2NDAyNSwyNi42NTIzNDQgQzQ5LjczMjQ5NjUsMjYuNjYwMTU2IDQ5LjcyNDY4MzUsMjYuNjY3OTY5IDQ5LjcxNjg3MTUsMjYuNjc1NzgxIEM0OS43MDEyNDY1LDI2LjY5NTMxMiA0OS42ODk1Mjc1LDI2LjcxMDkzOCA0OS42Nzc4MDg1LDI2LjcyNjU2MiBDNDkuNjY5OTk2NSwyNi43MzgyODEgNDkuNjYyMTgzNSwyNi43NSA0OS42NTgyNzc1LDI2Ljc1NzgxMiBDNDkuNjQ2NTU4NSwyNi43NzM0MzggNDkuNjM0ODM5NSwyNi43ODkwNjIgNDkuNjI3MDI3NSwyNi44MDQ2ODggQzQ5LjYxOTIxNTUsMjYuODE2NDA2IDQ5LjYxNTMwODUsMjYuODI4MTI1IDQ5LjYxMTQwMjUsMjYuODM5ODQ0IEM0OS42MDM1ODk1LDI2Ljg1NTQ2OSA0OS41OTU3Nzc1LDI2Ljg3MTA5NCA0OS41ODc5NjU1LDI2Ljg4NjcxOSBDNDkuNTg0MDU4NSwyNi44OTg0MzggNDkuNTgwMTUyNSwyNi45MDYyNSA0OS41NzYyNDY1LDI2LjkxNzk2OSBDNDkuNTY4NDMzNSwyNi45Mzc1IDQ5LjU2NDUyNzUsMjYuOTUzMTI1IDQ5LjU2MDYyMTUsMjYuOTY4NzUgQzQ5LjU1NjcxNTUsMjYuOTgwNDY5IDQ5LjU1MjgwODUsMjYuOTg4MjgxIDQ5LjU1MjgwODUsMjcgQzQ5LjU0ODkwMjUsMjcuMDE5NTMxIDQ5LjU0NDk5NjUsMjcuMDM5MDYyIDQ5LjU0MTA4OTUsMjcuMDU4NTk0IEM0OS41NDEwODk1LDI3LjA2NjQwNiA0OS41MzcxODM1LDI3LjA3NDIxOSA0OS41MzcxODM1LDI3LjA4MjAzMSBDNDkuNTMzMjc3NSwyNy4xMDkzNzUgNDkuNTMzMjc3NSwyNy4xMzI4MTIgNDkuNTMzMjc3NSwyNy4xNTYyNSBDNDkuNTMzMjc3NSwyNy4xNjAxNTYgNDkuNTMzMjc3NSwyNy4xNjQwNjIgNDkuNTMzMjc3NSwyNy4xNjc5NjkgQzQ5LjUzMzI3NzUsMjcuMTk5MjE5IDQ5LjUzNzE4MzUsMjcuMjI2NTYyIDQ5LjU0NDk5NjUsMjcuMjU3ODEyIEM0OS41NDQ5OTY1LDI3LjI2MTcxOSA0OS41NDQ5OTY1LDI3LjI2OTUzMSA0OS41NDQ5OTY1LDI3LjI3MzQzOCBDNDkuNTUyODA4NSwyNy4yOTY4NzUgNDkuNTU2NzE1NSwyNy4zMjQyMTkgNDkuNTY0NTI3NSwyNy4zNDc2NTYgQzQ5LjU2ODQzMzUsMjcuMzU5Mzc1IDQ5LjU3MjMzOTUsMjcuMzcxMDk0IDQ5LjU3NjI0NjUsMjcuMzgyODEyIEM0OS41ODQwNTg1LDI3LjQwMjM0NCA0OS41ODc5NjU1LDI3LjQyNTc4MSA0OS41OTk2ODM1LDI3LjQ0NTMxMiBDNDkuNjAzNTg5NSwyNy40NTcwMzEgNDkuNjA3NDk2NSwyNy40NjQ4NDQgNDkuNjExNDAyNSwyNy40NzI2NTYgQzQ5LjY2MjE4MzUsMjcuNTg5ODQ0IDQ5Ljc0NDIxNTUsMjcuNzEwOTM4IDQ5Ljg0OTY4MzUsMjcuODI4MTI1IEM0OS45NjI5NjU1LDI3Ljk1MzEyNSA1MC4xMDc0OTY1LDI4LjA3ODEyNSA1MC4yNzU0NjU1LDI4LjIwNzAzMSBDNTAuMjc5MzcxNSwyOC4yMDcwMzEgNTAuMjc5MzcxNSwyOC4yMDcwMzEgNTAuMjc5MzcxNSwyOC4yMTA5MzggQzUwLjMyNjI0NjUsMjguMjQyMTg4IDUwLjM3MzEyMTUsMjguMjc3MzQ0IDUwLjQyMzkwMjUsMjguMzEyNSBDNTAuNDM1NjIxNSwyOC4zMjAzMTIgNTAuNDQzNDMzNSwyOC4zMjgxMjUgNTAuNDU1MTUyNSwyOC4zMzIwMzEgQzUwLjU5MTg3MTUsMjguNDI1NzgxIDUwLjczNjQwMjUsMjguNTE1NjI1IDUwLjkwMDQ2NTUsMjguNjA5Mzc1IEM1MC45Mzk1Mjc1LDI4LjYzMjgxMiA1MC45Nzg1ODk1LDI4LjY1NjI1IDUxLjAxNzY1MjUsMjguNjc1NzgxIEM1MS4wNTY3MTU1LDI4LjY5OTIxOSA1MS4wOTU3Nzc1LDI4LjcxODc1IDUxLjEzNDgzOTUsMjguNzM4MjgxIEM1MS4xODE3MTU1LDI4Ljc2NTYyNSA1MS4yMzY0MDI1LDI4Ljc5Mjk2OSA1MS4yODcxODM1LDI4LjgyMDMxMiBDNTEuMzIyMzM5NSwyOC44MzU5MzggNTEuMzUzNTg5NSwyOC44NTU0NjkgNTEuMzg4NzQ2NSwyOC44NzEwOTQgQzUxLjQ2Njg3MTUsMjguOTEwMTU2IDUxLjU0ODkwMjUsMjguOTQ5MjE5IDUxLjYzMDkzMzUsMjguOTg4MjgxIEM1MS42NDI2NTI1LDI4Ljk5NjA5NCA1MS42NTA0NjU1LDI5IDUxLjY2MjE4MzUsMjkuMDAzOTA2IEM1MS43NTIwMjc1LDI5LjA0Njg3NSA1MS44NDE4NzE1LDI5LjA4NTkzOCA1MS45MzE3MTU1LDI5LjEyMTA5NCBDNTEuOTcwNzc3NSwyOS4xMzY3MTkgNTIuMDA1OTMzNSwyOS4xNTIzNDQgNTIuMDQ0OTk2NSwyOS4xNjc5NjkgQzUyLjA1MjgwODUsMjkuMTcxODc1IDUyLjA2MDYyMTUsMjkuMTc1NzgxIDUyLjA2ODQzMzUsMjkuMTc1NzgxIEM1Mi45MDQzNzE1LDI5LjUwMzkwNiA1My45MzU2MjE1LDI5LjcyMjY1NiA1NC44NDU3Nzc1LDI5Ljc2MTcxOSBDNTQuOTEyMTgzNSwyOS43NjU2MjUgNTQuOTgyNDk2NSwyOS43Njk1MzEgNTUuMDQ4OTAyNSwyOS43Njk1MzEgTDU1LjA1MjgwODUsMjkuNzY5NTMxIEM1NS4wODQwNTg1LDI5Ljc2OTUzMSA1NS4xMTE0MDI1LDI5Ljc2OTUzMSA1NS4xNDI2NTI1LDI5Ljc2NTYyNSBDNTUuMjEyOTY1NSwyOS43NjU2MjUgNTUuMjgzMjc3NSwyOS43NjU2MjUgNTUuMzUzNTg5NSwyOS43NjU2MjUgQzU1LjM2MTQwMjUsMjkuNzY1NjI1IDU1LjM2OTIxNTUsMjkuNzY1NjI1IDU1LjM3NzAyNzUsMjkuNzYxNzE5IEM1Ni44NTc0OTY1LDI5LjcxNDg0NCA1OC4wNzIzMzk1LDI5LjMzMjAzMSA1OS4xMDc0OTY1LDI4LjU3NDIxOSBDNTkuMTA3NDk2NSwyOC41NzAzMTIgNTkuMTA3NDk2NSwyOC41NzAzMTIgNTkuMTA3NDk2NSwyOC41NzAzMTIgQzYwLjI1NTkzMzUsMjcuNzAzMTI1IDYwLjg4ODc0NjUsMjYuNDgwNDY5IDYwLjg4ODc0NjUsMjUuMTMyODEyIEM2MC44ODg3NDY1LDI1LjA0Njg3NSA2MC44ODQ4Mzk1LDI0Ljk2MDkzOCA2MC44ODA5MzM1LDI0Ljg3ODkwNiBDNjAuODgwOTMzNSwyNC44NDc2NTYgNjAuODc3MDI3NSwyNC44MTY0MDYgNjAuODc3MDI3NSwyNC43ODkwNjIiLz4mI3hhOyAgICAgICAgICAgIDxwYXRoIGlkPSJQYXRoMTAiIGQ9Ik03MC40Mjc4MDg1LDEzLjU4MjAzMSBDNzAuNDIzOTAyNSwxMy41ODIwMzEgNzAuNDE5OTk2NSwxMy41ODIwMzEgNzAuNDE2MDg5NSwxMy41ODIwMzEgQzY4LjU5NTc3NzUsMTMuNTgyMDMxIDY2Ljg3NzAyNzUsMTQuMzI0MjE5IDY1LjYzNDgzOTUsMTUuNjM2NzE5IEw2NS42MzQ4Mzk1LDE0LjUxOTUzMSBDNjUuNjM0ODM5NSwxNC4wMDM5MDYgNjUuMjM2NDAyNSwxMy41ODIwMzEgNjQuNzMyNDk2NSwxMy41ODIwMzEgQzY0LjY5NzMzOTUsMTMuNTgyMDMxIDY0LjY2NjA4OTUsMTMuNTg1OTM4IDY0LjYzNDgzOTUsMTMuNTg1OTM4IEM2NC40MTIxODM1LDEzLjYwOTM3NSA2NC4yMTY4NzE1LDEzLjcwNzAzMSA2NC4wNzIzMzk1LDEzLjg1MTU2MiBDNjQuMDY4NDMzNSwxMy44NTE1NjIgNjQuMDY4NDMzNSwxMy44NTE1NjIgNjQuMDY0NTI3NSwxMy44NTU0NjkgQzY0LjA1MjgwODUsMTMuODcxMDk0IDY0LjAzNzE4MzUsMTMuODg2NzE5IDY0LjAyNTQ2NTUsMTMuOTAyMzQ0IEM2NC4wMTc2NTI1LDEzLjkwNjI1IDY0LjAwOTgzOTUsMTMuOTE0MDYyIDY0LjAwNTkzMzUsMTMuOTIxODc1IEM2My45OTQyMTU1LDEzLjkzMzU5NCA2My45ODY0MDI1LDEzLjk0NTMxMiA2My45Nzg1ODk1LDEzLjk1NzAzMSBDNjMuOTcwNzc3NSwxMy45Njg3NSA2My45NjI5NjU1LDEzLjk4MDQ2OSA2My45NTEyNDY1LDEzLjk5MjE4OCBDNjMuOTQ3MzM5NSwxNCA2My45NDM0MzM1LDE0LjAwNzgxMiA2My45Mzk1Mjc1LDE0LjAxNTYyNSBDNjMuOTI3ODA4NSwxNC4wMzUxNTYgNjMuOTE2MDg5NSwxNC4wNTQ2ODggNjMuOTA0MzcxNSwxNC4wNzAzMTIgQzYzLjkwNDM3MTUsMTQuMDc0MjE5IDYzLjkwNDM3MTUsMTQuMDc4MTI1IDYzLjkwMDQ2NTUsMTQuMDgyMDMxIEM2My44ODg3NDY1LDE0LjEwNTQ2OSA2My44NzcwMjc1LDE0LjEyODkwNiA2My44NjUzMDg1LDE0LjE1MjM0NCBDNjMuODQ1Nzc3NSwxNC4yMTA5MzggNjMuODI2MjQ2NSwxNC4yNjk1MzEgNjMuODE0NTI3NSwxNC4zMjgxMjUgQzYzLjgxNDUyNzUsMTQuMzMyMDMxIDYzLjgxNDUyNzUsMTQuMzM1OTM4IDYzLjgxMDYyMTUsMTQuMzM1OTM4IEM2My44MDY3MTU1LDE0LjM2NzE4OCA2My44MDI4MDg1LDE0LjM5NDUzMSA2My43OTg5MDI1LDE0LjQyMTg3NSBDNjMuNzk4OTAyNSwxNC40NTMxMjUgNjMuNzk0OTk2NSwxNC40ODQzNzUgNjMuNzk0OTk2NSwxNC41MTk1MzEgTDYzLjc5NDk5NjUsMjkuMDI3MzQ0IEw2My43ODMyNzc1LDI5LjA4OTg0NCBMNjMuODMwMTUyNSwyOS4xMjg5MDYgQzYzLjgzMDE1MjUsMjkuMTQ4NDM4IDYzLjgzNDA1ODUsMjkuMTc1NzgxIDYzLjg0NTc3NzUsMjkuMjAzMTI1IEM2My44NDU3Nzc1LDI5LjIwNzAzMSA2My44NDk2ODM1LDI5LjIxNDg0NCA2My44NDk2ODM1LDI5LjIxODc1IEM2My44NTc0OTY1LDI5LjIzODI4MSA2My44NjkyMTU1LDI5LjI2MTcxOSA2My44ODg3NDY1LDI5LjI4MTI1IEM2NC4wMDk4Mzk1LDI5LjUxMTcxOSA2NC4yMzI0OTY1LDI5LjY4NzUgNjQuNDk0MjE1NSwyOS43NjU2MjUgTDY0LjUxMzc0NjUsMjkuNzY5NTMxIEw2NC43MzI0OTY1LDI5Ljc2OTUzMSBDNjQuNzY3NjUyNSwyOS43Njk1MzEgNjQuODAyODA4NSwyOS43Njk1MzEgNjQuODM3OTY1NSwyOS43NjU2MjUgQzY0Ljg2MTQwMjUsMjkuNzYxNzE5IDY0Ljg4NDgzOTUsMjkuNzUzOTA2IDY0LjkwODI3NzUsMjkuNzUgQzY0LjkxOTk5NjUsMjkuNzUgNjQuOTI3ODA4NSwyOS43NSA2NC45Mzk1Mjc1LDI5Ljc0NjA5NCBDNjQuOTcwNzc3NSwyOS43MzgyODEgNjUuMDAyMDI3NSwyOS43MzA0NjkgNjUuMDMzMjc3NSwyOS43MTg3NSBDNjUuMDMzMjc3NSwyOS43MTg3NSA2NS4wMzMyNzc1LDI5LjcxODc1IDY1LjAzNzE4MzUsMjkuNzE4NzUgQzY1LjIwMTI0NjUsMjkuNjYwMTU2IDY1LjM0MTg3MTUsMjkuNTU4NTk0IDY1LjQzNTYyMTUsMjkuNDIxODc1IEM2NS40Mzk1Mjc1LDI5LjQxNzk2OSA2NS40NDM0MzM1LDI5LjQxNDA2MiA2NS40NDczMzk1LDI5LjQxMDE1NiBDNjUuNTA5ODM5NSwyOS4zNDM3NSA2NS41NDQ5OTY1LDI5LjI3MzQzOCA2NS41ODAxNTI1LDI5LjE3NTc4MSBDNjUuNTg0MDU4NSwyOS4xNjQwNjIgNjUuNTg3OTY1NSwyOS4xNTYyNSA2NS41ODc5NjU1LDI5LjE0ODQzOCBDNjUuNTkxODcxNSwyOS4xNDQ1MzEgNjUuNTkxODcxNSwyOS4xNDQ1MzEgNjUuNTkxODcxNSwyOS4xNDA2MjUgQzY1LjYwNzQ5NjUsMjkuMDkzNzUgNjUuNjE5MjE1NSwyOS4wNDY4NzUgNjUuNjMwOTMzNSwyOSBMNjUuNjM0ODM5NSwyOC45ODQzNzUgTDY1LjYzNDgzOTUsMjAuMjAzMTI1IEM2NS42OTczMzk1LDE3LjU4NTkzOCA2Ny44Mzc5NjU1LDE1LjQ1NzAzMSA3MC40MDgyNzc1LDE1LjQ1MzEyNSBDNzAuNDEyMTgzNSwxNS40NTMxMjUgNzAuNDEyMTgzNSwxNS40NTMxMjUgNzAuNDE2MDg5NSwxNS40NTMxMjUgQzczLjAzMzI3NzUsMTUuNDUzMTI1IDc1LjE2MjE4MzUsMTcuNTgyMDMxIDc1LjE2MjE4MzUsMjAuMTk5MjE5IEw3NS4xNjIxODM1LDI4LjgzMjAzMSBDNzUuMTYyMTgzNSwyOC44NjcxODggNzUuMTY2MDg5NSwyOC44OTg0MzggNzUuMTY5OTk2NSwyOC45Mjk2ODggQzc1LjE4OTUyNzUsMjkuMTU2MjUgNzUuMjg3MTgzNSwyOS4zNTE1NjIgNzUuNDMxNzE1NSwyOS40OTYwOTQgQzc1LjQzMTcxNTUsMjkuNDk2MDk0IDc1LjQzNTYyMTUsMjkuNDk2MDk0IDc1LjQzNTYyMTUsMjkuNSBDNzUuNDUxMjQ2NSwyOS41MTU2MjUgNzUuNDY2ODcxNSwyOS41MjczNDQgNzUuNDgyNDk2NSwyOS41NDI5NjkgQzc1LjQ5MDMwODUsMjkuNTUwNzgxIDc1LjQ5NDIxNTUsMjkuNTU0Njg4IDc1LjUwMjAyNzUsMjkuNTU4NTk0IEM3NS41MTM3NDY1LDI5LjU3MDMxMiA3NS41MjU0NjU1LDI5LjU3ODEyNSA3NS41MzcxODM1LDI5LjU4NTkzOCBDNzUuNTQ4OTAyNSwyOS41OTc2NTYgNzUuNTYwNjIxNSwyOS42MDU0NjkgNzUuNTcyMzM5NSwyOS42MTMyODEgQzc1LjU4NDA1ODUsMjkuNjE3MTg4IDc1LjU5MTg3MTUsMjkuNjIxMDk0IDc1LjU5OTY4MzUsMjkuNjI4OTA2IEM3NS42MTUzMDg1LDI5LjY0MDYyNSA3NS42MzQ4Mzk1LDI5LjY0ODQzOCA3NS42NTA0NjU1LDI5LjY2MDE1NiBDNzUuNjU0MzcxNSwyOS42NjAxNTYgNzUuNjU4Mjc3NSwyOS42NjQwNjIgNzUuNjY2MDg5NSwyOS42NjQwNjIgQzc1LjY4NTYyMTUsMjkuNjc1NzgxIDc1LjcwOTA1ODUsMjkuNjg3NSA3NS43MzI0OTY1LDI5LjY5OTIxOSBDNzUuNzMyNDk2NSwyOS42OTkyMTkgNzUuNzM2NDAyNSwyOS42OTkyMTkgNzUuNzM2NDAyNSwyOS42OTkyMTkgQzc1Ljc5MTA4OTUsMjkuNzIyNjU2IDc1Ljg0OTY4MzUsMjkuNzM4MjgxIDc1LjkwODI3NzUsMjkuNzUgQzc1LjkxNjA4OTUsMjkuNzUgNzUuOTE5OTk2NSwyOS43NTM5MDYgNzUuOTIzOTAyNSwyOS43NTM5MDYgQzc1Ljk1MTI0NjUsMjkuNzU3ODEyIDc1Ljk3NDY4MzUsMjkuNzYxNzE5IDc2LjAwMjAyNzUsMjkuNzY1NjI1IEM3Ni4wMzMyNzc1LDI5Ljc2OTUzMSA3Ni4wNjQ1Mjc1LDI5Ljc2OTUzMSA3Ni4wOTk2ODM1LDI5Ljc2OTUzMSBDNzYuMTMwOTMzNSwyOS43Njk1MzEgNzYuMTYyMTgzNSwyOS43Njk1MzEgNzYuMTkzNDMzNSwyOS43NjU2MjUgQzc2LjIyMDc3NzUsMjkuNzYxNzE5IDc2LjI0ODEyMTUsMjkuNzU3ODEyIDc2LjI3MTU1ODUsMjkuNzUzOTA2IEM3Ni4yNzU0NjU1LDI5Ljc1MzkwNiA3Ni4yODMyNzc1LDI5Ljc1IDc2LjI4NzE4MzUsMjkuNzUgQzc2LjM0OTY4MzUsMjkuNzM4MjgxIDc2LjQwNDM3MTUsMjkuNzIyNjU2IDc2LjQ2Mjk2NTUsMjkuNjk5MjE5IEM3Ni40ODY0MDI1LDI5LjY4NzUgNzYuNTA5ODM5NSwyOS42NzU3ODEgNzYuNTMzMjc3NSwyOS42NjQwNjIgQzc2LjUzNzE4MzUsMjkuNjY0MDYyIDc2LjU0MTA4OTUsMjkuNjYwMTU2IDc2LjU0NDk5NjUsMjkuNjYwMTU2IEM3Ni41NjQ1Mjc1LDI5LjY0ODQzOCA3Ni41ODAxNTI1LDI5LjY0MDYyNSA3Ni41OTk2ODM1LDI5LjYyODkwNiBDNzYuNjA3NDk2NSwyOS42MjEwOTQgNzYuNjE1MzA4NSwyOS42MTcxODggNzYuNjIzMTIxNSwyOS42MTMyODEgQzc2LjYzNDgzOTUsMjkuNjA1NDY5IDc2LjY0NjU1ODUsMjkuNTk3NjU2IDc2LjY1ODI3NzUsMjkuNTg1OTM4IEM3Ni42Njk5OTY1LDI5LjU3ODEyNSA3Ni42ODU2MjE1LDI5LjU3MDMxMiA3Ni42OTczMzk1LDI5LjU1ODU5NCBDNzYuNzAxMjQ2NSwyOS41NTQ2ODggNzYuNzA5MDU4NSwyOS41NTA3ODEgNzYuNzEyOTY1NSwyOS41NDI5NjkgQzc2LjcyODU4OTUsMjkuNTI3MzQ0IDc2Ljc0ODEyMTUsMjkuNTE1NjI1IDc2Ljc2Mzc0NjUsMjkuNSBDNzYuNzYzNzQ2NSwyOS40OTYwOTQgNzYuNzYzNzQ2NSwyOS40OTYwOTQgNzYuNzYzNzQ2NSwyOS40OTYwOTQgQzc2LjkxMjE4MzUsMjkuMzUxNTYyIDc3LjAwOTgzOTUsMjkuMTU2MjUgNzcuMDI5MzcxNSwyOC45Mjk2ODggQzc3LjAzMzI3NzUsMjguODk4NDM4IDc3LjAzMzI3NzUsMjguODY3MTg4IDc3LjAzMzI3NzUsMjguODMyMDMxIEw3Ny4wMzMyNzc1LDIwLjE5OTIxOSBDNzcuMDMzMjc3NSwxNi41NTQ2ODggNzQuMDcyMzM5NSwxMy41ODk4NDQgNzAuNDI3ODA4NSwxMy41ODIwMzEiLz4mI3hhOyAgICAgICAgICAgIDxwYXRoIGlkPSJDb21iaW5lZC1TaGFwZTQiIGQ9Ik04Ny4yNzkzNzE1LDEzLjU1MDc4MSBDOTEuNTIxNTU4NSwxMy41NTA3ODEgOTQuOTcwNzc3NSwxNy4xODc1IDk0Ljk3MDc3NzUsMjEuNjYwMTU2IEM5NC45NzA3Nzc1LDI2LjEzMjgxMiA5MS41MjE1NTg1LDI5Ljc2OTUzMSA4Ny4yNzkzNzE1LDI5Ljc2OTUzMSBDODcuMTQ2NTU4NSwyOS43Njk1MzEgODcuMDE3NjUyNSwyOS43NjU2MjUgODYuODg4NzQ2NSwyOS43NTc4MTIgQzg2Ljg2OTIxNTUsMjkuNzU3ODEyIDg2Ljg1MzU4OTUsMjkuNzU3ODEyIDg2LjgzNDA1ODUsMjkuNzUzOTA2IEM4Ni43MjA3Nzc1LDI5Ljc1IDg2LjYwNzQ5NjUsMjkuNzM4MjgxIDg2LjQ5ODEyMTUsMjkuNzI2NTYyIEM4Ni40OTQyMTU1LDI5LjcyNjU2MiA4Ni40OTAzMDg1LDI5LjcyNjU2MiA4Ni40ODY0MDI1LDI5LjcyNjU2MiBDODQuODEwNjIxNSwyOS41NDI5NjkgODMuMjQ0MjE1NSwyOC43NzczNDQgODEuOTk4MTIxNSwyNy41MjM0MzggQzgxLjk0NzMzOTUsMjcuNDcyNjU2IDgxLjg5MjY1MjUsMjcuNDIxODc1IDgxLjg0NTc3NzUsMjcuMzY3MTg4IEM4MS44NDE4NzE1LDI3LjM2NzE4OCA4MS44NDE4NzE1LDI3LjM2MzI4MSA4MS44Mzc5NjU1LDI3LjM2MzI4MSBDODEuODEwNjIxNSwyNy4zMzU5MzggODEuNzg3MTgzNSwyNy4zMDQ2ODggODEuNzU5ODM5NSwyNy4yNzM0MzggQzgxLjcwMTI0NjUsMjcuMjEwOTM4IDgxLjY0MjY1MjUsMjcuMTQ0NTMxIDgxLjU4NDA1ODUsMjcuMDc4MTI1IEM4MS41MzcxODM1LDI3LjAyNzM0NCA4MS40OTQyMTU1LDI2Ljk2ODc1IDgxLjQ0NzMzOTUsMjYuOTE0MDYyIEM4MS40MTYwODk1LDI2Ljg3MTA5NCA4MS4zODA5MzM1LDI2LjgyODEyNSA4MS4zNDU3Nzc1LDI2Ljc4NTE1NiBDODEuMjc1NDY1NSwyNi42OTkyMTkgODEuMjA5MDU4NSwyNi42MDkzNzUgODEuMTQ2NTU4NSwyNi41MTk1MzEgQzgxLjEzODc0NjUsMjYuNTA3ODEyIDgxLjEzMDkzMzUsMjYuNDk2MDk0IDgxLjEyMzEyMTUsMjYuNDg0Mzc1IEM4MC4zNjE0MDI1LDI1LjQxNzk2OSA3OS44NjUzMDg1LDI0LjE4NzUgNzkuNjc3ODA4NSwyMi44ODI4MTIgQzc5LjY1ODI3NzUsMjIuNzYxNzE5IDc5LjY0NjU1ODUsMjIuNjQwNjI1IDc5LjYzNDgzOTUsMjIuNTE5NTMxIEM3OS42MzA5MzM1LDIyLjUwNzgxMiA3OS42MzA5MzM1LDIyLjQ5MjE4OCA3OS42MjcwMjc1LDIyLjQ3NjU2MiBDNzkuNjE1MzA4NSwyMi4zNjMyODEgNzkuNjA3NDk2NSwyMi4yNTM5MDYgNzkuNjAzNTg5NSwyMi4xNDA2MjUgQzc5LjU5OTY4MzUsMjIuMTE3MTg4IDc5LjU5OTY4MzUsMjIuMDkzNzUgNzkuNTk5NjgzNSwyMi4wNjY0MDYgQzc5LjU5MTg3MTUsMjEuOTMzNTk0IDc5LjU4Nzk2NTUsMjEuNzk2ODc1IDc5LjU4Nzk2NTUsMjEuNjYwMTU2IEM3OS41ODc5NjU1LDIxLjUyMzQzOCA3OS41OTE4NzE1LDIxLjM4NjcxOSA3OS41OTk2ODM1LDIxLjI1MzkwNiBDNzkuNTk5NjgzNSwyMS4yMjY1NjIgNzkuNTk5NjgzNSwyMS4yMDMxMjUgNzkuNjAzNTg5NSwyMS4xNzk2ODggQzc5LjYwNzQ5NjUsMjEuMDY2NDA2IDc5LjYxNTMwODUsMjAuOTUzMTI1IDc5LjYyNzAyNzUsMjAuODQzNzUgQzc5LjYzMDkzMzUsMjAuODI4MTI1IDc5LjYzMDkzMzUsMjAuODEyNSA3OS42MzQ4Mzk1LDIwLjgwMDc4MSBDNzkuNjQ2NTU4NSwyMC42Nzk2ODggNzkuNjU4Mjc3NSwyMC41NTg1OTQgNzkuNjc3ODA4NSwyMC40Mzc1IEM3OS44NjUzMDg1LDE5LjEzMjgxMiA4MC4zNjE0MDI1LDE3LjkwMjM0NCA4MS4xMjMxMjE1LDE2LjgzNTkzOCBDODEuMTI3MDI3NSwxNi44MjQyMTkgODEuMTM0ODM5NSwxNi44MTI1IDgxLjE0MjY1MjUsMTYuODA0Njg4IEM4MS4yMDkwNTg1LDE2LjcxMDkzOCA4MS4yNzU0NjU1LDE2LjYyMTA5NCA4MS4zNDU3Nzc1LDE2LjUzMTI1IEM4MS4zNzcwMjc1LDE2LjQ5MjE4OCA4MS40MTIxODM1LDE2LjQ1MzEyNSA4MS40NDM0MzM1LDE2LjQxMDE1NiBDODEuNDkwMzA4NSwxNi4zNTE1NjIgODEuNTM3MTgzNSwxNi4yOTY4NzUgODEuNTg0MDU4NSwxNi4yMzgyODEgQzgxLjYzODc0NjUsMTYuMTc1NzgxIDgxLjY5MzQzMzUsMTYuMTE3MTg4IDgxLjc1MjAyNzUsMTYuMDU0Njg4IEM4MS43NzkzNzE1LDE2LjAyMzQzOCA4MS44MTA2MjE1LDE1Ljk4ODI4MSA4MS44Mzc5NjU1LDE1Ljk1NzAzMSBDODEuODQxODcxNSwxNS45NTcwMzEgODEuODQxODcxNSwxNS45NTMxMjUgODEuODQ1Nzc3NSwxNS45NTMxMjUgQzgxLjg4ODc0NjUsMTUuOTAyMzQ0IDgxLjkzOTUyNzUsMTUuODU1NDY5IDgxLjk4NjQwMjUsMTUuODA4NTk0IEM4My4yMzI0OTY1LDE0LjU1MDc4MSA4NC44MDI4MDg1LDEzLjc3NzM0NCA4Ni40ODY0MDI1LDEzLjU5Mzc1IEM4Ni40OTAzMDg1LDEzLjU5Mzc1IDg2LjQ5NDIxNTUsMTMuNTkzNzUgODYuNDk4MTIxNSwxMy41OTM3NSBDODYuNjA3NDk2NSwxMy41ODIwMzEgODYuNzIwNzc3NSwxMy41NzQyMTkgODYuODM0MDU4NSwxMy41NjY0MDYgQzg2Ljg1MzU4OTUsMTMuNTY2NDA2IDg2Ljg2OTIxNTUsMTMuNTYyNSA4Ni44ODg3NDY1LDEzLjU2MjUgQzg3LjAxNzY1MjUsMTMuNTU0Njg4IDg3LjE0NjU1ODUsMTMuNTUwNzgxIDg3LjI3OTM3MTUsMTMuNTUwNzgxIFogTTkzLjA2ODQzMzUsMjEuMDIzNDM4IEM5My4wNjg0MzM1LDIxLjAxOTUzMSA5My4wNjg0MzM1LDIxLjAxOTUzMSA5My4wNjg0MzM1LDIxLjAxNTYyNSBDOTIuOTMxNzE1NSwxOS42MDkzNzUgOTIuMzUzNTg5NSwxOC4zMzk4NDQgOTEuNDkwMzA4NSwxNy4zNTkzNzUgQzkxLjQ1MTI0NjUsMTcuMzE2NDA2IDkxLjQxNjA4OTUsMTcuMjczNDM4IDkxLjM3NzAyNzUsMTcuMjMwNDY5IEM5MS4zNTM1ODk1LDE3LjIwNzAzMSA5MS4zMzAxNTI1LDE3LjE4MzU5NCA5MS4zMDY3MTU1LDE3LjE2MDE1NiBDOTEuMjU5ODM5NSwxNy4xMTMyODEgOTEuMjE2ODcxNSwxNy4wNjY0MDYgOTEuMTY5OTk2NSwxNy4wMTk1MzEgQzkxLjEyNzAyNzUsMTYuOTc2NTYyIDkxLjA4MDE1MjUsMTYuOTM3NSA5MS4wMzcxODM1LDE2Ljg5ODQzOCBDOTEuMDA5ODM5NSwxNi44NzUgOTAuOTg2NDAyNSwxNi44NDc2NTYgOTAuOTU5MDU4NSwxNi44MjQyMTkgQzkwLjg4ODc0NjUsMTYuNzYxNzE5IDkwLjgxODQzMzUsMTYuNzAzMTI1IDkwLjc0ODEyMTUsMTYuNjQ0NTMxIEM5MC43NDgxMjE1LDE2LjY0NDUzMSA5MC43NDQyMTU1LDE2LjY0NDUzMSA5MC43NDQyMTU1LDE2LjY0MDYyNSBDODkuOTI3ODA4NSwxNS45ODA0NjkgODguOTQ3MzM5NSwxNS41NDY4NzUgODcuODkyNjUyNSwxNS40MjU3ODEgQzg3Ljg4MDkzMzUsMTUuNDI1NzgxIDg3Ljg3MzEyMTUsMTUuNDIxODc1IDg3Ljg2NTMwODUsMTUuNDIxODc1IEM4Ny43ODMyNzc1LDE1LjQxMDE1NiA4Ny43MDUxNTI1LDE1LjQwNjI1IDg3LjYyMzEyMTUsMTUuNDAyMzQ0IEM4Ny42MDM1ODk1LDE1LjM5ODQzOCA4Ny41ODc5NjU1LDE1LjM5ODQzOCA4Ny41NzIzMzk1LDE1LjM5ODQzOCBDODcuNDc0NjgzNSwxNS4zOTA2MjUgODcuMzc3MDI3NSwxNS4zOTA2MjUgODcuMjc5MzcxNSwxNS4zOTA2MjUgQzg3LjE4MTcxNTUsMTUuMzkwNjI1IDg3LjA4NDA1ODUsMTUuMzkwNjI1IDg2Ljk4NjQwMjUsMTUuMzk4NDM4IEM4Ni45NzA3Nzc1LDE1LjM5ODQzOCA4Ni45NTUxNTI1LDE1LjM5ODQzOCA4Ni45MzU2MjE1LDE1LjQwMjM0NCBDODYuODUzNTg5NSwxNS40MDYyNSA4Ni43NzU0NjU1LDE1LjQxMDE1NiA4Ni42OTM0MzM1LDE1LjQyMTg3NSBDODYuNjg1NjIxNSwxNS40MjE4NzUgODYuNjc3ODA4NSwxNS40MjU3ODEgODYuNjY2MDg5NSwxNS40MjU3ODEgQzg1LjYxMTQwMjUsMTUuNTQ2ODc1IDg0LjYzMDkzMzUsMTUuOTgwNDY5IDgzLjgxNDUyNzUsMTYuNjQwNjI1IEM4My44MTQ1Mjc1LDE2LjY0NDUzMSA4My44MTA2MjE1LDE2LjY0NDUzMSA4My44MTA2MjE1LDE2LjY0NDUzMSBDODMuNzQwMzA4NSwxNi43MDMxMjUgODMuNjY5OTk2NSwxNi43NjE3MTkgODMuNTk5NjgzNSwxNi44MjQyMTkgQzgzLjU3MjMzOTUsMTYuODQ3NjU2IDgzLjU0ODkwMjUsMTYuODcxMDk0IDgzLjUyMTU1ODUsMTYuODk0NTMxIEM4My40Nzg1ODk1LDE2LjkzNzUgODMuNDMxNzE1NSwxNi45NzY1NjIgODMuMzg4NzQ2NSwxNy4wMTk1MzEgQzgzLjM0NTc3NzUsMTcuMDYyNSA4My4zMDI4MDg1LDE3LjEwOTM3NSA4My4yNTU5MzM1LDE3LjE1NjI1IEM4My4yMzI0OTY1LDE3LjE3OTY4OCA4My4yMDkwNTg1LDE3LjIwMzEyNSA4My4xODE3MTU1LDE3LjIzMDQ2OSBDODMuMTQ2NTU4NSwxNy4yNjk1MzEgODMuMTExNDAyNSwxNy4zMTI1IDgzLjA3MjMzOTUsMTcuMzU1NDY5IEM4Mi4yMDkwNTg1LDE4LjMzNTkzOCA4MS42MjcwMjc1LDE5LjYwOTM3NSA4MS40OTAzMDg1LDIxLjAxNTYyNSBDODEuNDkwMzA4NSwyMS4wMTk1MzEgODEuNDkwMzA4NSwyMS4wMTk1MzEgODEuNDkwMzA4NSwyMS4wMjM0MzggQzgxLjQ4MjQ5NjUsMjEuMTEzMjgxIDgxLjQ3NDY4MzUsMjEuMjAzMTI1IDgxLjQ3MDc3NzUsMjEuMjk2ODc1IEM4MS40NzA3Nzc1LDIxLjMxMjUgODEuNDY2ODcxNSwyMS4zMjgxMjUgODEuNDY2ODcxNSwyMS4zNDM3NSBDODEuNDYyOTY1NSwyMS40NDkyMTkgODEuNDU5MDU4NSwyMS41NTQ2ODggODEuNDU5MDU4NSwyMS42NjAxNTYgQzgxLjQ1OTA1ODUsMjUuMDkzNzUgODQuMDk5NjgzNSwyNy44OTg0MzggODcuMjc5MzcxNSwyNy44OTg0MzggQzkwLjQ1OTA1ODUsMjcuODk4NDM4IDkzLjA5OTY4MzUsMjUuMDkzNzUgOTMuMDk5NjgzNSwyMS42NjAxNTYgQzkzLjA5OTY4MzUsMjEuNTU0Njg4IDkzLjA5NTc3NzUsMjEuNDQ5MjE5IDkzLjA5MTg3MTUsMjEuMzQzNzUgQzkzLjA5MTg3MTUsMjEuMzI4MTI1IDkzLjA4Nzk2NTUsMjEuMzEyNSA5My4wODc5NjU1LDIxLjI5Njg3NSBDOTMuMDg0MDU4NSwyMS4yMDMxMjUgOTMuMDc2MjQ2NSwyMS4xMTMyODEgOTMuMDY4NDMzNSwyMS4wMjM0MzggWiIvPiYjeGE7ICAgICAgICAgICAgPHBhdGggaWQ9IlBhdGgxMSIgZD0iTTExNy41NzYyNDYsMTMuOTUzMTI1IEMxMTcuNTY4NDMzLDEzLjk0NTMxMiAxMTcuNTY0NTI3LDEzLjkzNzUgMTE3LjU1NjcxNSwxMy45Mjk2ODggQzExNy40NjI5NjUsMTMuODEyNSAxMTcuMzM3OTY1LDEzLjcxODc1IDExNy4xOTczMzksMTMuNjYwMTU2IEMxMTcuMTk3MzM5LDEzLjY2MDE1NiAxMTcuMTk3MzM5LDEzLjY2MDE1NiAxMTcuMTkzNDMzLDEzLjY2MDE1NiBDMTE3LjE3NzgwOCwxMy42NDg0MzggMTE3LjE1ODI3NywxMy42NDQ1MzEgMTE3LjE0MjY1MiwxMy42MzY3MTkgQzExNy4xMzQ4MzksMTMuNjM2NzE5IDExNy4xMjcwMjcsMTMuNjMyODEyIDExNy4xMTUzMDgsMTMuNjI4OTA2IEMxMTYuOTkwMzA4LDEzLjU4NTkzOCAxMTYuODUzNTg5LDEzLjU3ODEyNSAxMTYuNzIwNzc3LDEzLjU5NzY1NiBDMTE2LjcyMDc3NywxMy41OTc2NTYgMTE2LjcxNjg3MSwxMy41OTc2NTYgMTE2LjcxNjg3MSwxMy41OTc2NTYgQzExNi40NDczMzksMTMuNjQwNjI1IDExNi4xODk1MjcsMTMuODA0Njg4IDExNi4wNDQ5OTYsMTQuMDQ2ODc1IEMxMTYuMDQ0OTk2LDE0LjA0Njg3NSAxMTYuMDQ0OTk2LDE0LjA0Njg3NSAxMTYuMDQxMDg5LDE0LjA0Njg3NSBDMTE2LjAyMTU1OCwxNC4wODU5MzggMTE1Ljk5ODEyMSwxNC4xMjUgMTE1Ljk4MjQ5NiwxNC4xNjQwNjIgTDExNS45Nzg1ODksMTQuMTY3OTY5IEMxMTUuOTc4NTg5LDE0LjE2Nzk2OSAxMTUuOTc4NTg5LDE0LjE3MTg3NSAxMTUuOTc4NTg5LDE0LjE3MTg3NSBMMTExLjUwMjAyNywyNi40MjU3ODEgTDEwNy45ODY0MDIsMTguMDU4NTk0IEMxMDcuOTUxMjQ2LDE3Ljk4MDQ2OSAxMDcuOTA0MzcxLDE3LjkxMDE1NiAxMDcuODQ5NjgzLDE3Ljg0Mzc1IEMxMDcuNjU4Mjc3LDE3LjYyMTA5NCAxMDcuMzY1MzA4LDE3LjQ4MDQ2OSAxMDcuMDY0NTI3LDE3LjQ4MDQ2OSBDMTA3LjAxNzY1MiwxNy40ODA0NjkgMTA2Ljk3NDY4MywxNy40ODA0NjkgMTA2LjkyNzgwOCwxNy40OTIxODggQzEwNi45MjM5MDIsMTcuNDkyMTg4IDEwNi45MTk5OTYsMTcuNDkyMTg4IDEwNi45MTIxODMsMTcuNDkyMTg4IEMxMDYuNTk5NjgzLDE3LjU0Njg3NSAxMDYuMzA2NzE1LDE3Ljc2NTYyNSAxMDYuMTczOTAyLDE4LjA1ODU5NCBDMTA2LjE3MzkwMiwxOC4wNjI1IDEwNi4xNzM5MDIsMTguMDYyNSAxMDYuMTczOTAyLDE4LjA2MjUgTDEwMi42NTgyNzcsMjYuNDI5Njg4IEwxMDAuOTU1MTUyLDIxLjgwMDc4MSBMOTguMTUwNDY1NSwxNC4xNzE4NzUgQzk4LjEzNDgzOTUsMTQuMTI4OTA2IDk4LjExOTIxNTUsMTQuMDkzNzUgOTguMDk5NjgzNSwxNC4wNTQ2ODggQzk4LjA5NTc3NzUsMTQuMDUwNzgxIDk4LjA5NTc3NzUsMTQuMDUwNzgxIDk4LjA5MTg3MTUsMTQuMDQ2ODc1IEM5OC4wMDU5MzM1LDEzLjg4NjcxOSA5Ny44NjkyMTU1LDEzLjc2MTcxOSA5Ny43MDUxNTI1LDEzLjY4MzU5NCBDOTcuNzA1MTUyNSwxMy42ODM1OTQgOTcuNzAxMjQ2NSwxMy42ODM1OTQgOTcuNzAxMjQ2NSwxMy42Nzk2ODggQzk3LjYxOTIxNTUsMTMuNjQ0NTMxIDk3LjUzMzI3NzUsMTMuNjE3MTg4IDk3LjQ0MzQzMzUsMTMuNjAxNTYyIEM5Ny40MzU2MjE1LDEzLjYwMTU2MiA5Ny40MzE3MTU1LDEzLjYwMTU2MiA5Ny40MjM5MDI1LDEzLjU5NzY1NiBDOTcuMzgwOTMzNSwxMy41OTM3NSA5Ny4zMzQwNTg1LDEzLjU4OTg0NCA5Ny4yOTEwODk1LDEzLjU4OTg0NCBDOTcuMjkxMDg5NSwxMy41ODk4NDQgOTcuMjg3MTgzNSwxMy41ODk4NDQgOTcuMjg3MTgzNSwxMy41ODk4NDQgQzk3LjI3NTQ2NTUsMTMuNTg5ODQ0IDk3LjI2NzY1MjUsMTMuNTg5ODQ0IDk3LjI1OTgzOTUsMTMuNTg5ODQ0IEM5Ny4yNDAzMDg1LDEzLjU4OTg0NCA5Ny4yMjA3Nzc1LDEzLjU4OTg0NCA5Ny4yMDEyNDY1LDEzLjU5Mzc1IEM5Ny4xODk1Mjc1LDEzLjU5Mzc1IDk3LjE3MzkwMjUsMTMuNTk3NjU2IDk3LjE2MjE4MzUsMTMuNTk3NjU2IEM5Ny4xNDI2NTI1LDEzLjYwMTU2MiA5Ny4xMjcwMjc1LDEzLjYwMTU2MiA5Ny4xMTE0MDI1LDEzLjYwNTQ2OSBDOTcuMDk5NjgzNSwxMy42MDkzNzUgOTcuMDg3OTY1NSwxMy42MDkzNzUgOTcuMDc2MjQ2NSwxMy42MTMyODEgQzk3LjA1NjcxNTUsMTMuNjE3MTg4IDk3LjAzNzE4MzUsMTMuNjIxMDk0IDk3LjAxNzY1MjUsMTMuNjI4OTA2IEM5Ny4wMDk4Mzk1LDEzLjYzMjgxMiA5Ny4wMDIwMjc1LDEzLjYzMjgxMiA5Ni45OTQyMTU1LDEzLjYzNjcxOSBDOTYuOTc0NjgzNSwxMy42NDQ1MzEgOTYuOTU1MTUyNSwxMy42NDg0MzggOTYuOTM1NjIxNSwxMy42NjAxNTYgQzk2LjkzNTYyMTUsMTMuNjYwMTU2IDk2LjkzNTYyMTUsMTMuNjYwMTU2IDk2LjkzMTcxNTUsMTMuNjYwMTU2IEM5Ni43NzE1NTg1LDEzLjczMDQ2OSA5Ni42NDI2NTI1LDEzLjg1MTU2MiA5Ni41NDg5MDI1LDEzLjk5MjE4OCBDOTYuNTQ0OTk2NSwxNCA5Ni41NDEwODk1LDE0LjAwMzkwNiA5Ni41MzcxODM1LDE0LjAxMTcxOSBDOTYuNTMzMjc3NSwxNC4wMTk1MzEgOTYuNTI5MzcxNSwxNC4wMjczNDQgOTYuNTI1NDY1NSwxNC4wMzUxNTYgQzk2LjQ1NTE1MjUsMTQuMTUyMzQ0IDk2LjQxMjE4MzUsMTQuMjg5MDYyIDk2LjM5NjU1ODUsMTQuNDI1NzgxIEM5Ni4zODA5MzM1LDE0LjU3MDMxMiA5Ni40MDA0NjU1LDE0LjcyMjY1NiA5Ni40NTkwNTg1LDE0Ljg2MzI4MSBMOTkuNzA1MTUyNSwyMy41ODU5MzggTDEwMS43ODcxODMsMjkuMTc5Njg4IEMxMDEuNzg3MTgzLDI5LjE3OTY4OCAxMDEuNzg3MTgzLDI5LjE3OTY4OCAxMDEuNzg3MTgzLDI5LjE4MzU5NCBDMTAxLjg3MzEyMSwyOS4zOTQ1MzEgMTAxLjk5ODEyMSwyOS41MzkwNjIgMTAyLjE2OTk5NiwyOS42MTcxODggQzEwMi4xNzM5MDIsMjkuNjIxMDk0IDEwMi4xODE3MTUsMjkuNjI1IDEwMi4xODU2MjEsMjkuNjI4OTA2IEMxMDIuMTg5NTI3LDI5LjYzMjgxMiAxMDIuMTkzNDMzLDI5LjYzNjcxOSAxMDIuMjAxMjQ2LDI5LjY0MDYyNSBDMTAyLjIwMTI0NiwyOS42NDQ1MzEgMTAyLjIwNTE1MiwyOS42NDQ1MzEgMTAyLjIwOTA1OCwyOS42NDg0MzggQzEwMi4yMTY4NzEsMjkuNjUyMzQ0IDEwMi4yMjA3NzcsMjkuNjU2MjUgMTAyLjIyODU4OSwyOS42NjQwNjIgQzEwMi4yMzI0OTYsMjkuNjY0MDYyIDEwMi4yMzI0OTYsMjkuNjY0MDYyIDEwMi4yMzY0MDIsMjkuNjY0MDYyIEMxMDIuMjY3NjUyLDI5LjY4MzU5NCAxMDIuMzA2NzE1LDI5LjY5OTIxOSAxMDIuMzU3NDk2LDI5LjcwMzEyNSBDMTAyLjM2MTQwMiwyOS43MDMxMjUgMTAyLjM2NTMwOCwyOS43MDcwMzEgMTAyLjM2OTIxNSwyOS43MDcwMzEgQzEwMi4zODQ4MzksMjkuNzEwOTM4IDEwMi40MDA0NjUsMjkuNzE4NzUgMTAyLjQxNjA4OSwyOS43MjI2NTYgQzEwMi40MjM5MDIsMjkuNzIyNjU2IDEwMi40MzE3MTUsMjkuNzI2NTYyIDEwMi40Mzk1MjcsMjkuNzI2NTYyIEMxMDIuNTM3MTgzLDI5Ljc1NzgxMiAxMDIuNTk5NjgzLDI5Ljc2OTUzMSAxMDIuNjc3ODA4LDI5Ljc2OTUzMSBDMTAyLjcyMDc3NywyOS43Njk1MzEgMTAyLjc1OTgzOSwyOS43NjU2MjUgMTAyLjgwMjgwOCwyOS43NTc4MTIgQzEwMi44MzQwNTgsMjkuNzUzOTA2IDEwMi44NjkyMTUsMjkuNzQ2MDk0IDEwMi45MDA0NjUsMjkuNzM0Mzc1IEMxMDIuOTA4Mjc3LDI5LjczMDQ2OSAxMDIuOTE2MDg5LDI5LjczMDQ2OSAxMDIuOTIzOTAyLDI5LjcyNjU2MiBDMTAyLjk1NTE1MiwyOS43MTg3NSAxMDIuOTg2NDAyLDI5LjcwNzAzMSAxMDMuMDE3NjUyLDI5LjY5MTQwNiBDMTAzLjAyOTM3MSwyOS42ODc1IDEwMy4wNDEwODksMjkuNjgzNTk0IDEwMy4wNTI4MDgsMjkuNjc1NzgxIEMxMDMuMDcyMzM5LDI5LjY2NDA2MiAxMDMuMDk1Nzc3LDI5LjY1MjM0NCAxMDMuMTE5MjE1LDI5LjY0MDYyNSBDMTAzLjEzNDgzOSwyOS42Mjg5MDYgMTAzLjE1NDM3MSwyOS42MTcxODggMTAzLjE3MzkwMiwyOS42MDU0NjkgQzEwMy4xODU2MjEsMjkuNTk3NjU2IDEwMy4xOTczMzksMjkuNTg1OTM4IDEwMy4yMDkwNTgsMjkuNTc4MTI1IEMxMDMuMjM2NDAyLDI5LjU1ODU5NCAxMDMuMjU5ODM5LDI5LjUzOTA2MiAxMDMuMjg3MTgzLDI5LjUxNTYyNSBDMTAzLjI5MTA4OSwyOS41MTE3MTkgMTAzLjI5NDk5NiwyOS41MDc4MTIgMTAzLjI5ODkwMiwyOS41IEMxMDMuMzI2MjQ2LDI5LjQ3MjY1NiAxMDMuMzUzNTg5LDI5LjQ0NTMxMiAxMDMuMzgwOTMzLDI5LjQxNDA2MiBDMTAzLjM4MDkzMywyOS40MTAxNTYgMTAzLjM4NDgzOSwyOS40MDYyNSAxMDMuMzg4NzQ2LDI5LjQwMjM0NCBDMTAzLjQxMjE4MywyOS4zNzEwOTQgMTAzLjQzNTYyMSwyOS4zMzU5MzggMTAzLjQ1NTE1MiwyOS4zMDA3ODEgQzEwMy40NzQ2ODMsMjkuMjYxNzE5IDEwMy40OTQyMTUsMjkuMjE4NzUgMTAzLjUwOTgzOSwyOS4xNzU3ODEgTDEwMy41MTM3NDYsMjkuMTY0MDYyIEwxMDMuNTI1NDY1LDI5LjE0ODQzOCBMMTAzLjUzNzE4MywyOS4xMjEwOTQgTDEwNy4wNjQ1MjcsMjAuNjk5MjE5IEwxMTAuNjIzMTIxLDI5LjE1MjM0NCBDMTEwLjY1MDQ2NSwyOS4yMzgyODEgMTEwLjY5MzQzMywyOS4zMTY0MDYgMTEwLjc1MjAyNywyOS4zOTA2MjUgQzExMC43NTk4MzksMjkuNDAyMzQ0IDExMC43Njc2NTIsMjkuNDEwMTU2IDExMC43NzU0NjUsMjkuNDIxODc1IEMxMTAuNzk0OTk2LDI5LjQ0NTMxMiAxMTAuODE0NTI3LDI5LjQ2ODc1IDExMC44Mzc5NjUsMjkuNDkyMTg4IEMxMTAuODQ5NjgzLDI5LjUgMTEwLjg2MTQwMiwyOS41MTE3MTkgMTEwLjg3MzEyMSwyOS41MTk1MzEgQzExMC44OTI2NTIsMjkuNTM5MDYyIDExMC45MTYwODksMjkuNTU4NTk0IDExMC45Mzk1MjcsMjkuNTc4MTI1IEMxMTAuOTUxMjQ2LDI5LjU4NTkzOCAxMTAuOTU5MDU4LDI5LjU5Mzc1IDExMC45NzA3NzcsMjkuNTk3NjU2IEMxMTAuOTk4MTIxLDI5LjYxNzE4OCAxMTEuMDI1NDY1LDI5LjYzNjcxOSAxMTEuMDUyODA4LDI5LjY1MjM0NCBDMTExLjA2MDYyMSwyOS42NTYyNSAxMTEuMDY4NDMzLDI5LjY2MDE1NiAxMTEuMDc2MjQ2LDI5LjY2NDA2MiBDMTExLjEwNzQ5NiwyOS42Nzk2ODggMTExLjEzNDgzOSwyOS42OTUzMTIgMTExLjE2OTk5NiwyOS43MDcwMzEgQzExMS4xNzc4MDgsMjkuNzEwOTM4IDExMS4xODU2MjEsMjkuNzE0ODQ0IDExMS4xOTczMzksMjkuNzE0ODQ0IEMxMTEuMjI0NjgzLDI5LjcyNjU2MiAxMTEuMjUyMDI3LDI5LjczODI4MSAxMTEuMjgzMjc3LDI5Ljc0NjA5NCBDMTExLjMyMjMzOSwyOS43NTM5MDYgMTExLjM2MTQwMiwyOS43NjE3MTkgMTExLjM5NjU1OCwyOS43Njk1MzEgTDExMS41MTM3NDYsMjkuNzY5NTMxIEMxMTEuNTYwNjIxLDI5Ljc2OTUzMSAxMTEuNjAzNTg5LDI5Ljc2NTYyNSAxMTEuNjQ2NTU4LDI5Ljc1NzgxMiBDMTExLjY1ODI3NywyOS43NTc4MTIgMTExLjY2NjA4OSwyOS43NTc4MTIgMTExLjY3NzgwOCwyOS43NTM5MDYgQzExMS43MTY4NzEsMjkuNzQ2MDk0IDExMS43NTIwMjcsMjkuNzM4MjgxIDExMS43ODcxODMsMjkuNzI2NTYyIEMxMTEuNzk4OTAyLDI5LjcyMjY1NiAxMTEuODA2NzE1LDI5LjcxODc1IDExMS44MTQ1MjcsMjkuNzE0ODQ0IEMxMTEuODUzNTg5LDI5LjcwMzEyNSAxMTEuODkyNjUyLDI5LjY4MzU5NCAxMTEuOTI3ODA4LDI5LjY2NDA2MiBDMTExLjkzMTcxNSwyOS42NjQwNjIgMTExLjkzNTYyMSwyOS42NjAxNTYgMTExLjkzOTUyNywyOS42NjAxNTYgQzExMS45ODI0OTYsMjkuNjMyODEyIDExMi4wMjU0NjUsMjkuNjA1NDY5IDExMi4wNjA2MjEsMjkuNTc4MTI1IEMxMTIuMjE2ODcxLDI5LjQ2MDkzOCAxMTIuMzMwMTUyLDI5LjMwODU5NCAxMTIuNDA4Mjc3LDI5LjEyMTA5NCBMMTEyLjQwODI3NywyOS4xMTcxODggTDExNC42MDc0OTYsMjMuMTk1MzEyIEwxMTcuNzAxMjQ2LDE0Ljg2MzI4MSBDMTE3LjgyMjMzOSwxNC41NzAzMTIgMTE3Ljc3NTQ2NSwxNC4yNSAxMTcuNjA3NDk2LDE0IEMxMTcuNTk5NjgzLDEzLjk4NDM3NSAxMTcuNTg3OTY1LDEzLjk2ODc1IDExNy41NzYyNDYsMTMuOTUzMTI1Ii8+JiN4YTsgICAgICAgICAgICA8cGF0aCBpZD0iUGF0aDEyIiBkPSJNMTY3LjI1MjAyNywxNC4yMTQ4NDQgQzE2Ny4yNTIwMjcsMTQuMTk5MjE5IDE2Ny4yNDgxMjEsMTQuMTc5Njg4IDE2Ny4yNDQyMTUsMTQuMTY0MDYyIEMxNjcuMjQ0MjE1LDE0LjE1MjM0NCAxNjcuMjQwMzA4LDE0LjE0MDYyNSAxNjcuMjM2NDAyLDE0LjEyODkwNiBDMTY3LjIzMjQ5NiwxNC4xMDkzNzUgMTY3LjIyODU4OSwxNC4wODk4NDQgMTY3LjIyNDY4MywxNC4wNzQyMTkgQzE2Ny4yMjA3NzcsMTQuMDYyNSAxNjcuMjE2ODcxLDE0LjA1MDc4MSAxNjcuMjEyOTY1LDE0LjA0Mjk2OSBDMTY3LjIwOTA1OCwxNC4wMTk1MzEgMTY3LjIwMTI0NiwxNCAxNjcuMTg5NTI3LDEzLjk4MDQ2OSBDMTY3LjE4OTUyNywxMy45NzI2NTYgMTY3LjE4NTYyMSwxMy45Njg3NSAxNjcuMTgxNzE1LDEzLjk2MDkzOCBDMTY3LjE2OTk5NiwxMy45MzM1OTQgMTY3LjE1ODI3NywxMy45MTAxNTYgMTY3LjE0MjY1MiwxMy44ODY3MTkgQzE2Ny4xNDI2NTIsMTMuODgyODEyIDE2Ny4xNDI2NTIsMTMuODgyODEyIDE2Ny4xNDI2NTIsMTMuODgyODEyIEMxNjcuMDk1Nzc3LDEzLjgwMDc4MSAxNjcuMDM3MTgzLDEzLjczMDQ2OSAxNjYuOTcwNzc3LDEzLjY2Nzk2OSBDMTY2Ljk2Njg3MSwxMy42NjQwNjIgMTY2Ljk2Njg3MSwxMy42NjQwNjIgMTY2Ljk2Njg3MSwxMy42NjQwNjIgQzE2Ni45NjI5NjUsMTMuNjYwMTU2IDE2Ni45NjI5NjUsMTMuNjYwMTU2IDE2Ni45NjI5NjUsMTMuNjYwMTU2IEMxNjYuNjMwOTMzLDEzLjMyODEyNSAxNjYuMTYyMTgzLDEzLjI4NTE1NiAxNjUuNzk0OTk2LDEzLjU0Mjk2OSBDMTY1Ljc4MzI3NywxMy41NTA3ODEgMTY1Ljc3NTQ2NSwxMy41NTg1OTQgMTY1Ljc2Mzc0NiwxMy41NjI1IEMxNjUuNzQ4MTIxLDEzLjU3NDIxOSAxNjUuNzMyNDk2LDEzLjU4NTkzOCAxNjUuNzE2ODcxLDEzLjU5NzY1NiBDMTY1LjY5MzQzMywxMy42MjEwOTQgMTY1LjY2OTk5NiwxMy42NDA2MjUgMTY1LjY0NjU1OCwxMy42NjQwNjIgQzE2NS42NDY1NTgsMTMuNjY0MDYyIDE2NS42NDI2NTIsMTMuNjY0MDYyIDE2NS42NDI2NTIsMTMuNjY3OTY5IEwxNTYuNDkwMzA4LDIyLjU4OTg0NCBMMTU2LjQ5MDMwOCw3LjY2Nzk2OSBDMTU2LjQ5MDMwOCw3LjYzNjcxOSAxNTYuNDkwMzA4LDcuNjA1NDY5IDE1Ni40ODY0MDIsNy41NzQyMTkgQzE1Ni40NTEyNDYsNy4yMzA0NjkgMTU2LjIyMDc3Nyw2Ljk0NTMxMiAxNTUuOTA4Mjc3LDYuODEyNSBDMTU1LjkwNDM3MSw2LjgxMjUgMTU1LjkwNDM3MSw2LjgwODU5NCAxNTUuOTAwNDY1LDYuODA4NTk0IEMxNTUuODgwOTMzLDYuODAwNzgxIDE1NS44NjE0MDIsNi43OTI5NjkgMTU1Ljg0MTg3MSw2Ljc4OTA2MiBDMTU1LjgzNDA1OCw2Ljc4NTE1NiAxNTUuODIyMzM5LDYuNzgxMjUgMTU1LjgxMDYyMSw2Ljc3NzM0NCBDMTU1Ljc5NDk5Niw2Ljc3MzQzOCAxNTUuNzc5MzcxLDYuNzY5NTMxIDE1NS43NTk4MzksNi43NjU2MjUgQzE1NS43NDgxMjEsNi43NjE3MTkgMTU1LjczMjQ5Niw2Ljc1NzgxMiAxNTUuNzE2ODcxLDYuNzUzOTA2IEMxNTUuNzAxMjQ2LDYuNzUgMTU1LjY4MTcxNSw2Ljc0NjA5NCAxNTUuNjY2MDg5LDYuNzQ2MDk0IEMxNTUuNjUwNDY1LDYuNzQyMTg4IDE1NS42Mzg3NDYsNi43NDIxODggMTU1LjYyMzEyMSw2LjczODI4MSBDMTU1LjU4Nzk2NSw2LjczNDM3NSAxNTUuNTU2NzE1LDYuNzM0Mzc1IDE1NS41MjU0NjUsNi43MzQzNzUgQzE1NS4wMTM3NDYsNi43MzQzNzUgMTU0LjU4Nzk2NSw3LjE2MDE1NiAxNTQuNTg3OTY1LDcuNjY3OTY5IEwxNTQuNTg3OTY1LDI4LjgzMjAzMSBDMTU0LjU4Nzk2NSwyOS4zNDM3NSAxNTUuMDEzNzQ2LDI5Ljc2OTUzMSAxNTUuNTI1NDY1LDI5Ljc2OTUzMSBDMTU1LjU1NjcxNSwyOS43Njk1MzEgMTU1LjU5MTg3MSwyOS43Njk1MzEgMTU1LjYyMzEyMSwyOS43NjU2MjUgQzE1NS42MjcwMjcsMjkuNzY1NjI1IDE1NS42MzA5MzMsMjkuNzYxNzE5IDE1NS42Mzg3NDYsMjkuNzYxNzE5IEMxNTUuNjY2MDg5LDI5Ljc1NzgxMiAxNTUuNjkzNDMzLDI5Ljc1NzgxMiAxNTUuNzE2ODcxLDI5Ljc1IEMxNTUuNzI0NjgzLDI5Ljc1IDE1NS43MzI0OTYsMjkuNzQ2MDk0IDE1NS43NDAzMDgsMjkuNzQ2MDk0IEMxNTUuNzYzNzQ2LDI5LjczODI4MSAxNTUuNzg3MTgzLDI5LjczNDM3NSAxNTUuODEwNjIxLDI5LjcyNjU2MiBDMTU1LjgxNDUyNywyOS43MjY1NjIgMTU1LjgxODQzMywyOS43MjI2NTYgMTU1LjgyMjMzOSwyOS43MjI2NTYgQzE1Ni4xODE3MTUsMjkuNjA5Mzc1IDE1Ni40NDczMzksMjkuMzAwNzgxIDE1Ni40ODY0MDIsMjguOTI5Njg4IEMxNTYuNDkwMzA4LDI4Ljg5ODQzOCAxNTYuNDkwMzA4LDI4Ljg2NzE4OCAxNTYuNDkwMzA4LDI4LjgzMjAzMSBMMTU2LjQ5MDMwOCwyNS4yNjE3MTkgTDE1OS41NzIzMzksMjIuMTgzNTk0IEwxNjUuNTYwNjIxLDI5LjQxMDE1NiBDMTY1LjU5OTY4MywyOS40NzI2NTYgMTY1LjY0MjY1MiwyOS41MjczNDQgMTY1LjY5NzMzOSwyOS41NzAzMTIgQzE2NS43MDkwNTgsMjkuNTgyMDMxIDE2NS43MTY4NzEsMjkuNTg5ODQ0IDE2NS43Mjg1ODksMjkuNTk3NjU2IEMxNjUuNzQ0MjE1LDI5LjYwOTM3NSAxNjUuNzU5ODM5LDI5LjYyMTA5NCAxNjUuNzc1NDY1LDI5LjYyODkwNiBDMTY1Ljc5NDk5NiwyOS42NDQ1MzEgMTY1LjgxNDUyNywyOS42NTIzNDQgMTY1LjgzNDA1OCwyOS42NjQwNjIgQzE2NS44NDE4NzEsMjkuNjY3OTY5IDE2NS44NTM1ODksMjkuNjc1NzgxIDE2NS44NjE0MDIsMjkuNjc5Njg4IEMxNjUuODg4NzQ2LDI5LjY5MTQwNiAxNjUuOTEyMTgzLDI5LjY5OTIxOSAxNjUuOTM5NTI3LDI5LjcxMDkzOCBDMTY1Ljk0NzMzOSwyOS43MTQ4NDQgMTY1Ljk1NTE1MiwyOS43MTQ4NDQgMTY1Ljk1OTA1OCwyOS43MTg3NSBDMTY1Ljk5MDMwOCwyOS43MjY1NjIgMTY2LjAxNzY1MiwyOS43MzQzNzUgMTY2LjA0ODkwMiwyOS43NDIxODggQzE2Ni4wNTI4MDgsMjkuNzQyMTg4IDE2Ni4wNjA2MjEsMjkuNzQ2MDk0IDE2Ni4wNjg0MzMsMjkuNzQ2MDk0IEMxNjYuMDk5NjgzLDI5Ljc1MzkwNiAxNjYuMTI3MDI3LDI5Ljc1NzgxMiAxNjYuMTYyMTgzLDI5Ljc2MTcxOSBDMTY2LjE2OTk5NiwyOS43NjE3MTkgMTY2LjE3NzgwOCwyOS43NjE3MTkgMTY2LjE4NTYyMSwyOS43NjU2MjUgQzE2Ni4yMjQ2ODMsMjkuNzY1NjI1IDE2Ni4yNjM3NDYsMjkuNzY5NTMxIDE2Ni4zMDY3MTUsMjkuNzY5NTMxIEMxNjYuMzY5MjE1LDI5Ljc2OTUzMSAxNjYuNDI3ODA4LDI5Ljc2NTYyNSAxNjYuNDgyNDk2LDI5Ljc1NzgxMiBDMTY2LjQ4NjQwMiwyOS43NTc4MTIgMTY2LjQ4NjQwMiwyOS43NTc4MTIgMTY2LjQ4NjQwMiwyOS43NTc4MTIgQzE2Ni41OTU3NzcsMjkuNzQyMTg4IDE2Ni42OTczMzksMjkuNzA3MDMxIDE2Ni43OTEwODksMjkuNjYwMTU2IEMxNjYuNzk0OTk2LDI5LjY2MDE1NiAxNjYuNzk0OTk2LDI5LjY1NjI1IDE2Ni43OTQ5OTYsMjkuNjU2MjUgQzE2Ni44Mzc5NjUsMjkuNjMyODEyIDE2Ni44ODA5MzMsMjkuNjA1NDY5IDE2Ni45MjM5MDIsMjkuNTc0MjE5IEwxNjYuOTM1NjIxLDI5LjU2MjUgQzE2Ny4yOTEwODksMjkuMjA3MDMxIDE2Ny4zNDU3NzcsMjguNzIyNjU2IDE2Ny4wODc5NjUsMjguMzIwMzEyIEMxNjcuMDY0NTI3LDI4LjI4NTE1NiAxNjcuMDQxMDg5LDI4LjI1IDE2Ny4wMTM3NDYsMjguMjE0ODQ0IEwxNjAuOTMxNzE1LDIwLjgyODEyNSBMMTY2Ljk3MDc3NywxNC45OTIxODggQzE2Ny4xMzA5MzMsMTQuODI4MTI1IDE2Ny4yMjg1ODksMTQuNjI4OTA2IDE2Ny4yNTIwMjcsMTQuNDE0MDYyIEMxNjcuMjUyMDI3LDE0LjQxMDE1NiAxNjcuMjUyMDI3LDE0LjQwNjI1IDE2Ny4yNTU5MzMsMTQuNDAyMzQ0IEMxNjcuMjU1OTMzLDE0LjM4MjgxMiAxNjcuMjU1OTMzLDE0LjM1OTM3NSAxNjcuMjU1OTMzLDE0LjMzOTg0NCBDMTY3LjI1NTkzMywxNC4zMjgxMjUgMTY3LjI1OTgzOSwxNC4zMTY0MDYgMTY3LjI1OTgzOSwxNC4zMDg1OTQgQzE2Ny4yNTk4MzksMTQuMzAwNzgxIDE2Ny4yNTk4MzksMTQuMjk2ODc1IDE2Ny4yNTk4MzksMTQuMjkyOTY5IEMxNjcuMjU5ODM5LDE0LjI3NzM0NCAxNjcuMjU1OTMzLDE0LjI2NTYyNSAxNjcuMjU1OTMzLDE0LjI1IEMxNjcuMjU1OTMzLDE0LjIzODI4MSAxNjcuMjUyMDI3LDE0LjIyNjU2MiAxNjcuMjUyMDI3LDE0LjIxNDg0NCIvPiYjeGE7ICAgICAgICA8L2c+JiN4YTsgICAgPC9nPiYjeGE7PC9zdmc+;" vertex="1" parent="OILzzEsl-uqrJFS4-kZk-11">
          <mxGeometry x="17.5" y="40" width="185" height="44" as="geometry" />
        </mxCell>
        <mxCell id="OILzzEsl-uqrJFS4-kZk-18" value="" style="group" vertex="1" connectable="0" parent="1">
          <mxGeometry x="390" y="15.999999999999938" width="287.5" height="59.38" as="geometry" />
        </mxCell>
        <mxCell id="OILzzEsl-uqrJFS4-kZk-12" value="" style="shape=cylinder3;whiteSpace=wrap;html=1;boundedLbl=1;backgroundOutline=1;size=7;rotation=90;" vertex="1" parent="OILzzEsl-uqrJFS4-kZk-18">
          <mxGeometry x="114.05999999999995" y="-114.05999999999995" width="59.38" height="287.5" as="geometry" />
        </mxCell>
        <mxCell id="OILzzEsl-uqrJFS4-kZk-13" value="" style="shape=note;whiteSpace=wrap;html=1;backgroundOutline=1;darkOpacity=0.05;size=11;fillColor=#f8cecc;strokeColor=#b85450;" vertex="1" parent="OILzzEsl-uqrJFS4-kZk-18">
          <mxGeometry x="18.49000000000001" y="9.690000000000062" width="30" height="40" as="geometry" />
        </mxCell>
        <mxCell id="OILzzEsl-uqrJFS4-kZk-14" value="" style="shape=note;whiteSpace=wrap;html=1;backgroundOutline=1;darkOpacity=0.05;size=11;fillColor=#f8cecc;strokeColor=#b85450;" vertex="1" parent="OILzzEsl-uqrJFS4-kZk-18">
          <mxGeometry x="57.49000000000001" y="9.690000000000062" width="30" height="40" as="geometry" />
        </mxCell>
        <mxCell id="OILzzEsl-uqrJFS4-kZk-15" value="" style="shape=note;whiteSpace=wrap;html=1;backgroundOutline=1;darkOpacity=0.05;size=11;fillColor=#f8cecc;strokeColor=#b85450;" vertex="1" parent="OILzzEsl-uqrJFS4-kZk-18">
          <mxGeometry x="97.49000000000001" y="9.690000000000062" width="30" height="40" as="geometry" />
        </mxCell>
        <mxCell id="OILzzEsl-uqrJFS4-kZk-16" value="Kafka" style="text;html=1;align=center;verticalAlign=middle;whiteSpace=wrap;rounded=0;" vertex="1" parent="OILzzEsl-uqrJFS4-kZk-18">
          <mxGeometry x="177.49" y="13.13000000000006" width="60" height="34" as="geometry" />
        </mxCell>
        <mxCell id="OILzzEsl-uqrJFS4-kZk-19" style="edgeStyle=orthogonalEdgeStyle;rounded=0;orthogonalLoop=1;jettySize=auto;html=1;exitX=1;exitY=0.5;exitDx=0;exitDy=0;exitPerimeter=0;" edge="1" parent="1" source="OILzzEsl-uqrJFS4-kZk-1" target="OILzzEsl-uqrJFS4-kZk-29">
          <mxGeometry relative="1" as="geometry" />
        </mxCell>
        <mxCell id="OILzzEsl-uqrJFS4-kZk-20" value="OnFS Consumer" style="rounded=1;whiteSpace=wrap;html=1;" vertex="1" parent="1">
          <mxGeometry x="770" y="15.38" width="120" height="60" as="geometry" />
        </mxCell>
        <mxCell id="OILzzEsl-uqrJFS4-kZk-21" style="edgeStyle=orthogonalEdgeStyle;rounded=0;orthogonalLoop=1;jettySize=auto;html=1;exitX=0.5;exitY=0;exitDx=0;exitDy=0;exitPerimeter=0;entryX=0;entryY=0.5;entryDx=0;entryDy=0;" edge="1" parent="1" source="OILzzEsl-uqrJFS4-kZk-12" target="OILzzEsl-uqrJFS4-kZk-20">
          <mxGeometry relative="1" as="geometry" />
        </mxCell>
        <mxCell id="OILzzEsl-uqrJFS4-kZk-25" style="edgeStyle=orthogonalEdgeStyle;rounded=0;orthogonalLoop=1;jettySize=auto;html=1;exitX=0;exitY=0.5;exitDx=0;exitDy=0;" edge="1" parent="1" source="OILzzEsl-uqrJFS4-kZk-22" target="OILzzEsl-uqrJFS4-kZk-23">
          <mxGeometry relative="1" as="geometry" />
        </mxCell>
        <mxCell id="OILzzEsl-uqrJFS4-kZk-26" value="Metadata" style="edgeLabel;html=1;align=center;verticalAlign=middle;resizable=0;points=[];" vertex="1" connectable="0" parent="OILzzEsl-uqrJFS4-kZk-25">
          <mxGeometry x="0.1658" relative="1" as="geometry">
            <mxPoint as="offset" />
          </mxGeometry>
        </mxCell>
        <mxCell id="OILzzEsl-uqrJFS4-kZk-22" value="Horizon" style="rounded=1;whiteSpace=wrap;html=1;" vertex="1" parent="1">
          <mxGeometry x="770" y="-160" width="120" height="60" as="geometry" />
        </mxCell>
        <mxCell id="OILzzEsl-uqrJFS4-kZk-23" value="spark-feature-push-client" style="rounded=1;whiteSpace=wrap;html=1;dashed=1;" vertex="1" parent="1">
          <mxGeometry x="230" y="20.38" width="80" height="49.62" as="geometry" />
        </mxCell>
        <mxCell id="OILzzEsl-uqrJFS4-kZk-31" style="edgeStyle=orthogonalEdgeStyle;rounded=0;orthogonalLoop=1;jettySize=auto;html=1;exitX=0.75;exitY=1;exitDx=0;exitDy=0;entryX=0;entryY=0.25;entryDx=0;entryDy=0;startArrow=classic;startFill=1;" edge="1" parent="1" source="OILzzEsl-uqrJFS4-kZk-28" target="OILzzEsl-uqrJFS4-kZk-23">
          <mxGeometry relative="1" as="geometry" />
        </mxCell>
        <mxCell id="OILzzEsl-uqrJFS4-kZk-28" value="&lt;b&gt;&lt;font style=&quot;font-size: 14px;&quot;&gt;feature_porter.ipynb&lt;/font&gt;&lt;/b&gt;" style="text;html=1;align=center;verticalAlign=middle;whiteSpace=wrap;rounded=0;" vertex="1" parent="1">
          <mxGeometry x="84" y="-28" width="154" height="30" as="geometry" />
        </mxCell>
        <mxCell id="OILzzEsl-uqrJFS4-kZk-30" style="edgeStyle=orthogonalEdgeStyle;rounded=0;orthogonalLoop=1;jettySize=auto;html=1;exitX=0.5;exitY=0;exitDx=0;exitDy=0;entryX=0.5;entryY=1;entryDx=0;entryDy=0;" edge="1" parent="1" source="OILzzEsl-uqrJFS4-kZk-29" target="OILzzEsl-uqrJFS4-kZk-28">
          <mxGeometry relative="1" as="geometry" />
        </mxCell>
        <mxCell id="OILzzEsl-uqrJFS4-kZk-29" value="data_helpers.py" style="rounded=1;whiteSpace=wrap;html=1;dashed=1;" vertex="1" parent="1">
          <mxGeometry x="101" y="47" width="120" height="20" as="geometry" />
        </mxCell>
      </root>
    </mxGraphModel>
  </diagram>
  <diagram id="GnG-GW2hbAoOoRL0OujJ" name="Page-2">
    <mxGraphModel grid="1" page="1" gridSize="10" guides="1" tooltips="1" connect="1" arrows="1" fold="1" pageScale="1" pageWidth="850" pageHeight="1100" math="0" shadow="0">
      <root>
        <mxCell id="0" />
        <mxCell id="1" parent="0" />
      </root>
    </mxGraphModel>
  </diagram>
</mxfile>
